M48
; DRILL file {KiCad 5.1.10-88a1d61d58~90~ubuntu20.04.1} date Tue Nov 29 16:27:52 2022
; FORMAT={-:-/ absolute / inch / decimal}
; #@! TF.CreationDate,2022-11-29T16:27:52+00:00
; #@! TF.GenerationSoftware,Kicad,Pcbnew,5.1.10-88a1d61d58~90~ubuntu20.04.1
FMAT,2
INCH
T1C0.0157
T2C0.0276
T3C0.0295
T4C0.0300
T5C0.0315
T6C0.0354
T7C0.0394
T8C0.0472
T9C0.1260
%
G90
G05
T1
X0.8386Y-3.7323
X0.895Y-2.574
X0.92Y-3.034
X0.9449Y-3.6811
X0.95Y-1.794
X1.0Y-2.734
X1.0Y-2.789
X1.0Y-3.689
X1.0315Y-4.0
X1.075Y-0.869
X1.09Y-2.864
X1.1Y-3.559
X1.2Y-1.375
X1.24Y-1.8045
X1.295Y-2.574
X1.32Y-3.034
X1.4Y-2.734
X1.4Y-2.789
X1.4Y-3.689
X1.416Y-1.705
X1.49Y-2.864
X1.5Y-3.559
X1.6465Y-0.853
X1.6465Y-0.9705
X1.695Y-2.574
X1.72Y-3.034
X1.7425Y-1.3225
X1.8Y-2.734
X1.8Y-2.789
X1.805Y-3.689
X1.89Y-2.864
X1.905Y-3.559
X2.095Y-2.574
X2.12Y-3.034
X2.2Y-2.734
X2.2Y-2.789
X2.205Y-3.689
X2.29Y-2.864
X2.305Y-3.559
X2.495Y-2.574
X2.52Y-3.034
X2.6Y-2.734
X2.6Y-2.789
X2.605Y-3.679
X2.69Y-2.864
X2.705Y-3.559
X2.895Y-2.574
X2.915Y-1.009
X2.915Y-1.109
X2.915Y-1.209
X2.92Y-1.309
X2.92Y-1.409
X2.92Y-1.509
X2.92Y-1.809
X2.92Y-1.909
X2.92Y-3.034
X2.93Y-2.314
X2.965Y-2.349
X3.0Y-2.384
X3.0Y-2.734
X3.0Y-2.789
X3.005Y-3.689
X3.03Y-2.419
X3.07Y-2.419
X3.09Y-2.864
X3.105Y-2.384
X3.105Y-3.559
X3.14Y-2.349
X3.175Y-2.314
X3.29Y-1.659
X3.295Y-2.574
X3.32Y-3.034
X3.4Y-2.734
X3.4Y-2.789
X3.405Y-3.689
X3.49Y-2.864
X3.505Y-3.559
X3.695Y-2.574
X3.72Y-3.034
X3.73Y-1.814
X3.745Y-1.599
X3.8Y-2.734
X3.8Y-2.789
X3.805Y-3.689
X3.815Y-1.949
X3.845Y-1.669
X3.89Y-2.864
X3.905Y-3.559
X3.915Y-1.599
X3.9325Y-1.309
X3.945Y-1.949
X4.0325Y-1.309
X4.075Y-1.949
X4.1325Y-1.309
X4.205Y-1.949
X4.2325Y-1.309
X4.275Y-1.579
X4.3325Y-1.3065
X4.335Y-1.949
X4.435Y-1.304
X4.465Y-1.949
T2
X2.2725Y-1.0765
X2.4675Y-1.0765
T3
X0.9Y-3.334
X0.9Y-3.384
X0.9Y-3.434
X1.095Y-3.334
X1.095Y-3.384
X1.095Y-3.434
X1.3Y-3.334
X1.3Y-3.384
X1.3Y-3.434
X1.495Y-3.334
X1.495Y-3.384
X1.495Y-3.434
X1.705Y-3.334
X1.705Y-3.384
X1.705Y-3.434
X1.9Y-3.334
X1.9Y-3.384
X1.9Y-3.434
X2.105Y-3.334
X2.105Y-3.384
X2.105Y-3.434
X2.3Y-3.334
X2.3Y-3.384
X2.3Y-3.434
X2.505Y-3.334
X2.505Y-3.384
X2.505Y-3.434
X2.7Y-3.334
X2.7Y-3.384
X2.7Y-3.434
X2.905Y-3.334
X2.905Y-3.384
X2.905Y-3.434
X3.1Y-3.334
X3.1Y-3.384
X3.1Y-3.434
X3.305Y-3.334
X3.305Y-3.384
X3.305Y-3.434
X3.5Y-3.334
X3.5Y-3.384
X3.5Y-3.434
X3.705Y-3.334
X3.705Y-3.384
X3.705Y-3.434
X3.895Y-3.334
X3.895Y-3.384
X3.895Y-3.434
T4
X1.347Y-0.969
X1.447Y-0.969
X1.547Y-0.969
X1.747Y-0.969
X1.847Y-0.969
X1.947Y-0.969
X2.047Y-0.969
X2.272Y-0.9772
X2.272Y-1.174
X2.4689Y-0.9772
X2.4689Y-1.174
T5
X0.855Y-2.899
X0.855Y-2.999
X0.9Y-3.114
X0.9Y-3.214
X1.095Y-3.114
X1.095Y-3.214
X1.155Y-2.899
X1.155Y-2.999
X1.162Y-1.719
X1.162Y-1.7978
X1.2Y-1.299
X1.2Y-1.599
X1.255Y-2.899
X1.255Y-2.999
X1.295Y-3.114
X1.295Y-3.214
X1.322Y-1.274
X1.322Y-1.374
X1.322Y-1.504
X1.322Y-1.604
X1.322Y-1.704
X1.322Y-1.804
X1.495Y-3.114
X1.495Y-3.214
X1.52Y-1.274
X1.52Y-1.374
X1.555Y-2.899
X1.555Y-2.999
X1.622Y-1.274
X1.622Y-1.374
X1.622Y-1.504
X1.622Y-1.604
X1.622Y-1.704
X1.622Y-1.804
X1.655Y-2.899
X1.655Y-2.999
X1.705Y-3.114
X1.705Y-3.214
X1.732Y-1.504
X1.732Y-1.604
X1.9Y-3.114
X1.9Y-3.214
X1.955Y-2.899
X1.955Y-2.999
X2.055Y-2.899
X2.055Y-2.999
X2.105Y-3.114
X2.105Y-3.214
X2.3Y-3.114
X2.3Y-3.214
X2.355Y-2.899
X2.355Y-2.999
X2.455Y-2.899
X2.455Y-2.999
X2.505Y-3.114
X2.505Y-3.214
X2.675Y-2.1803
X2.675Y-2.259
X2.682Y-0.879
X2.682Y-0.9578
X2.7Y-3.114
X2.7Y-3.214
X2.755Y-2.899
X2.755Y-2.999
X2.852Y-0.959
X2.852Y-1.059
X2.852Y-1.159
X2.852Y-1.259
X2.852Y-1.359
X2.852Y-1.459
X2.852Y-1.559
X2.852Y-1.659
X2.852Y-1.759
X2.852Y-1.859
X2.852Y-1.959
X2.852Y-2.059
X2.852Y-2.159
X2.852Y-2.259
X2.855Y-2.899
X2.855Y-2.999
X2.905Y-3.114
X2.905Y-3.214
X3.1Y-3.114
X3.1Y-3.214
X3.155Y-2.899
X3.155Y-2.999
X3.255Y-2.899
X3.255Y-2.999
X3.305Y-3.114
X3.305Y-3.214
X3.452Y-0.959
X3.452Y-1.059
X3.452Y-1.159
X3.452Y-1.259
X3.452Y-1.359
X3.452Y-1.459
X3.452Y-1.559
X3.452Y-1.659
X3.452Y-1.759
X3.452Y-1.859
X3.452Y-1.959
X3.452Y-2.059
X3.452Y-2.159
X3.452Y-2.259
X3.5Y-3.114
X3.5Y-3.214
X3.555Y-2.899
X3.555Y-2.999
X3.6225Y-2.209
X3.6225Y-2.309
X3.652Y-1.514
X3.652Y-1.5928
X3.655Y-2.899
X3.655Y-2.999
X3.682Y-0.959
X3.682Y-1.259
X3.705Y-3.114
X3.705Y-3.214
X3.7525Y-2.209
X3.7525Y-2.309
X3.782Y-0.959
X3.782Y-1.259
X3.827Y-1.514
X3.827Y-1.814
X3.882Y-0.959
X3.882Y-1.259
X3.8825Y-2.209
X3.8825Y-2.309
X3.9Y-3.114
X3.9Y-3.214
X3.927Y-1.514
X3.927Y-1.814
X3.955Y-2.899
X3.955Y-2.999
X3.982Y-0.959
X3.982Y-1.259
X4.0125Y-2.209
X4.0125Y-2.309
X4.027Y-1.514
X4.027Y-1.814
X4.082Y-0.959
X4.082Y-1.259
X4.127Y-1.514
X4.127Y-1.814
X4.1425Y-2.209
X4.1425Y-2.309
X4.182Y-0.959
X4.182Y-1.259
X4.227Y-1.514
X4.227Y-1.814
X4.2725Y-2.209
X4.2725Y-2.309
X4.282Y-0.959
X4.282Y-1.259
X4.327Y-1.514
X4.327Y-1.814
X4.382Y-0.959
X4.382Y-1.259
X4.4025Y-2.209
X4.4025Y-2.309
X4.427Y-1.514
X4.427Y-1.814
X4.527Y-1.514
X4.527Y-1.814
X4.5325Y-2.209
X4.5325Y-2.309
X4.66Y-2.209
X4.66Y-2.309
T6
X0.9Y-3.559
X1.0Y-3.559
X1.3Y-3.559
X1.4Y-3.559
X1.705Y-3.559
X1.805Y-3.559
X2.105Y-3.559
X2.205Y-3.559
X2.505Y-3.559
X2.605Y-3.559
X2.905Y-3.559
X3.005Y-3.559
X3.305Y-3.559
X3.405Y-3.559
X3.622Y-1.994
X3.622Y-2.094
X3.705Y-3.559
X3.752Y-1.994
X3.752Y-2.094
X3.805Y-3.559
X3.882Y-1.994
X3.882Y-2.094
X4.012Y-1.994
X4.012Y-2.094
X4.142Y-1.994
X4.142Y-2.094
X4.272Y-1.994
X4.272Y-2.094
X4.402Y-1.994
X4.402Y-2.094
X4.532Y-1.994
X4.532Y-2.094
X4.66Y-1.994
X4.66Y-2.094
T7
X0.897Y-0.87
X0.997Y-0.87
X1.162Y-1.074
X1.1624Y-0.874
X1.955Y-3.7822
X1.955Y-3.979
X2.155Y-3.7822
X2.155Y-3.979
X2.355Y-3.7822
X2.355Y-3.979
X2.555Y-3.7822
X2.555Y-3.979
X2.755Y-3.7822
X2.755Y-3.979
X2.955Y-3.7822
X2.955Y-3.979
X3.155Y-3.7822
X3.155Y-3.979
X3.355Y-3.7822
X3.355Y-3.979
X3.555Y-3.7822
X3.555Y-3.979
T8
X0.95Y-1.274
X0.95Y-1.374
X0.95Y-1.474
X0.95Y-1.574
X0.95Y-1.674
T9
X0.9447Y-1.063
X0.945Y-3.858
X4.5667Y-1.063
X4.567Y-3.858
T0
M30
