G04 #@! TF.GenerationSoftware,KiCad,Pcbnew,(5.1.9-0-10_14)*
G04 #@! TF.CreationDate,2023-02-04T12:05:34+01:00*
G04 #@! TF.ProjectId,PDJRSIM,53494d31-3038-42e6-9b69-6361645f7063,221101*
G04 #@! TF.SameCoordinates,Original*
G04 #@! TF.FileFunction,Legend,Top*
G04 #@! TF.FilePolarity,Positive*
%FSLAX46Y46*%
G04 Gerber Fmt 4.6, Leading zero omitted, Abs format (unit mm)*
G04 Created by KiCad (PCBNEW (5.1.9-0-10_14)) date 2023-02-04 12:05:34*
%MOMM*%
%LPD*%
G01*
G04 APERTURE LIST*
%ADD10C,0.300000*%
%ADD11C,0.150000*%
%ADD12C,0.200000*%
%ADD13C,0.125000*%
%ADD14C,0.250000*%
%ADD15C,0.120000*%
G04 APERTURE END LIST*
D10*
X134642857Y7146428D02*
X134642857Y8646428D01*
X135142857Y7575000D01*
X135642857Y8646428D01*
X135642857Y7146428D01*
X136357142Y7289285D02*
X136428571Y7217857D01*
X136357142Y7146428D01*
X136285714Y7217857D01*
X136357142Y7289285D01*
X136357142Y7146428D01*
X136357142Y8075000D02*
X136428571Y8003571D01*
X136357142Y7932142D01*
X136285714Y8003571D01*
X136357142Y8075000D01*
X136357142Y7932142D01*
X134642857Y6096428D02*
X135142857Y4596428D01*
X135642857Y6096428D01*
X136142857Y4739285D02*
X136214285Y4667857D01*
X136142857Y4596428D01*
X136071428Y4667857D01*
X136142857Y4739285D01*
X136142857Y4596428D01*
X136142857Y5525000D02*
X136214285Y5453571D01*
X136142857Y5382142D01*
X136071428Y5453571D01*
X136142857Y5525000D01*
X136142857Y5382142D01*
X135607142Y2189285D02*
X135535714Y2117857D01*
X135321428Y2046428D01*
X135178571Y2046428D01*
X134964285Y2117857D01*
X134821428Y2260714D01*
X134750000Y2403571D01*
X134678571Y2689285D01*
X134678571Y2903571D01*
X134750000Y3189285D01*
X134821428Y3332142D01*
X134964285Y3475000D01*
X135178571Y3546428D01*
X135321428Y3546428D01*
X135535714Y3475000D01*
X135607142Y3403571D01*
X136250000Y2189285D02*
X136321428Y2117857D01*
X136250000Y2046428D01*
X136178571Y2117857D01*
X136250000Y2189285D01*
X136250000Y2046428D01*
X136250000Y2975000D02*
X136321428Y2903571D01*
X136250000Y2832142D01*
X136178571Y2903571D01*
X136250000Y2975000D01*
X136250000Y2832142D01*
X134821428Y282142D02*
X135321428Y282142D01*
X135535714Y-503571D02*
X134821428Y-503571D01*
X134821428Y996428D01*
X135535714Y996428D01*
X136178571Y-360714D02*
X136250000Y-432142D01*
X136178571Y-503571D01*
X136107142Y-432142D01*
X136178571Y-360714D01*
X136178571Y-503571D01*
X136178571Y425000D02*
X136250000Y353571D01*
X136178571Y282142D01*
X136107142Y353571D01*
X136178571Y425000D01*
X136178571Y282142D01*
X138052142Y7146428D02*
X138052142Y8646428D01*
X138623571Y8646428D01*
X138766428Y8575000D01*
X138837857Y8503571D01*
X138909285Y8360714D01*
X138909285Y8146428D01*
X138837857Y8003571D01*
X138766428Y7932142D01*
X138623571Y7860714D01*
X138052142Y7860714D01*
X139552142Y7146428D02*
X139552142Y8646428D01*
X139909285Y8646428D01*
X140123571Y8575000D01*
X140266428Y8432142D01*
X140337857Y8289285D01*
X140409285Y8003571D01*
X140409285Y7789285D01*
X140337857Y7503571D01*
X140266428Y7360714D01*
X140123571Y7217857D01*
X139909285Y7146428D01*
X139552142Y7146428D01*
X141480714Y8646428D02*
X141480714Y7575000D01*
X141409285Y7360714D01*
X141266428Y7217857D01*
X141052142Y7146428D01*
X140909285Y7146428D01*
X143052142Y7146428D02*
X142552142Y7860714D01*
X142195000Y7146428D02*
X142195000Y8646428D01*
X142766428Y8646428D01*
X142909285Y8575000D01*
X142980714Y8503571D01*
X143052142Y8360714D01*
X143052142Y8146428D01*
X142980714Y8003571D01*
X142909285Y7932142D01*
X142766428Y7860714D01*
X142195000Y7860714D01*
X143623571Y7217857D02*
X143837857Y7146428D01*
X144195000Y7146428D01*
X144337857Y7217857D01*
X144409285Y7289285D01*
X144480714Y7432142D01*
X144480714Y7575000D01*
X144409285Y7717857D01*
X144337857Y7789285D01*
X144195000Y7860714D01*
X143909285Y7932142D01*
X143766428Y8003571D01*
X143695000Y8075000D01*
X143623571Y8217857D01*
X143623571Y8360714D01*
X143695000Y8503571D01*
X143766428Y8575000D01*
X143909285Y8646428D01*
X144266428Y8646428D01*
X144480714Y8575000D01*
X145123571Y7146428D02*
X145123571Y8646428D01*
X145837857Y7146428D02*
X145837857Y8646428D01*
X146337857Y7575000D01*
X146837857Y8646428D01*
X146837857Y7146428D01*
X137980714Y5953571D02*
X138052142Y6025000D01*
X138195000Y6096428D01*
X138552142Y6096428D01*
X138695000Y6025000D01*
X138766428Y5953571D01*
X138837857Y5810714D01*
X138837857Y5667857D01*
X138766428Y5453571D01*
X137909285Y4596428D01*
X138837857Y4596428D01*
X139337857Y6096428D02*
X140266428Y6096428D01*
X139766428Y5525000D01*
X139980714Y5525000D01*
X140123571Y5453571D01*
X140195000Y5382142D01*
X140266428Y5239285D01*
X140266428Y4882142D01*
X140195000Y4739285D01*
X140123571Y4667857D01*
X139980714Y4596428D01*
X139552142Y4596428D01*
X139409285Y4667857D01*
X139337857Y4739285D01*
X141195000Y6096428D02*
X141337857Y6096428D01*
X141480714Y6025000D01*
X141552142Y5953571D01*
X141623571Y5810714D01*
X141695000Y5525000D01*
X141695000Y5167857D01*
X141623571Y4882142D01*
X141552142Y4739285D01*
X141480714Y4667857D01*
X141337857Y4596428D01*
X141195000Y4596428D01*
X141052142Y4667857D01*
X140980714Y4739285D01*
X140909285Y4882142D01*
X140837857Y5167857D01*
X140837857Y5525000D01*
X140909285Y5810714D01*
X140980714Y5953571D01*
X141052142Y6025000D01*
X141195000Y6096428D01*
X142266428Y5953571D02*
X142337857Y6025000D01*
X142480714Y6096428D01*
X142837857Y6096428D01*
X142980714Y6025000D01*
X143052142Y5953571D01*
X143123571Y5810714D01*
X143123571Y5667857D01*
X143052142Y5453571D01*
X142195000Y4596428D01*
X143123571Y4596428D01*
X144052142Y6096428D02*
X144195000Y6096428D01*
X144337857Y6025000D01*
X144409285Y5953571D01*
X144480714Y5810714D01*
X144552142Y5525000D01*
X144552142Y5167857D01*
X144480714Y4882142D01*
X144409285Y4739285D01*
X144337857Y4667857D01*
X144195000Y4596428D01*
X144052142Y4596428D01*
X143909285Y4667857D01*
X143837857Y4739285D01*
X143766428Y4882142D01*
X143695000Y5167857D01*
X143695000Y5525000D01*
X143766428Y5810714D01*
X143837857Y5953571D01*
X143909285Y6025000D01*
X144052142Y6096428D01*
X145052142Y6096428D02*
X145980714Y6096428D01*
X145480714Y5525000D01*
X145695000Y5525000D01*
X145837857Y5453571D01*
X145909285Y5382142D01*
X145980714Y5239285D01*
X145980714Y4882142D01*
X145909285Y4739285D01*
X145837857Y4667857D01*
X145695000Y4596428D01*
X145266428Y4596428D01*
X145123571Y4667857D01*
X145052142Y4739285D01*
X137980714Y3403571D02*
X138052142Y3475000D01*
X138195000Y3546428D01*
X138552142Y3546428D01*
X138695000Y3475000D01*
X138766428Y3403571D01*
X138837857Y3260714D01*
X138837857Y3117857D01*
X138766428Y2903571D01*
X137909285Y2046428D01*
X138837857Y2046428D01*
X139766428Y3546428D02*
X139909285Y3546428D01*
X140052142Y3475000D01*
X140123571Y3403571D01*
X140195000Y3260714D01*
X140266428Y2975000D01*
X140266428Y2617857D01*
X140195000Y2332142D01*
X140123571Y2189285D01*
X140052142Y2117857D01*
X139909285Y2046428D01*
X139766428Y2046428D01*
X139623571Y2117857D01*
X139552142Y2189285D01*
X139480714Y2332142D01*
X139409285Y2617857D01*
X139409285Y2975000D01*
X139480714Y3260714D01*
X139552142Y3403571D01*
X139623571Y3475000D01*
X139766428Y3546428D01*
X140837857Y3403571D02*
X140909285Y3475000D01*
X141052142Y3546428D01*
X141409285Y3546428D01*
X141552142Y3475000D01*
X141623571Y3403571D01*
X141695000Y3260714D01*
X141695000Y3117857D01*
X141623571Y2903571D01*
X140766428Y2046428D01*
X141695000Y2046428D01*
X142195000Y3546428D02*
X143123571Y3546428D01*
X142623571Y2975000D01*
X142837857Y2975000D01*
X142980714Y2903571D01*
X143052142Y2832142D01*
X143123571Y2689285D01*
X143123571Y2332142D01*
X143052142Y2189285D01*
X142980714Y2117857D01*
X142837857Y2046428D01*
X142409285Y2046428D01*
X142266428Y2117857D01*
X142195000Y2189285D01*
X145337857Y1475000D02*
X145266428Y1546428D01*
X145123571Y1760714D01*
X145052142Y1903571D01*
X144980714Y2117857D01*
X144909285Y2475000D01*
X144909285Y2760714D01*
X144980714Y3117857D01*
X145052142Y3332142D01*
X145123571Y3475000D01*
X145266428Y3689285D01*
X145337857Y3760714D01*
X146552142Y2117857D02*
X146409285Y2046428D01*
X146123571Y2046428D01*
X145980714Y2117857D01*
X145909285Y2189285D01*
X145837857Y2332142D01*
X145837857Y2760714D01*
X145909285Y2903571D01*
X145980714Y2975000D01*
X146123571Y3046428D01*
X146409285Y3046428D01*
X146552142Y2975000D01*
X147052142Y1475000D02*
X147123571Y1546428D01*
X147266428Y1760714D01*
X147337857Y1903571D01*
X147409285Y2117857D01*
X147480714Y2475000D01*
X147480714Y2760714D01*
X147409285Y3117857D01*
X147337857Y3332142D01*
X147266428Y3475000D01*
X147123571Y3689285D01*
X147052142Y3760714D01*
X149337857Y2046428D02*
X149337857Y3546428D01*
X149909285Y3546428D01*
X150052142Y3475000D01*
X150123571Y3403571D01*
X150195000Y3260714D01*
X150195000Y3046428D01*
X150123571Y2903571D01*
X150052142Y2832142D01*
X149909285Y2760714D01*
X149337857Y2760714D01*
X151480714Y2046428D02*
X151480714Y2832142D01*
X151409285Y2975000D01*
X151266428Y3046428D01*
X150980714Y3046428D01*
X150837857Y2975000D01*
X151480714Y2117857D02*
X151337857Y2046428D01*
X150980714Y2046428D01*
X150837857Y2117857D01*
X150766428Y2260714D01*
X150766428Y2403571D01*
X150837857Y2546428D01*
X150980714Y2617857D01*
X151337857Y2617857D01*
X151480714Y2689285D01*
X152837857Y3046428D02*
X152837857Y2046428D01*
X152195000Y3046428D02*
X152195000Y2260714D01*
X152266428Y2117857D01*
X152409285Y2046428D01*
X152623571Y2046428D01*
X152766428Y2117857D01*
X152837857Y2189285D01*
X153766428Y2046428D02*
X153623571Y2117857D01*
X153552142Y2260714D01*
X153552142Y3546428D01*
X156337857Y2046428D02*
X155837857Y2760714D01*
X155480714Y2046428D02*
X155480714Y3546428D01*
X156052142Y3546428D01*
X156195000Y3475000D01*
X156266428Y3403571D01*
X156337857Y3260714D01*
X156337857Y3046428D01*
X156266428Y2903571D01*
X156195000Y2832142D01*
X156052142Y2760714D01*
X155480714Y2760714D01*
X157552142Y2117857D02*
X157409285Y2046428D01*
X157123571Y2046428D01*
X156980714Y2117857D01*
X156909285Y2260714D01*
X156909285Y2832142D01*
X156980714Y2975000D01*
X157123571Y3046428D01*
X157409285Y3046428D01*
X157552142Y2975000D01*
X157623571Y2832142D01*
X157623571Y2689285D01*
X156909285Y2546428D01*
X158837857Y2117857D02*
X158695000Y2046428D01*
X158409285Y2046428D01*
X158266428Y2117857D01*
X158195000Y2260714D01*
X158195000Y2832142D01*
X158266428Y2975000D01*
X158409285Y3046428D01*
X158695000Y3046428D01*
X158837857Y2975000D01*
X158909285Y2832142D01*
X158909285Y2689285D01*
X158195000Y2546428D01*
X159409285Y3046428D02*
X159766428Y2046428D01*
X160123571Y3046428D01*
X161266428Y2117857D02*
X161123571Y2046428D01*
X160837857Y2046428D01*
X160695000Y2117857D01*
X160623571Y2260714D01*
X160623571Y2832142D01*
X160695000Y2975000D01*
X160837857Y3046428D01*
X161123571Y3046428D01*
X161266428Y2975000D01*
X161337857Y2832142D01*
X161337857Y2689285D01*
X160623571Y2546428D01*
X138052142Y496428D02*
X138052142Y-1003571D01*
X138052142Y425000D02*
X138195000Y496428D01*
X138480714Y496428D01*
X138623571Y425000D01*
X138695000Y353571D01*
X138766428Y210714D01*
X138766428Y-217857D01*
X138695000Y-360714D01*
X138623571Y-432142D01*
X138480714Y-503571D01*
X138195000Y-503571D01*
X138052142Y-432142D01*
X139409285Y-503571D02*
X139409285Y496428D01*
X139409285Y210714D02*
X139480714Y353571D01*
X139552142Y425000D01*
X139695000Y496428D01*
X139837857Y496428D01*
X140909285Y-432142D02*
X140766428Y-503571D01*
X140480714Y-503571D01*
X140337857Y-432142D01*
X140266428Y-289285D01*
X140266428Y282142D01*
X140337857Y425000D01*
X140480714Y496428D01*
X140766428Y496428D01*
X140909285Y425000D01*
X140980714Y282142D01*
X140980714Y139285D01*
X140266428Y-3571D01*
X142195000Y-432142D02*
X142052142Y-503571D01*
X141766428Y-503571D01*
X141623571Y-432142D01*
X141552142Y-289285D01*
X141552142Y282142D01*
X141623571Y425000D01*
X141766428Y496428D01*
X142052142Y496428D01*
X142195000Y425000D01*
X142266428Y282142D01*
X142266428Y139285D01*
X141552142Y-3571D01*
X142766428Y496428D02*
X143123571Y-503571D01*
X143480714Y496428D01*
X144623571Y-432142D02*
X144480714Y-503571D01*
X144195000Y-503571D01*
X144052142Y-432142D01*
X143980714Y-289285D01*
X143980714Y282142D01*
X144052142Y425000D01*
X144195000Y496428D01*
X144480714Y496428D01*
X144623571Y425000D01*
X144695000Y282142D01*
X144695000Y139285D01*
X143980714Y-3571D01*
X146266428Y210714D02*
X146195000Y282142D01*
X146052142Y353571D01*
X145909285Y353571D01*
X145766428Y282142D01*
X145695000Y210714D01*
X145623571Y67857D01*
X145623571Y-75000D01*
X145695000Y-217857D01*
X145766428Y-289285D01*
X145909285Y-360714D01*
X146052142Y-360714D01*
X146195000Y-289285D01*
X146266428Y-217857D01*
X146266428Y353571D02*
X146266428Y-217857D01*
X146337857Y-289285D01*
X146409285Y-289285D01*
X146552142Y-217857D01*
X146623571Y-75000D01*
X146623571Y282142D01*
X146480714Y496428D01*
X146266428Y639285D01*
X145980714Y710714D01*
X145695000Y639285D01*
X145480714Y496428D01*
X145337857Y282142D01*
X145266428Y-3571D01*
X145337857Y-289285D01*
X145480714Y-503571D01*
X145695000Y-646428D01*
X145980714Y-717857D01*
X146266428Y-646428D01*
X146480714Y-503571D01*
X147266428Y496428D02*
X147266428Y-1003571D01*
X147266428Y425000D02*
X147409285Y496428D01*
X147695000Y496428D01*
X147837857Y425000D01*
X147909285Y353571D01*
X147980714Y210714D01*
X147980714Y-217857D01*
X147909285Y-360714D01*
X147837857Y-432142D01*
X147695000Y-503571D01*
X147409285Y-503571D01*
X147266428Y-432142D01*
X149266428Y-503571D02*
X149266428Y996428D01*
X149266428Y-432142D02*
X149123571Y-503571D01*
X148837857Y-503571D01*
X148695000Y-432142D01*
X148623571Y-360714D01*
X148552142Y-217857D01*
X148552142Y210714D01*
X148623571Y353571D01*
X148695000Y425000D01*
X148837857Y496428D01*
X149123571Y496428D01*
X149266428Y425000D01*
X149980714Y496428D02*
X149980714Y-789285D01*
X149909285Y-932142D01*
X149766428Y-1003571D01*
X149695000Y-1003571D01*
X149980714Y996428D02*
X149909285Y925000D01*
X149980714Y853571D01*
X150052142Y925000D01*
X149980714Y996428D01*
X149980714Y853571D01*
X150695000Y-503571D02*
X150695000Y496428D01*
X150695000Y210714D02*
X150766428Y353571D01*
X150837857Y425000D01*
X150980714Y496428D01*
X151123571Y496428D01*
X151623571Y-360714D02*
X151695000Y-432142D01*
X151623571Y-503571D01*
X151552142Y-432142D01*
X151623571Y-360714D01*
X151623571Y-503571D01*
X152909285Y-432142D02*
X152766428Y-503571D01*
X152480714Y-503571D01*
X152337857Y-432142D01*
X152266428Y-289285D01*
X152266428Y282142D01*
X152337857Y425000D01*
X152480714Y496428D01*
X152766428Y496428D01*
X152909285Y425000D01*
X152980714Y282142D01*
X152980714Y139285D01*
X152266428Y-3571D01*
X154266428Y496428D02*
X154266428Y-503571D01*
X153623571Y496428D02*
X153623571Y-289285D01*
X153695000Y-432142D01*
X153837857Y-503571D01*
X154052142Y-503571D01*
X154195000Y-432142D01*
X154266428Y-360714D01*
D11*
X204381500Y38594500D02*
X203492500Y37896000D01*
X204381500Y38594500D02*
X203492500Y39356500D01*
X201905000Y38594500D02*
X204381500Y38594500D01*
X182728000Y38531000D02*
X183363000Y38531000D01*
X181267500Y37007000D02*
X182728000Y38531000D01*
X181267500Y37007000D02*
X182537500Y37007000D01*
X181267500Y38277000D02*
X181267500Y37007000D01*
X194904357Y-1479904D02*
X194904357Y-679904D01*
X195047214Y-679904D01*
X195132928Y-718000D01*
X195190071Y-794190D01*
X195218642Y-870380D01*
X195247214Y-1022761D01*
X195247214Y-1137047D01*
X195218642Y-1289428D01*
X195190071Y-1365619D01*
X195132928Y-1441809D01*
X195047214Y-1479904D01*
X194904357Y-1479904D01*
X195532928Y-1479904D02*
X195647214Y-1479904D01*
X195704357Y-1441809D01*
X195732928Y-1403714D01*
X195790071Y-1289428D01*
X195818642Y-1137047D01*
X195818642Y-832285D01*
X195790071Y-756095D01*
X195761500Y-718000D01*
X195704357Y-679904D01*
X195590071Y-679904D01*
X195532928Y-718000D01*
X195504357Y-756095D01*
X195475785Y-832285D01*
X195475785Y-1022761D01*
X195504357Y-1098952D01*
X195532928Y-1137047D01*
X195590071Y-1175142D01*
X195704357Y-1175142D01*
X195761500Y-1137047D01*
X195790071Y-1098952D01*
X195818642Y-1022761D01*
X196532928Y-1175142D02*
X196990071Y-1175142D01*
X197732928Y-1479904D02*
X197732928Y-679904D01*
X197875785Y-679904D01*
X197961500Y-718000D01*
X198018642Y-794190D01*
X198047214Y-870380D01*
X198075785Y-1022761D01*
X198075785Y-1137047D01*
X198047214Y-1289428D01*
X198018642Y-1365619D01*
X197961500Y-1441809D01*
X197875785Y-1479904D01*
X197732928Y-1479904D01*
X198618642Y-679904D02*
X198332928Y-679904D01*
X198304357Y-1060857D01*
X198332928Y-1022761D01*
X198390071Y-984666D01*
X198532928Y-984666D01*
X198590071Y-1022761D01*
X198618642Y-1060857D01*
X198647214Y-1137047D01*
X198647214Y-1327523D01*
X198618642Y-1403714D01*
X198590071Y-1441809D01*
X198532928Y-1479904D01*
X198390071Y-1479904D01*
X198332928Y-1441809D01*
X198304357Y-1403714D01*
X187728928Y-1479904D02*
X187728928Y-679904D01*
X187871785Y-679904D01*
X187957500Y-718000D01*
X188014642Y-794190D01*
X188043214Y-870380D01*
X188071785Y-1022761D01*
X188071785Y-1137047D01*
X188043214Y-1289428D01*
X188014642Y-1365619D01*
X187957500Y-1441809D01*
X187871785Y-1479904D01*
X187728928Y-1479904D01*
X188300357Y-756095D02*
X188328928Y-718000D01*
X188386071Y-679904D01*
X188528928Y-679904D01*
X188586071Y-718000D01*
X188614642Y-756095D01*
X188643214Y-832285D01*
X188643214Y-908476D01*
X188614642Y-1022761D01*
X188271785Y-1479904D01*
X188643214Y-1479904D01*
X188843214Y-679904D02*
X189214642Y-679904D01*
X189014642Y-984666D01*
X189100357Y-984666D01*
X189157500Y-1022761D01*
X189186071Y-1060857D01*
X189214642Y-1137047D01*
X189214642Y-1327523D01*
X189186071Y-1403714D01*
X189157500Y-1441809D01*
X189100357Y-1479904D01*
X188928928Y-1479904D01*
X188871785Y-1441809D01*
X188843214Y-1403714D01*
X189928928Y-1175142D02*
X190386071Y-1175142D01*
X191128928Y-1479904D02*
X191128928Y-679904D01*
X191271785Y-679904D01*
X191357500Y-718000D01*
X191414642Y-794190D01*
X191443214Y-870380D01*
X191471785Y-1022761D01*
X191471785Y-1137047D01*
X191443214Y-1289428D01*
X191414642Y-1365619D01*
X191357500Y-1441809D01*
X191271785Y-1479904D01*
X191128928Y-1479904D01*
X192043214Y-1479904D02*
X191700357Y-1479904D01*
X191871785Y-1479904D02*
X191871785Y-679904D01*
X191814642Y-794190D01*
X191757500Y-870380D01*
X191700357Y-908476D01*
X192557500Y-679904D02*
X192443214Y-679904D01*
X192386071Y-718000D01*
X192357500Y-756095D01*
X192300357Y-870380D01*
X192271785Y-1022761D01*
X192271785Y-1327523D01*
X192300357Y-1403714D01*
X192328928Y-1441809D01*
X192386071Y-1479904D01*
X192500357Y-1479904D01*
X192557500Y-1441809D01*
X192586071Y-1403714D01*
X192614642Y-1327523D01*
X192614642Y-1137047D01*
X192586071Y-1060857D01*
X192557500Y-1022761D01*
X192500357Y-984666D01*
X192386071Y-984666D01*
X192328928Y-1022761D01*
X192300357Y-1060857D01*
X192271785Y-1137047D01*
D12*
X135191976Y11410500D02*
X135115785Y11448595D01*
X135001500Y11448595D01*
X134887214Y11410500D01*
X134811023Y11334309D01*
X134772928Y11258119D01*
X134734833Y11105738D01*
X134734833Y10991452D01*
X134772928Y10839071D01*
X134811023Y10762880D01*
X134887214Y10686690D01*
X135001500Y10648595D01*
X135077690Y10648595D01*
X135191976Y10686690D01*
X135230071Y10724785D01*
X135230071Y10991452D01*
X135077690Y10991452D01*
X135572928Y10648595D02*
X135572928Y11448595D01*
X136030071Y10648595D01*
X136030071Y11448595D01*
X136411023Y10648595D02*
X136411023Y11448595D01*
X136601500Y11448595D01*
X136715785Y11410500D01*
X136791976Y11334309D01*
X136830071Y11258119D01*
X136868166Y11105738D01*
X136868166Y10991452D01*
X136830071Y10839071D01*
X136791976Y10762880D01*
X136715785Y10686690D01*
X136601500Y10648595D01*
X136411023Y10648595D01*
X141161023Y11448595D02*
X141656261Y11448595D01*
X141389595Y11143833D01*
X141503880Y11143833D01*
X141580071Y11105738D01*
X141618166Y11067642D01*
X141656261Y10991452D01*
X141656261Y10800976D01*
X141618166Y10724785D01*
X141580071Y10686690D01*
X141503880Y10648595D01*
X141275309Y10648595D01*
X141199119Y10686690D01*
X141161023Y10724785D01*
X141884833Y11448595D02*
X142151500Y10648595D01*
X142418166Y11448595D01*
X142608642Y11448595D02*
X143103880Y11448595D01*
X142837214Y11143833D01*
X142951500Y11143833D01*
X143027690Y11105738D01*
X143065785Y11067642D01*
X143103880Y10991452D01*
X143103880Y10800976D01*
X143065785Y10724785D01*
X143027690Y10686690D01*
X142951500Y10648595D01*
X142722928Y10648595D01*
X142646738Y10686690D01*
X142608642Y10724785D01*
X138443166Y11448595D02*
X138062214Y11448595D01*
X138024119Y11067642D01*
X138062214Y11105738D01*
X138138404Y11143833D01*
X138328880Y11143833D01*
X138405071Y11105738D01*
X138443166Y11067642D01*
X138481261Y10991452D01*
X138481261Y10800976D01*
X138443166Y10724785D01*
X138405071Y10686690D01*
X138328880Y10648595D01*
X138138404Y10648595D01*
X138062214Y10686690D01*
X138024119Y10724785D01*
X138709833Y11448595D02*
X138976500Y10648595D01*
X139243166Y11448595D01*
X139662214Y11448595D02*
X139738404Y11448595D01*
X139814595Y11410500D01*
X139852690Y11372404D01*
X139890785Y11296214D01*
X139928880Y11143833D01*
X139928880Y10953357D01*
X139890785Y10800976D01*
X139852690Y10724785D01*
X139814595Y10686690D01*
X139738404Y10648595D01*
X139662214Y10648595D01*
X139586023Y10686690D01*
X139547928Y10724785D01*
X139509833Y10800976D01*
X139471738Y10953357D01*
X139471738Y11143833D01*
X139509833Y11296214D01*
X139547928Y11372404D01*
X139586023Y11410500D01*
X139662214Y11448595D01*
D11*
X133864785Y21670619D02*
X133864785Y22670619D01*
X133864785Y22194428D02*
X134436214Y22194428D01*
X134436214Y21670619D02*
X134436214Y22670619D01*
D13*
X133202642Y16638238D02*
X133274071Y16590619D01*
X133393119Y16590619D01*
X133440738Y16638238D01*
X133464547Y16685857D01*
X133488357Y16781095D01*
X133488357Y16876333D01*
X133464547Y16971571D01*
X133440738Y17019190D01*
X133393119Y17066809D01*
X133297880Y17114428D01*
X133250261Y17162047D01*
X133226452Y17209666D01*
X133202642Y17304904D01*
X133202642Y17400142D01*
X133226452Y17495380D01*
X133250261Y17543000D01*
X133297880Y17590619D01*
X133416928Y17590619D01*
X133488357Y17543000D01*
X133988357Y16685857D02*
X133964547Y16638238D01*
X133893119Y16590619D01*
X133845500Y16590619D01*
X133774071Y16638238D01*
X133726452Y16733476D01*
X133702642Y16828714D01*
X133678833Y17019190D01*
X133678833Y17162047D01*
X133702642Y17352523D01*
X133726452Y17447761D01*
X133774071Y17543000D01*
X133845500Y17590619D01*
X133893119Y17590619D01*
X133964547Y17543000D01*
X133988357Y17495380D01*
X134488357Y16590619D02*
X134321690Y17066809D01*
X134202642Y16590619D02*
X134202642Y17590619D01*
X134393119Y17590619D01*
X134440738Y17543000D01*
X134464547Y17495380D01*
X134488357Y17400142D01*
X134488357Y17257285D01*
X134464547Y17162047D01*
X134440738Y17114428D01*
X134393119Y17066809D01*
X134202642Y17066809D01*
D11*
X134460023Y19130619D02*
X133983833Y19130619D01*
X133983833Y20130619D01*
X133864785Y26798238D02*
X134007642Y26750619D01*
X134245738Y26750619D01*
X134340976Y26798238D01*
X134388595Y26845857D01*
X134436214Y26941095D01*
X134436214Y27036333D01*
X134388595Y27131571D01*
X134340976Y27179190D01*
X134245738Y27226809D01*
X134055261Y27274428D01*
X133960023Y27322047D01*
X133912404Y27369666D01*
X133864785Y27464904D01*
X133864785Y27560142D01*
X133912404Y27655380D01*
X133960023Y27703000D01*
X134055261Y27750619D01*
X134293357Y27750619D01*
X134436214Y27703000D01*
X134460023Y24305857D02*
X134412404Y24258238D01*
X134269547Y24210619D01*
X134174309Y24210619D01*
X134031452Y24258238D01*
X133936214Y24353476D01*
X133888595Y24448714D01*
X133840976Y24639190D01*
X133840976Y24782047D01*
X133888595Y24972523D01*
X133936214Y25067761D01*
X134031452Y25163000D01*
X134174309Y25210619D01*
X134269547Y25210619D01*
X134412404Y25163000D01*
X134460023Y25115380D01*
D14*
X205111833Y28299619D02*
X204540404Y28299619D01*
X204826119Y28299619D02*
X204826119Y29299619D01*
X204730880Y29156761D01*
X204635642Y29061523D01*
X204540404Y29013904D01*
X205492785Y29204380D02*
X205540404Y29252000D01*
X205635642Y29299619D01*
X205873738Y29299619D01*
X205968976Y29252000D01*
X206016595Y29204380D01*
X206064214Y29109142D01*
X206064214Y29013904D01*
X206016595Y28871047D01*
X205445166Y28299619D01*
X206064214Y28299619D01*
X206635642Y28871047D02*
X206540404Y28918666D01*
X206492785Y28966285D01*
X206445166Y29061523D01*
X206445166Y29109142D01*
X206492785Y29204380D01*
X206540404Y29252000D01*
X206635642Y29299619D01*
X206826119Y29299619D01*
X206921357Y29252000D01*
X206968976Y29204380D01*
X207016595Y29109142D01*
X207016595Y29061523D01*
X206968976Y28966285D01*
X206921357Y28918666D01*
X206826119Y28871047D01*
X206635642Y28871047D01*
X206540404Y28823428D01*
X206492785Y28775809D01*
X206445166Y28680571D01*
X206445166Y28490095D01*
X206492785Y28394857D01*
X206540404Y28347238D01*
X206635642Y28299619D01*
X206826119Y28299619D01*
X206921357Y28347238D01*
X206968976Y28394857D01*
X207016595Y28490095D01*
X207016595Y28680571D01*
X206968976Y28775809D01*
X206921357Y28823428D01*
X206826119Y28871047D01*
X208413785Y29274619D02*
X208223309Y29274619D01*
X208128071Y29227000D01*
X208080452Y29179380D01*
X207985214Y29036523D01*
X207937595Y28846047D01*
X207937595Y28465095D01*
X207985214Y28369857D01*
X208032833Y28322238D01*
X208128071Y28274619D01*
X208318547Y28274619D01*
X208413785Y28322238D01*
X208461404Y28369857D01*
X208509023Y28465095D01*
X208509023Y28703190D01*
X208461404Y28798428D01*
X208413785Y28846047D01*
X208318547Y28893666D01*
X208128071Y28893666D01*
X208032833Y28846047D01*
X207985214Y28798428D01*
X207937595Y28703190D01*
X209366166Y28941285D02*
X209366166Y28274619D01*
X209128071Y29322238D02*
X208889976Y28607952D01*
X209509023Y28607952D01*
X210429976Y29274619D02*
X211049023Y29274619D01*
X210715690Y28893666D01*
X210858547Y28893666D01*
X210953785Y28846047D01*
X211001404Y28798428D01*
X211049023Y28703190D01*
X211049023Y28465095D01*
X211001404Y28369857D01*
X210953785Y28322238D01*
X210858547Y28274619D01*
X210572833Y28274619D01*
X210477595Y28322238D01*
X210429976Y28369857D01*
X211429976Y29179380D02*
X211477595Y29227000D01*
X211572833Y29274619D01*
X211810928Y29274619D01*
X211906166Y29227000D01*
X211953785Y29179380D01*
X212001404Y29084142D01*
X212001404Y28988904D01*
X211953785Y28846047D01*
X211382357Y28274619D01*
X212001404Y28274619D01*
X213589023Y28274619D02*
X213017595Y28274619D01*
X213303309Y28274619D02*
X213303309Y29274619D01*
X213208071Y29131761D01*
X213112833Y29036523D01*
X213017595Y28988904D01*
X214446166Y29274619D02*
X214255690Y29274619D01*
X214160452Y29227000D01*
X214112833Y29179380D01*
X214017595Y29036523D01*
X213969976Y28846047D01*
X213969976Y28465095D01*
X214017595Y28369857D01*
X214065214Y28322238D01*
X214160452Y28274619D01*
X214350928Y28274619D01*
X214446166Y28322238D01*
X214493785Y28369857D01*
X214541404Y28465095D01*
X214541404Y28703190D01*
X214493785Y28798428D01*
X214446166Y28846047D01*
X214350928Y28893666D01*
X214160452Y28893666D01*
X214065214Y28846047D01*
X214017595Y28798428D01*
X213969976Y28703190D01*
X216224261Y28846047D02*
X216129023Y28893666D01*
X216081404Y28941285D01*
X216033785Y29036523D01*
X216033785Y29084142D01*
X216081404Y29179380D01*
X216129023Y29227000D01*
X216224261Y29274619D01*
X216414738Y29274619D01*
X216509976Y29227000D01*
X216557595Y29179380D01*
X216605214Y29084142D01*
X216605214Y29036523D01*
X216557595Y28941285D01*
X216509976Y28893666D01*
X216414738Y28846047D01*
X216224261Y28846047D01*
X216129023Y28798428D01*
X216081404Y28750809D01*
X216033785Y28655571D01*
X216033785Y28465095D01*
X216081404Y28369857D01*
X216129023Y28322238D01*
X216224261Y28274619D01*
X216414738Y28274619D01*
X216509976Y28322238D01*
X216557595Y28369857D01*
X216605214Y28465095D01*
X216605214Y28655571D01*
X216557595Y28750809D01*
X216509976Y28798428D01*
X216414738Y28846047D01*
X219049976Y28814285D02*
X219049976Y28147619D01*
X218811880Y29195238D02*
X218573785Y28480952D01*
X219192833Y28480952D01*
X221113785Y29179380D02*
X221161404Y29227000D01*
X221256642Y29274619D01*
X221494738Y29274619D01*
X221589976Y29227000D01*
X221637595Y29179380D01*
X221685214Y29084142D01*
X221685214Y28988904D01*
X221637595Y28846047D01*
X221066166Y28274619D01*
X221685214Y28274619D01*
X224225214Y28274619D02*
X223653785Y28274619D01*
X223939500Y28274619D02*
X223939500Y29274619D01*
X223844261Y29131761D01*
X223749023Y29036523D01*
X223653785Y28988904D01*
D13*
X166918369Y25591619D02*
X167204083Y25591619D01*
X167061226Y24591619D02*
X167061226Y25591619D01*
X167370750Y25115428D02*
X167537416Y25115428D01*
X167608845Y24591619D02*
X167370750Y24591619D01*
X167370750Y25591619D01*
X167608845Y25591619D01*
X168108845Y24591619D02*
X167942178Y25067809D01*
X167823130Y24591619D02*
X167823130Y25591619D01*
X168013607Y25591619D01*
X168061226Y25544000D01*
X168085035Y25496380D01*
X168108845Y25401142D01*
X168108845Y25258285D01*
X168085035Y25163047D01*
X168061226Y25115428D01*
X168013607Y25067809D01*
X167823130Y25067809D01*
X168323130Y24591619D02*
X168323130Y25591619D01*
X168489797Y24877333D01*
X168656464Y25591619D01*
X168656464Y24591619D01*
X168894559Y24591619D02*
X168894559Y25591619D01*
X169132654Y24591619D02*
X169132654Y25591619D01*
X169418369Y24591619D01*
X169418369Y25591619D01*
X169632654Y24877333D02*
X169870750Y24877333D01*
X169585035Y24591619D02*
X169751702Y25591619D01*
X169918369Y24591619D01*
X170013607Y25591619D02*
X170299321Y25591619D01*
X170156464Y24591619D02*
X170156464Y25591619D01*
X170465988Y25115428D02*
X170632654Y25115428D01*
X170704083Y24591619D02*
X170465988Y24591619D01*
X170465988Y25591619D01*
X170704083Y25591619D01*
X171465988Y25115428D02*
X171537416Y25067809D01*
X171561226Y25020190D01*
X171585035Y24924952D01*
X171585035Y24782095D01*
X171561226Y24686857D01*
X171537416Y24639238D01*
X171489797Y24591619D01*
X171299321Y24591619D01*
X171299321Y25591619D01*
X171465988Y25591619D01*
X171513607Y25544000D01*
X171537416Y25496380D01*
X171561226Y25401142D01*
X171561226Y25305904D01*
X171537416Y25210666D01*
X171513607Y25163047D01*
X171465988Y25115428D01*
X171299321Y25115428D01*
X171799321Y25591619D02*
X171799321Y24782095D01*
X171823130Y24686857D01*
X171846940Y24639238D01*
X171894559Y24591619D01*
X171989797Y24591619D01*
X172037416Y24639238D01*
X172061226Y24686857D01*
X172085035Y24782095D01*
X172085035Y25591619D01*
X172299321Y24639238D02*
X172370750Y24591619D01*
X172489797Y24591619D01*
X172537416Y24639238D01*
X172561226Y24686857D01*
X172585035Y24782095D01*
X172585035Y24877333D01*
X172561226Y24972571D01*
X172537416Y25020190D01*
X172489797Y25067809D01*
X172394559Y25115428D01*
X172346940Y25163047D01*
X172323130Y25210666D01*
X172299321Y25305904D01*
X172299321Y25401142D01*
X172323130Y25496380D01*
X172346940Y25544000D01*
X172394559Y25591619D01*
X172513607Y25591619D01*
X172585035Y25544000D01*
X167212011Y27226857D02*
X167188202Y27179238D01*
X167116773Y27131619D01*
X167069154Y27131619D01*
X166997726Y27179238D01*
X166950107Y27274476D01*
X166926297Y27369714D01*
X166902488Y27560190D01*
X166902488Y27703047D01*
X166926297Y27893523D01*
X166950107Y27988761D01*
X166997726Y28084000D01*
X167069154Y28131619D01*
X167116773Y28131619D01*
X167188202Y28084000D01*
X167212011Y28036380D01*
X167521535Y28131619D02*
X167616773Y28131619D01*
X167664392Y28084000D01*
X167712011Y27988761D01*
X167735821Y27798285D01*
X167735821Y27464952D01*
X167712011Y27274476D01*
X167664392Y27179238D01*
X167616773Y27131619D01*
X167521535Y27131619D01*
X167473916Y27179238D01*
X167426297Y27274476D01*
X167402488Y27464952D01*
X167402488Y27798285D01*
X167426297Y27988761D01*
X167473916Y28084000D01*
X167521535Y28131619D01*
X167950107Y27131619D02*
X167950107Y28131619D01*
X168235821Y27131619D01*
X168235821Y28131619D01*
X168473916Y27131619D02*
X168473916Y28131619D01*
X168759630Y27131619D01*
X168759630Y28131619D01*
X168997726Y27655428D02*
X169164392Y27655428D01*
X169235821Y27131619D02*
X168997726Y27131619D01*
X168997726Y28131619D01*
X169235821Y28131619D01*
X169735821Y27226857D02*
X169712011Y27179238D01*
X169640583Y27131619D01*
X169592964Y27131619D01*
X169521535Y27179238D01*
X169473916Y27274476D01*
X169450107Y27369714D01*
X169426297Y27560190D01*
X169426297Y27703047D01*
X169450107Y27893523D01*
X169473916Y27988761D01*
X169521535Y28084000D01*
X169592964Y28131619D01*
X169640583Y28131619D01*
X169712011Y28084000D01*
X169735821Y28036380D01*
X169878678Y28131619D02*
X170164392Y28131619D01*
X170021535Y27131619D02*
X170021535Y28131619D01*
X170878678Y27655428D02*
X170950107Y27607809D01*
X170973916Y27560190D01*
X170997726Y27464952D01*
X170997726Y27322095D01*
X170973916Y27226857D01*
X170950107Y27179238D01*
X170902488Y27131619D01*
X170712011Y27131619D01*
X170712011Y28131619D01*
X170878678Y28131619D01*
X170926297Y28084000D01*
X170950107Y28036380D01*
X170973916Y27941142D01*
X170973916Y27845904D01*
X170950107Y27750666D01*
X170926297Y27703047D01*
X170878678Y27655428D01*
X170712011Y27655428D01*
X171212011Y28131619D02*
X171212011Y27322095D01*
X171235821Y27226857D01*
X171259630Y27179238D01*
X171307250Y27131619D01*
X171402488Y27131619D01*
X171450107Y27179238D01*
X171473916Y27226857D01*
X171497726Y27322095D01*
X171497726Y28131619D01*
X171712011Y27179238D02*
X171783440Y27131619D01*
X171902488Y27131619D01*
X171950107Y27179238D01*
X171973916Y27226857D01*
X171997726Y27322095D01*
X171997726Y27417333D01*
X171973916Y27512571D01*
X171950107Y27560190D01*
X171902488Y27607809D01*
X171807250Y27655428D01*
X171759630Y27703047D01*
X171735821Y27750666D01*
X171712011Y27845904D01*
X171712011Y27941142D01*
X171735821Y28036380D01*
X171759630Y28084000D01*
X171807250Y28131619D01*
X171926297Y28131619D01*
X171997726Y28084000D01*
X172569154Y27179238D02*
X172640583Y27131619D01*
X172759630Y27131619D01*
X172807250Y27179238D01*
X172831059Y27226857D01*
X172854869Y27322095D01*
X172854869Y27417333D01*
X172831059Y27512571D01*
X172807250Y27560190D01*
X172759630Y27607809D01*
X172664392Y27655428D01*
X172616773Y27703047D01*
X172592964Y27750666D01*
X172569154Y27845904D01*
X172569154Y27941142D01*
X172592964Y28036380D01*
X172616773Y28084000D01*
X172664392Y28131619D01*
X172783440Y28131619D01*
X172854869Y28084000D01*
X173069154Y27131619D02*
X173069154Y28131619D01*
X173069154Y27655428D02*
X173354869Y27655428D01*
X173354869Y27131619D02*
X173354869Y28131619D01*
X173592964Y27131619D02*
X173592964Y28131619D01*
X173831059Y27655428D02*
X173997726Y27655428D01*
X174069154Y27131619D02*
X173831059Y27131619D01*
X173831059Y28131619D01*
X174069154Y28131619D01*
X174521535Y27131619D02*
X174283440Y27131619D01*
X174283440Y28131619D01*
X174688202Y27131619D02*
X174688202Y28131619D01*
X174807250Y28131619D01*
X174878678Y28084000D01*
X174926297Y27988761D01*
X174950107Y27893523D01*
X174973916Y27703047D01*
X174973916Y27560190D01*
X174950107Y27369714D01*
X174926297Y27274476D01*
X174878678Y27179238D01*
X174807250Y27131619D01*
X174688202Y27131619D01*
X175497726Y28131619D02*
X175783440Y28131619D01*
X175640583Y27131619D02*
X175640583Y28131619D01*
X176045345Y28131619D02*
X176140583Y28131619D01*
X176188202Y28084000D01*
X176235821Y27988761D01*
X176259630Y27798285D01*
X176259630Y27464952D01*
X176235821Y27274476D01*
X176188202Y27179238D01*
X176140583Y27131619D01*
X176045345Y27131619D01*
X175997726Y27179238D01*
X175950107Y27274476D01*
X175926297Y27464952D01*
X175926297Y27798285D01*
X175950107Y27988761D01*
X175997726Y28084000D01*
X176045345Y28131619D01*
X177116773Y28084000D02*
X177069154Y28131619D01*
X176997726Y28131619D01*
X176926297Y28084000D01*
X176878678Y27988761D01*
X176854869Y27893523D01*
X176831059Y27703047D01*
X176831059Y27560190D01*
X176854869Y27369714D01*
X176878678Y27274476D01*
X176926297Y27179238D01*
X176997726Y27131619D01*
X177045345Y27131619D01*
X177116773Y27179238D01*
X177140583Y27226857D01*
X177140583Y27560190D01*
X177045345Y27560190D01*
X177640583Y27131619D02*
X177473916Y27607809D01*
X177354869Y27131619D02*
X177354869Y28131619D01*
X177545345Y28131619D01*
X177592964Y28084000D01*
X177616773Y28036380D01*
X177640583Y27941142D01*
X177640583Y27798285D01*
X177616773Y27703047D01*
X177592964Y27655428D01*
X177545345Y27607809D01*
X177354869Y27607809D01*
X177950107Y28131619D02*
X178045345Y28131619D01*
X178092964Y28084000D01*
X178140583Y27988761D01*
X178164392Y27798285D01*
X178164392Y27464952D01*
X178140583Y27274476D01*
X178092964Y27179238D01*
X178045345Y27131619D01*
X177950107Y27131619D01*
X177902488Y27179238D01*
X177854869Y27274476D01*
X177831059Y27464952D01*
X177831059Y27798285D01*
X177854869Y27988761D01*
X177902488Y28084000D01*
X177950107Y28131619D01*
X178378678Y28131619D02*
X178378678Y27322095D01*
X178402488Y27226857D01*
X178426297Y27179238D01*
X178473916Y27131619D01*
X178569154Y27131619D01*
X178616773Y27179238D01*
X178640583Y27226857D01*
X178664392Y27322095D01*
X178664392Y28131619D01*
X178902488Y27131619D02*
X178902488Y28131619D01*
X179188202Y27131619D01*
X179188202Y28131619D01*
X179426297Y27131619D02*
X179426297Y28131619D01*
X179545345Y28131619D01*
X179616773Y28084000D01*
X179664392Y27988761D01*
X179688202Y27893523D01*
X179712011Y27703047D01*
X179712011Y27560190D01*
X179688202Y27369714D01*
X179664392Y27274476D01*
X179616773Y27179238D01*
X179545345Y27131619D01*
X179426297Y27131619D01*
D11*
X199982714Y-1504904D02*
X199697000Y-1504904D01*
X199697000Y-704904D01*
X194891857Y-1504904D02*
X194891857Y-704904D01*
X195034714Y-704904D01*
X195120428Y-743000D01*
X195177571Y-819190D01*
X195206142Y-895380D01*
X195234714Y-1047761D01*
X195234714Y-1162047D01*
X195206142Y-1314428D01*
X195177571Y-1390619D01*
X195120428Y-1466809D01*
X195034714Y-1504904D01*
X194891857Y-1504904D01*
X195520428Y-1504904D02*
X195634714Y-1504904D01*
X195691857Y-1466809D01*
X195720428Y-1428714D01*
X195777571Y-1314428D01*
X195806142Y-1162047D01*
X195806142Y-857285D01*
X195777571Y-781095D01*
X195749000Y-743000D01*
X195691857Y-704904D01*
X195577571Y-704904D01*
X195520428Y-743000D01*
X195491857Y-781095D01*
X195463285Y-857285D01*
X195463285Y-1047761D01*
X195491857Y-1123952D01*
X195520428Y-1162047D01*
X195577571Y-1200142D01*
X195691857Y-1200142D01*
X195749000Y-1162047D01*
X195777571Y-1123952D01*
X195806142Y-1047761D01*
X196520428Y-1200142D02*
X196977571Y-1200142D01*
X197720428Y-1504904D02*
X197720428Y-704904D01*
X197863285Y-704904D01*
X197949000Y-743000D01*
X198006142Y-819190D01*
X198034714Y-895380D01*
X198063285Y-1047761D01*
X198063285Y-1162047D01*
X198034714Y-1314428D01*
X198006142Y-1390619D01*
X197949000Y-1466809D01*
X197863285Y-1504904D01*
X197720428Y-1504904D01*
X198606142Y-704904D02*
X198320428Y-704904D01*
X198291857Y-1085857D01*
X198320428Y-1047761D01*
X198377571Y-1009666D01*
X198520428Y-1009666D01*
X198577571Y-1047761D01*
X198606142Y-1085857D01*
X198634714Y-1162047D01*
X198634714Y-1352523D01*
X198606142Y-1428714D01*
X198577571Y-1466809D01*
X198520428Y-1504904D01*
X198377571Y-1504904D01*
X198320428Y-1466809D01*
X198291857Y-1428714D01*
X187716428Y-1504904D02*
X187716428Y-704904D01*
X187859285Y-704904D01*
X187945000Y-743000D01*
X188002142Y-819190D01*
X188030714Y-895380D01*
X188059285Y-1047761D01*
X188059285Y-1162047D01*
X188030714Y-1314428D01*
X188002142Y-1390619D01*
X187945000Y-1466809D01*
X187859285Y-1504904D01*
X187716428Y-1504904D01*
X188287857Y-781095D02*
X188316428Y-743000D01*
X188373571Y-704904D01*
X188516428Y-704904D01*
X188573571Y-743000D01*
X188602142Y-781095D01*
X188630714Y-857285D01*
X188630714Y-933476D01*
X188602142Y-1047761D01*
X188259285Y-1504904D01*
X188630714Y-1504904D01*
X188830714Y-704904D02*
X189202142Y-704904D01*
X189002142Y-1009666D01*
X189087857Y-1009666D01*
X189145000Y-1047761D01*
X189173571Y-1085857D01*
X189202142Y-1162047D01*
X189202142Y-1352523D01*
X189173571Y-1428714D01*
X189145000Y-1466809D01*
X189087857Y-1504904D01*
X188916428Y-1504904D01*
X188859285Y-1466809D01*
X188830714Y-1428714D01*
X189916428Y-1200142D02*
X190373571Y-1200142D01*
X191116428Y-1504904D02*
X191116428Y-704904D01*
X191259285Y-704904D01*
X191345000Y-743000D01*
X191402142Y-819190D01*
X191430714Y-895380D01*
X191459285Y-1047761D01*
X191459285Y-1162047D01*
X191430714Y-1314428D01*
X191402142Y-1390619D01*
X191345000Y-1466809D01*
X191259285Y-1504904D01*
X191116428Y-1504904D01*
X192030714Y-1504904D02*
X191687857Y-1504904D01*
X191859285Y-1504904D02*
X191859285Y-704904D01*
X191802142Y-819190D01*
X191745000Y-895380D01*
X191687857Y-933476D01*
X192545000Y-704904D02*
X192430714Y-704904D01*
X192373571Y-743000D01*
X192345000Y-781095D01*
X192287857Y-895380D01*
X192259285Y-1047761D01*
X192259285Y-1352523D01*
X192287857Y-1428714D01*
X192316428Y-1466809D01*
X192373571Y-1504904D01*
X192487857Y-1504904D01*
X192545000Y-1466809D01*
X192573571Y-1428714D01*
X192602142Y-1352523D01*
X192602142Y-1162047D01*
X192573571Y-1085857D01*
X192545000Y-1047761D01*
X192487857Y-1009666D01*
X192373571Y-1009666D01*
X192316428Y-1047761D01*
X192287857Y-1085857D01*
X192259285Y-1162047D01*
D15*
X184237100Y-40589200D02*
X184237100Y-40339200D01*
X184237100Y-37089200D02*
X184237100Y-40589200D01*
X215737100Y-37089200D02*
X184237100Y-37089200D01*
X215737100Y-40589200D02*
X215737100Y-37089200D01*
X215737100Y-44089200D02*
X215737100Y-40589200D01*
X215237100Y-44089200D02*
X215737100Y-44089200D01*
X184237100Y-44089200D02*
X215237100Y-44089200D01*
X184237100Y-40589200D02*
X184237100Y-44089200D01*
X187737100Y-38589200D02*
X187737100Y-42589200D01*
X184737100Y-42589200D02*
X184737100Y-38589200D01*
X215237100Y-42589200D02*
X184737100Y-42589200D01*
X215237100Y-38589200D02*
X215237100Y-42589200D01*
X184737100Y-38589200D02*
X215237100Y-38589200D01*
X211530400Y-34346000D02*
X208845400Y-34346000D01*
X208845400Y-34346000D02*
X208845400Y-36266000D01*
X208845400Y-36266000D02*
X211530400Y-36266000D01*
X208048300Y-34346000D02*
X205363300Y-34346000D01*
X205363300Y-34346000D02*
X205363300Y-36266000D01*
X205363300Y-36266000D02*
X208048300Y-36266000D01*
X204543100Y-34346000D02*
X201858100Y-34346000D01*
X201858100Y-34346000D02*
X201858100Y-36266000D01*
X201858100Y-36266000D02*
X204543100Y-36266000D01*
X201037900Y-34346000D02*
X198352900Y-34346000D01*
X198352900Y-34346000D02*
X198352900Y-36266000D01*
X198352900Y-36266000D02*
X201037900Y-36266000D01*
X197532700Y-34346000D02*
X194847700Y-34346000D01*
X194847700Y-34346000D02*
X194847700Y-36266000D01*
X194847700Y-36266000D02*
X197532700Y-36266000D01*
X194027500Y-34346000D02*
X191342500Y-34346000D01*
X191342500Y-34346000D02*
X191342500Y-36266000D01*
X191342500Y-36266000D02*
X194027500Y-36266000D01*
X190522300Y-34346000D02*
X187837300Y-34346000D01*
X187837300Y-34346000D02*
X187837300Y-36266000D01*
X187837300Y-36266000D02*
X190522300Y-36266000D01*
X187017100Y-34346000D02*
X184332100Y-34346000D01*
X184332100Y-34346000D02*
X184332100Y-36266000D01*
X184332100Y-36266000D02*
X187017100Y-36266000D01*
X183511900Y-34346000D02*
X180826900Y-34346000D01*
X180826900Y-34346000D02*
X180826900Y-36266000D01*
X180826900Y-36266000D02*
X183511900Y-36266000D01*
X180006700Y-34346000D02*
X177321700Y-34346000D01*
X177321700Y-34346000D02*
X177321700Y-36266000D01*
X177321700Y-36266000D02*
X180006700Y-36266000D01*
X176501500Y-34346000D02*
X173816500Y-34346000D01*
X173816500Y-34346000D02*
X173816500Y-36266000D01*
X173816500Y-36266000D02*
X176501500Y-36266000D01*
X172996300Y-34346000D02*
X170311300Y-34346000D01*
X170311300Y-34346000D02*
X170311300Y-36266000D01*
X170311300Y-36266000D02*
X172996300Y-36266000D01*
X169491100Y-34346000D02*
X166806100Y-34346000D01*
X166806100Y-34346000D02*
X166806100Y-36266000D01*
X166806100Y-36266000D02*
X169491100Y-36266000D01*
X165985900Y-34346000D02*
X163300900Y-34346000D01*
X163300900Y-34346000D02*
X163300900Y-36266000D01*
X163300900Y-36266000D02*
X165985900Y-36266000D01*
X162480700Y-34346000D02*
X159795700Y-34346000D01*
X159795700Y-34346000D02*
X159795700Y-36266000D01*
X159795700Y-36266000D02*
X162480700Y-36266000D01*
X158975500Y-34346000D02*
X156290500Y-34346000D01*
X156290500Y-34346000D02*
X156290500Y-36266000D01*
X156290500Y-36266000D02*
X158975500Y-36266000D01*
X200710700Y-12207200D02*
X200710700Y-11807200D01*
X200710700Y-11807200D02*
X202110700Y-11807200D01*
X200710700Y-12207200D02*
X195910700Y-12207200D01*
X200710700Y-1407200D02*
X195910700Y-1407200D01*
X211387100Y-29809200D02*
X212187100Y-30609200D01*
X212187100Y-30609200D02*
X212187100Y-34009200D01*
X212187100Y-34009200D02*
X208787100Y-34009200D01*
X208787100Y-34009200D02*
X208787100Y-29809200D01*
X208787100Y-29809200D02*
X211387100Y-29809200D01*
X207887100Y-29809200D02*
X208687100Y-30609200D01*
X208687100Y-30609200D02*
X208687100Y-34009200D01*
X208687100Y-34009200D02*
X205287100Y-34009200D01*
X205287100Y-34009200D02*
X205287100Y-29809200D01*
X205287100Y-29809200D02*
X207887100Y-29809200D01*
X204387100Y-29809200D02*
X205187100Y-30609200D01*
X205187100Y-30609200D02*
X205187100Y-34009200D01*
X205187100Y-34009200D02*
X201787100Y-34009200D01*
X201787100Y-34009200D02*
X201787100Y-29809200D01*
X201787100Y-29809200D02*
X204387100Y-29809200D01*
X200887100Y-29809200D02*
X201687100Y-30609200D01*
X201687100Y-30609200D02*
X201687100Y-34009200D01*
X201687100Y-34009200D02*
X198287100Y-34009200D01*
X198287100Y-34009200D02*
X198287100Y-29809200D01*
X198287100Y-29809200D02*
X200887100Y-29809200D01*
X197387100Y-29809200D02*
X198187100Y-30609200D01*
X198187100Y-30609200D02*
X198187100Y-34009200D01*
X198187100Y-34009200D02*
X194787100Y-34009200D01*
X194787100Y-34009200D02*
X194787100Y-29809200D01*
X194787100Y-29809200D02*
X197387100Y-29809200D01*
X193887100Y-29809200D02*
X194687100Y-30609200D01*
X194687100Y-30609200D02*
X194687100Y-34009200D01*
X194687100Y-34009200D02*
X191287100Y-34009200D01*
X191287100Y-34009200D02*
X191287100Y-29809200D01*
X191287100Y-29809200D02*
X193887100Y-29809200D01*
X190387100Y-29809200D02*
X191187100Y-30609200D01*
X191187100Y-30609200D02*
X191187100Y-34009200D01*
X191187100Y-34009200D02*
X187787100Y-34009200D01*
X187787100Y-34009200D02*
X187787100Y-29809200D01*
X187787100Y-29809200D02*
X190387100Y-29809200D01*
X186887100Y-29809200D02*
X187687100Y-30609200D01*
X187687100Y-30609200D02*
X187687100Y-34009200D01*
X187687100Y-34009200D02*
X184287100Y-34009200D01*
X184287100Y-34009200D02*
X184287100Y-29809200D01*
X184287100Y-29809200D02*
X186887100Y-29809200D01*
X183391100Y-29809200D02*
X184191100Y-30609200D01*
X184191100Y-30609200D02*
X184191100Y-34009200D01*
X184191100Y-34009200D02*
X180791100Y-34009200D01*
X180791100Y-34009200D02*
X180791100Y-29809200D01*
X180791100Y-29809200D02*
X183391100Y-29809200D01*
X179891100Y-29809200D02*
X180691100Y-30609200D01*
X180691100Y-30609200D02*
X180691100Y-34009200D01*
X180691100Y-34009200D02*
X177291100Y-34009200D01*
X177291100Y-34009200D02*
X177291100Y-29809200D01*
X177291100Y-29809200D02*
X179891100Y-29809200D01*
X176391100Y-29809200D02*
X177191100Y-30609200D01*
X177191100Y-30609200D02*
X177191100Y-34009200D01*
X177191100Y-34009200D02*
X173791100Y-34009200D01*
X173791100Y-34009200D02*
X173791100Y-29809200D01*
X173791100Y-29809200D02*
X176391100Y-29809200D01*
X172891100Y-29809200D02*
X173691100Y-30609200D01*
X173691100Y-30609200D02*
X173691100Y-34009200D01*
X173691100Y-34009200D02*
X170291100Y-34009200D01*
X170291100Y-34009200D02*
X170291100Y-29809200D01*
X170291100Y-29809200D02*
X172891100Y-29809200D01*
X169391100Y-29809200D02*
X170191100Y-30609200D01*
X170191100Y-30609200D02*
X170191100Y-34009200D01*
X170191100Y-34009200D02*
X166791100Y-34009200D01*
X166791100Y-34009200D02*
X166791100Y-29809200D01*
X166791100Y-29809200D02*
X169391100Y-29809200D01*
X165891100Y-29809200D02*
X166691100Y-30609200D01*
X166691100Y-30609200D02*
X166691100Y-34009200D01*
X166691100Y-34009200D02*
X163291100Y-34009200D01*
X163291100Y-34009200D02*
X163291100Y-29809200D01*
X163291100Y-29809200D02*
X165891100Y-29809200D01*
X162391100Y-29809200D02*
X163191100Y-30609200D01*
X163191100Y-30609200D02*
X163191100Y-34009200D01*
X163191100Y-34009200D02*
X159791100Y-34009200D01*
X159791100Y-34009200D02*
X159791100Y-29809200D01*
X159791100Y-29809200D02*
X162391100Y-29809200D01*
X158891100Y-29809200D02*
X159691100Y-30609200D01*
X159691100Y-30609200D02*
X159691100Y-34009200D01*
X159691100Y-34009200D02*
X156291100Y-34009200D01*
X156291100Y-34009200D02*
X156291100Y-29809200D01*
X156291100Y-29809200D02*
X158891100Y-29809200D01*
X152741100Y-40589200D02*
X152741100Y-40339200D01*
X152741100Y-37089200D02*
X152741100Y-40589200D01*
X184241100Y-37089200D02*
X152741100Y-37089200D01*
X184241100Y-40589200D02*
X184241100Y-37089200D01*
X184241100Y-44089200D02*
X184241100Y-40589200D01*
X183741100Y-44089200D02*
X184241100Y-44089200D01*
X152741100Y-44089200D02*
X183741100Y-44089200D01*
X152741100Y-40589200D02*
X152741100Y-44089200D01*
X156241100Y-38589200D02*
X156241100Y-42589200D01*
X153241100Y-42589200D02*
X153241100Y-38589200D01*
X183741100Y-42589200D02*
X153241100Y-42589200D01*
X183741100Y-38589200D02*
X183741100Y-42589200D01*
X153241100Y-38589200D02*
X183741100Y-38589200D01*
X210429500Y-23571200D02*
X210429500Y-20811200D01*
X210429500Y-20811200D02*
X210224500Y-20811200D01*
X210429500Y-23571200D02*
X210429500Y-26331200D01*
X210429500Y-26331200D02*
X210224500Y-26331200D01*
X200009500Y-23571200D02*
X200009500Y-20811200D01*
X200009500Y-20811200D02*
X200214500Y-20811200D01*
X200009500Y-23571200D02*
X200009500Y-26331200D01*
X200009500Y-26331200D02*
X200214500Y-26331200D01*
X200214500Y-26331200D02*
X200214500Y-28021200D01*
X196408700Y-23571200D02*
X196408700Y-20811200D01*
X196408700Y-20811200D02*
X196203700Y-20811200D01*
X196408700Y-23571200D02*
X196408700Y-26331200D01*
X196408700Y-26331200D02*
X196203700Y-26331200D01*
X185988700Y-23571200D02*
X185988700Y-20811200D01*
X185988700Y-20811200D02*
X186193700Y-20811200D01*
X185988700Y-23571200D02*
X185988700Y-26331200D01*
X185988700Y-26331200D02*
X186193700Y-26331200D01*
X186193700Y-26331200D02*
X186193700Y-28021200D01*
X211047400Y-7546800D02*
X208947400Y-7546800D01*
X211047400Y-2206800D02*
X208947400Y-2206800D01*
X185576700Y-2206800D02*
X187676700Y-2206800D01*
X185576700Y-7546800D02*
X187676700Y-7546800D01*
X182901500Y-7546800D02*
X180801500Y-7546800D01*
X182901500Y-2206800D02*
X180801500Y-2206800D01*
X157433500Y-2206800D02*
X159533500Y-2206800D01*
X157433500Y-7546800D02*
X159533500Y-7546800D01*
X168417900Y-23571200D02*
X168417900Y-20811200D01*
X168417900Y-20811200D02*
X168212900Y-20811200D01*
X168417900Y-23571200D02*
X168417900Y-26331200D01*
X168417900Y-26331200D02*
X168212900Y-26331200D01*
X157997900Y-23571200D02*
X157997900Y-20811200D01*
X157997900Y-20811200D02*
X158202900Y-20811200D01*
X157997900Y-23571200D02*
X157997900Y-26331200D01*
X157997900Y-26331200D02*
X158202900Y-26331200D01*
X158202900Y-26331200D02*
X158202900Y-28021200D01*
X182438700Y-23571200D02*
X182438700Y-20811200D01*
X182438700Y-20811200D02*
X182233700Y-20811200D01*
X182438700Y-23571200D02*
X182438700Y-26331200D01*
X182438700Y-26331200D02*
X182233700Y-26331200D01*
X172018700Y-23571200D02*
X172018700Y-20811200D01*
X172018700Y-20811200D02*
X172223700Y-20811200D01*
X172018700Y-23571200D02*
X172018700Y-26331200D01*
X172018700Y-26331200D02*
X172223700Y-26331200D01*
X172223700Y-26331200D02*
X172223700Y-28021200D01*
X172567500Y-12207200D02*
X172567500Y-11807200D01*
X172567500Y-11807200D02*
X173967500Y-11807200D01*
X172567500Y-12207200D02*
X167767500Y-12207200D01*
X172567500Y-1407200D02*
X167767500Y-1407200D01*
X157999564Y12815500D02*
X157545436Y12815500D01*
X157999564Y14285500D02*
X157545436Y14285500D01*
X157999564Y21578500D02*
X157545436Y21578500D01*
X157999564Y23048500D02*
X157545436Y23048500D01*
X163641500Y21324436D02*
X163641500Y21778564D01*
X165111500Y21324436D02*
X165111500Y21778564D01*
X165111500Y14539564D02*
X165111500Y14085436D01*
X163641500Y14539564D02*
X163641500Y14085436D01*
X159812000Y13552500D02*
X160742000Y13552500D01*
X162972000Y13552500D02*
X162042000Y13552500D01*
X162972000Y13552500D02*
X162972000Y15712500D01*
X159812000Y13552500D02*
X159812000Y15012500D01*
X162972000Y22311500D02*
X162042000Y22311500D01*
X159812000Y22311500D02*
X160742000Y22311500D01*
X159812000Y22311500D02*
X159812000Y20151500D01*
X162972000Y22311500D02*
X162972000Y20851500D01*
X204829500Y37092000D02*
X204829500Y35442000D01*
X225269500Y37092000D02*
X204829500Y37092000D01*
X225269500Y31792000D02*
X225269500Y37092000D01*
X204829500Y31792000D02*
X225269500Y31792000D01*
X204829500Y33442000D02*
X204829500Y31792000D01*
X204829500Y35442000D02*
G75*
G02*
X204829500Y33442000I0J-1000000D01*
G01*
X207075500Y5429752D02*
X207075500Y4907248D01*
X208545500Y5429752D02*
X208545500Y4907248D01*
X212763500Y5506000D02*
X216213500Y5506000D01*
X212763500Y5506000D02*
X210813500Y5506000D01*
X212763500Y15626000D02*
X214713500Y15626000D01*
X212763500Y15626000D02*
X210813500Y15626000D01*
X212763500Y27627500D02*
X210813500Y27627500D01*
X212763500Y27627500D02*
X214713500Y27627500D01*
X212763500Y17507500D02*
X210813500Y17507500D01*
X212763500Y17507500D02*
X216213500Y17507500D01*
X207075500Y17431252D02*
X207075500Y16908748D01*
X208545500Y17431252D02*
X208545500Y16908748D01*
X141201500Y13992500D02*
X143101500Y13992500D01*
X143101500Y13992500D02*
X143101500Y12092500D01*
X143101500Y12092500D02*
X141201500Y12092500D01*
X141201500Y12092500D02*
X141201500Y13992500D01*
X144832500Y39041000D02*
X155732500Y39041000D01*
X144832500Y39041000D02*
X144832500Y35716000D01*
X144832500Y39041000D02*
X144832500Y29841000D01*
X166632500Y39041000D02*
X144832500Y39041000D01*
X166632500Y29841000D02*
X166632500Y39041000D01*
X144832500Y29841000D02*
X166632500Y29841000D01*
X134851500Y13992500D02*
X136751500Y13992500D01*
X136751500Y13992500D02*
X136751500Y12092500D01*
X136751500Y12092500D02*
X134851500Y12092500D01*
X134851500Y12092500D02*
X134851500Y13992500D01*
X138026500Y13992500D02*
X139926500Y13992500D01*
X139926500Y13992500D02*
X139926500Y12092500D01*
X139926500Y12092500D02*
X138026500Y12092500D01*
X138026500Y12092500D02*
X138026500Y13992500D01*
X171435500Y39112275D02*
X170935500Y39112275D01*
X171185500Y39362275D02*
X171185500Y38862275D01*
X169994500Y33956500D02*
X169426500Y33956500D01*
X170228500Y33996500D02*
X169192500Y33996500D01*
X170387500Y34036500D02*
X169033500Y34036500D01*
X170515500Y34076500D02*
X168905500Y34076500D01*
X170625500Y34116500D02*
X168795500Y34116500D01*
X170721500Y34156500D02*
X168699500Y34156500D01*
X170808500Y34196500D02*
X168612500Y34196500D01*
X170888500Y34236500D02*
X168532500Y34236500D01*
X168670500Y34276500D02*
X168459500Y34276500D01*
X170961500Y34276500D02*
X170750500Y34276500D01*
X168670500Y34316500D02*
X168391500Y34316500D01*
X171029500Y34316500D02*
X170750500Y34316500D01*
X168670500Y34356500D02*
X168327500Y34356500D01*
X171093500Y34356500D02*
X170750500Y34356500D01*
X168670500Y34396500D02*
X168267500Y34396500D01*
X171153500Y34396500D02*
X170750500Y34396500D01*
X168670500Y34436500D02*
X168210500Y34436500D01*
X171210500Y34436500D02*
X170750500Y34436500D01*
X168670500Y34476500D02*
X168156500Y34476500D01*
X171264500Y34476500D02*
X170750500Y34476500D01*
X168670500Y34516500D02*
X168105500Y34516500D01*
X171315500Y34516500D02*
X170750500Y34516500D01*
X168670500Y34556500D02*
X168057500Y34556500D01*
X171363500Y34556500D02*
X170750500Y34556500D01*
X168670500Y34596500D02*
X168011500Y34596500D01*
X171409500Y34596500D02*
X170750500Y34596500D01*
X168670500Y34636500D02*
X167967500Y34636500D01*
X171453500Y34636500D02*
X170750500Y34636500D01*
X168670500Y34676500D02*
X167925500Y34676500D01*
X171495500Y34676500D02*
X170750500Y34676500D01*
X168670500Y34716500D02*
X167884500Y34716500D01*
X171536500Y34716500D02*
X170750500Y34716500D01*
X168670500Y34756500D02*
X167846500Y34756500D01*
X171574500Y34756500D02*
X170750500Y34756500D01*
X168670500Y34796500D02*
X167809500Y34796500D01*
X171611500Y34796500D02*
X170750500Y34796500D01*
X168670500Y34836500D02*
X167773500Y34836500D01*
X171647500Y34836500D02*
X170750500Y34836500D01*
X168670500Y34876500D02*
X167739500Y34876500D01*
X171681500Y34876500D02*
X170750500Y34876500D01*
X168670500Y34916500D02*
X167706500Y34916500D01*
X171714500Y34916500D02*
X170750500Y34916500D01*
X168670500Y34956500D02*
X167675500Y34956500D01*
X171745500Y34956500D02*
X170750500Y34956500D01*
X168670500Y34996500D02*
X167645500Y34996500D01*
X171775500Y34996500D02*
X170750500Y34996500D01*
X168670500Y35036500D02*
X167615500Y35036500D01*
X171805500Y35036500D02*
X170750500Y35036500D01*
X168670500Y35076500D02*
X167588500Y35076500D01*
X171832500Y35076500D02*
X170750500Y35076500D01*
X168670500Y35116500D02*
X167561500Y35116500D01*
X171859500Y35116500D02*
X170750500Y35116500D01*
X168670500Y35156500D02*
X167535500Y35156500D01*
X171885500Y35156500D02*
X170750500Y35156500D01*
X168670500Y35196500D02*
X167510500Y35196500D01*
X171910500Y35196500D02*
X170750500Y35196500D01*
X168670500Y35236500D02*
X167486500Y35236500D01*
X171934500Y35236500D02*
X170750500Y35236500D01*
X168670500Y35276500D02*
X167463500Y35276500D01*
X171957500Y35276500D02*
X170750500Y35276500D01*
X168670500Y35316500D02*
X167442500Y35316500D01*
X171978500Y35316500D02*
X170750500Y35316500D01*
X168670500Y35356500D02*
X167420500Y35356500D01*
X172000500Y35356500D02*
X170750500Y35356500D01*
X168670500Y35396500D02*
X167400500Y35396500D01*
X172020500Y35396500D02*
X170750500Y35396500D01*
X168670500Y35436500D02*
X167381500Y35436500D01*
X172039500Y35436500D02*
X170750500Y35436500D01*
X168670500Y35476500D02*
X167362500Y35476500D01*
X172058500Y35476500D02*
X170750500Y35476500D01*
X168670500Y35516500D02*
X167345500Y35516500D01*
X172075500Y35516500D02*
X170750500Y35516500D01*
X168670500Y35556500D02*
X167328500Y35556500D01*
X172092500Y35556500D02*
X170750500Y35556500D01*
X168670500Y35596500D02*
X167312500Y35596500D01*
X172108500Y35596500D02*
X170750500Y35596500D01*
X168670500Y35636500D02*
X167296500Y35636500D01*
X172124500Y35636500D02*
X170750500Y35636500D01*
X168670500Y35676500D02*
X167282500Y35676500D01*
X172138500Y35676500D02*
X170750500Y35676500D01*
X168670500Y35716500D02*
X167268500Y35716500D01*
X172152500Y35716500D02*
X170750500Y35716500D01*
X168670500Y35756500D02*
X167255500Y35756500D01*
X172165500Y35756500D02*
X170750500Y35756500D01*
X168670500Y35796500D02*
X167242500Y35796500D01*
X172178500Y35796500D02*
X170750500Y35796500D01*
X168670500Y35836500D02*
X167230500Y35836500D01*
X172190500Y35836500D02*
X170750500Y35836500D01*
X168670500Y35877500D02*
X167219500Y35877500D01*
X172201500Y35877500D02*
X170750500Y35877500D01*
X168670500Y35917500D02*
X167209500Y35917500D01*
X172211500Y35917500D02*
X170750500Y35917500D01*
X168670500Y35957500D02*
X167199500Y35957500D01*
X172221500Y35957500D02*
X170750500Y35957500D01*
X168670500Y35997500D02*
X167190500Y35997500D01*
X172230500Y35997500D02*
X170750500Y35997500D01*
X168670500Y36037500D02*
X167182500Y36037500D01*
X172238500Y36037500D02*
X170750500Y36037500D01*
X168670500Y36077500D02*
X167174500Y36077500D01*
X172246500Y36077500D02*
X170750500Y36077500D01*
X168670500Y36117500D02*
X167167500Y36117500D01*
X172253500Y36117500D02*
X170750500Y36117500D01*
X168670500Y36157500D02*
X167160500Y36157500D01*
X172260500Y36157500D02*
X170750500Y36157500D01*
X168670500Y36197500D02*
X167154500Y36197500D01*
X172266500Y36197500D02*
X170750500Y36197500D01*
X168670500Y36237500D02*
X167149500Y36237500D01*
X172271500Y36237500D02*
X170750500Y36237500D01*
X168670500Y36277500D02*
X167145500Y36277500D01*
X172275500Y36277500D02*
X170750500Y36277500D01*
X168670500Y36317500D02*
X167141500Y36317500D01*
X172279500Y36317500D02*
X170750500Y36317500D01*
X172283500Y36357500D02*
X167137500Y36357500D01*
X172286500Y36397500D02*
X167134500Y36397500D01*
X172288500Y36437500D02*
X167132500Y36437500D01*
X172289500Y36477500D02*
X167131500Y36477500D01*
X172290500Y36517500D02*
X167130500Y36517500D01*
X172290500Y36557500D02*
X167130500Y36557500D01*
X172330500Y36557500D02*
G75*
G03*
X172330500Y36557500I-2620000J0D01*
G01*
X183082000Y3510248D02*
X183082000Y4032752D01*
X181612000Y3510248D02*
X181612000Y4032752D01*
X154189500Y22447752D02*
X154189500Y21925248D01*
X152719500Y22447752D02*
X152719500Y21925248D01*
X144845436Y18794000D02*
X145299564Y18794000D01*
X144845436Y17324000D02*
X145299564Y17324000D01*
X148501500Y24746500D02*
X146551500Y24746500D01*
X148501500Y24746500D02*
X150451500Y24746500D01*
X148501500Y19626500D02*
X146551500Y19626500D01*
X148501500Y19626500D02*
X151951500Y19626500D01*
X229935436Y-710000D02*
X230389564Y-710000D01*
X229935436Y760000D02*
X230389564Y760000D01*
X229935436Y2592000D02*
X230389564Y2592000D01*
X229935436Y4062000D02*
X230389564Y4062000D01*
X229935436Y5957500D02*
X230389564Y5957500D01*
X229935436Y7427500D02*
X230389564Y7427500D01*
X229935436Y9196000D02*
X230389564Y9196000D01*
X229935436Y10666000D02*
X230389564Y10666000D01*
X229935436Y12498000D02*
X230389564Y12498000D01*
X229935436Y13968000D02*
X230389564Y13968000D01*
X229935436Y15800000D02*
X230389564Y15800000D01*
X229935436Y17270000D02*
X230389564Y17270000D01*
X229935436Y19102000D02*
X230389564Y19102000D01*
X229935436Y20572000D02*
X230389564Y20572000D01*
X229935436Y22404000D02*
X230389564Y22404000D01*
X229935436Y23874000D02*
X230389564Y23874000D01*
X229935436Y25706000D02*
X230389564Y25706000D01*
X229935436Y27176000D02*
X230389564Y27176000D01*
X178502214Y33462000D02*
G75*
G03*
X178502214Y33462000I-1414214J0D01*
G01*
X174118000Y30342000D02*
X180058000Y30342000D01*
X174118000Y36582000D02*
X180058000Y36582000D01*
X173968000Y32122000D02*
X173968000Y34802000D01*
X180208000Y34802000D02*
X180208000Y32122000D01*
X227681500Y25181000D02*
X224261500Y25181000D01*
X227681500Y27701000D02*
X224261500Y27701000D01*
X227681500Y25181000D02*
X227681500Y25361000D01*
X227681500Y27521000D02*
X227681500Y27701000D01*
X224261500Y25181000D02*
X224261500Y25346000D01*
X224261500Y27536000D02*
X224261500Y27701000D01*
X227561500Y25181000D02*
X227561500Y25361000D01*
X227561500Y27521000D02*
X227561500Y27701000D01*
X227441500Y25181000D02*
X227441500Y25361000D01*
X227441500Y27521000D02*
X227441500Y27701000D01*
X152914500Y25833000D02*
X152914500Y26163000D01*
X146374500Y25833000D02*
X152914500Y25833000D01*
X146374500Y26163000D02*
X146374500Y25833000D01*
X152914500Y28573000D02*
X152914500Y28243000D01*
X146374500Y28573000D02*
X152914500Y28573000D01*
X146374500Y28243000D02*
X146374500Y28573000D01*
X135360500Y28533000D02*
X136690500Y28533000D01*
X135360500Y27203000D02*
X135360500Y28533000D01*
X135360500Y25933000D02*
X138020500Y25933000D01*
X138020500Y25933000D02*
X138020500Y15713000D01*
X135360500Y25933000D02*
X135360500Y15713000D01*
X135360500Y15713000D02*
X138020500Y15713000D01*
X186637500Y1387000D02*
X191697500Y1387000D01*
X186637500Y37067000D02*
X186637500Y1387000D01*
X198757500Y37067000D02*
X186637500Y37067000D01*
X198757500Y1387000D02*
X198757500Y37067000D01*
X193697500Y1387000D02*
X198757500Y1387000D01*
X191697500Y1387000D02*
G75*
G02*
X193697500Y1387000I1000000J0D01*
G01*
X227681500Y-1235000D02*
X224261500Y-1235000D01*
X227681500Y1285000D02*
X224261500Y1285000D01*
X227681500Y-1235000D02*
X227681500Y-1055000D01*
X227681500Y1105000D02*
X227681500Y1285000D01*
X224261500Y-1235000D02*
X224261500Y-1070000D01*
X224261500Y1120000D02*
X224261500Y1285000D01*
X227561500Y-1235000D02*
X227561500Y-1055000D01*
X227561500Y1105000D02*
X227561500Y1285000D01*
X227441500Y-1235000D02*
X227441500Y-1055000D01*
X227441500Y1105000D02*
X227441500Y1285000D01*
X227681500Y2067000D02*
X224261500Y2067000D01*
X227681500Y4587000D02*
X224261500Y4587000D01*
X227681500Y2067000D02*
X227681500Y2247000D01*
X227681500Y4407000D02*
X227681500Y4587000D01*
X224261500Y2067000D02*
X224261500Y2232000D01*
X224261500Y4422000D02*
X224261500Y4587000D01*
X227561500Y2067000D02*
X227561500Y2247000D01*
X227561500Y4407000D02*
X227561500Y4587000D01*
X227441500Y2067000D02*
X227441500Y2247000D01*
X227441500Y4407000D02*
X227441500Y4587000D01*
X227441500Y7709000D02*
X227441500Y7889000D01*
X227441500Y5369000D02*
X227441500Y5549000D01*
X227561500Y7709000D02*
X227561500Y7889000D01*
X227561500Y5369000D02*
X227561500Y5549000D01*
X224261500Y7724000D02*
X224261500Y7889000D01*
X224261500Y5369000D02*
X224261500Y5534000D01*
X227681500Y7709000D02*
X227681500Y7889000D01*
X227681500Y5369000D02*
X227681500Y5549000D01*
X227681500Y7889000D02*
X224261500Y7889000D01*
X227681500Y5369000D02*
X224261500Y5369000D01*
X227441500Y11011000D02*
X227441500Y11191000D01*
X227441500Y8671000D02*
X227441500Y8851000D01*
X227561500Y11011000D02*
X227561500Y11191000D01*
X227561500Y8671000D02*
X227561500Y8851000D01*
X224261500Y11026000D02*
X224261500Y11191000D01*
X224261500Y8671000D02*
X224261500Y8836000D01*
X227681500Y11011000D02*
X227681500Y11191000D01*
X227681500Y8671000D02*
X227681500Y8851000D01*
X227681500Y11191000D02*
X224261500Y11191000D01*
X227681500Y8671000D02*
X224261500Y8671000D01*
X163578500Y28914000D02*
X162328500Y28914000D01*
X163578500Y23714000D02*
X163578500Y28914000D01*
X159078500Y23714000D02*
X163578500Y23714000D01*
X159078500Y28914000D02*
X159078500Y23714000D01*
X160328500Y28914000D02*
X159078500Y28914000D01*
X162328500Y28914000D02*
G75*
G02*
X160328500Y28914000I-1000000J0D01*
G01*
X227441500Y14313000D02*
X227441500Y14493000D01*
X227441500Y11973000D02*
X227441500Y12153000D01*
X227561500Y14313000D02*
X227561500Y14493000D01*
X227561500Y11973000D02*
X227561500Y12153000D01*
X224261500Y14328000D02*
X224261500Y14493000D01*
X224261500Y11973000D02*
X224261500Y12138000D01*
X227681500Y14313000D02*
X227681500Y14493000D01*
X227681500Y11973000D02*
X227681500Y12153000D01*
X227681500Y14493000D02*
X224261500Y14493000D01*
X227681500Y11973000D02*
X224261500Y11973000D01*
X227441500Y17615000D02*
X227441500Y17795000D01*
X227441500Y15275000D02*
X227441500Y15455000D01*
X227561500Y17615000D02*
X227561500Y17795000D01*
X227561500Y15275000D02*
X227561500Y15455000D01*
X224261500Y17630000D02*
X224261500Y17795000D01*
X224261500Y15275000D02*
X224261500Y15440000D01*
X227681500Y17615000D02*
X227681500Y17795000D01*
X227681500Y15275000D02*
X227681500Y15455000D01*
X227681500Y17795000D02*
X224261500Y17795000D01*
X227681500Y15275000D02*
X224261500Y15275000D01*
X227441500Y20917000D02*
X227441500Y21097000D01*
X227441500Y18577000D02*
X227441500Y18757000D01*
X227561500Y20917000D02*
X227561500Y21097000D01*
X227561500Y18577000D02*
X227561500Y18757000D01*
X224261500Y20932000D02*
X224261500Y21097000D01*
X224261500Y18577000D02*
X224261500Y18742000D01*
X227681500Y20917000D02*
X227681500Y21097000D01*
X227681500Y18577000D02*
X227681500Y18757000D01*
X227681500Y21097000D02*
X224261500Y21097000D01*
X227681500Y18577000D02*
X224261500Y18577000D01*
X227441500Y24219000D02*
X227441500Y24399000D01*
X227441500Y21879000D02*
X227441500Y22059000D01*
X227561500Y24219000D02*
X227561500Y24399000D01*
X227561500Y21879000D02*
X227561500Y22059000D01*
X224261500Y24234000D02*
X224261500Y24399000D01*
X224261500Y21879000D02*
X224261500Y22044000D01*
X227681500Y24219000D02*
X227681500Y24399000D01*
X227681500Y21879000D02*
X227681500Y22059000D01*
X227681500Y24399000D02*
X224261500Y24399000D01*
X227681500Y21879000D02*
X224261500Y21879000D01*
X144335000Y38812000D02*
X144335000Y30072000D01*
X144335000Y38812000D02*
X140095000Y38812000D01*
X140095000Y30072000D02*
X144335000Y30072000D01*
X140095000Y30072000D02*
X140095000Y38812000D01*
D11*
X216468566Y-40041580D02*
X216468566Y-40755866D01*
X216420947Y-40898723D01*
X216325709Y-40993961D01*
X216182852Y-41041580D01*
X216087614Y-41041580D01*
X216897138Y-40136819D02*
X216944757Y-40089200D01*
X217039995Y-40041580D01*
X217278090Y-40041580D01*
X217373328Y-40089200D01*
X217420947Y-40136819D01*
X217468566Y-40232057D01*
X217468566Y-40327295D01*
X217420947Y-40470152D01*
X216849519Y-41041580D01*
X217468566Y-41041580D01*
X212539614Y-35758380D02*
X212539614Y-34758380D01*
X212777709Y-34758380D01*
X212920566Y-34806000D01*
X213015804Y-34901238D01*
X213063423Y-34996476D01*
X213111042Y-35186952D01*
X213111042Y-35329809D01*
X213063423Y-35520285D01*
X213015804Y-35615523D01*
X212920566Y-35710761D01*
X212777709Y-35758380D01*
X212539614Y-35758380D01*
X214063423Y-35758380D02*
X213491995Y-35758380D01*
X213777709Y-35758380D02*
X213777709Y-34758380D01*
X213682471Y-34901238D01*
X213587233Y-34996476D01*
X213491995Y-35044095D01*
X214920566Y-34758380D02*
X214730090Y-34758380D01*
X214634852Y-34806000D01*
X214587233Y-34853619D01*
X214491995Y-34996476D01*
X214444376Y-35186952D01*
X214444376Y-35567904D01*
X214491995Y-35663142D01*
X214539614Y-35710761D01*
X214634852Y-35758380D01*
X214825328Y-35758380D01*
X214920566Y-35710761D01*
X214968185Y-35663142D01*
X215015804Y-35567904D01*
X215015804Y-35329809D01*
X214968185Y-35234571D01*
X214920566Y-35186952D01*
X214825328Y-35139333D01*
X214634852Y-35139333D01*
X214539614Y-35186952D01*
X214491995Y-35234571D01*
X214444376Y-35329809D01*
X154443404Y-35758380D02*
X154443404Y-34758380D01*
X154681500Y-34758380D01*
X154824357Y-34806000D01*
X154919595Y-34901238D01*
X154967214Y-34996476D01*
X155014833Y-35186952D01*
X155014833Y-35329809D01*
X154967214Y-35520285D01*
X154919595Y-35615523D01*
X154824357Y-35710761D01*
X154681500Y-35758380D01*
X154443404Y-35758380D01*
X155967214Y-35758380D02*
X155395785Y-35758380D01*
X155681500Y-35758380D02*
X155681500Y-34758380D01*
X155586261Y-34901238D01*
X155491023Y-34996476D01*
X155395785Y-35044095D01*
X193872204Y-12558780D02*
X193872204Y-13368304D01*
X193919823Y-13463542D01*
X193967442Y-13511161D01*
X194062680Y-13558780D01*
X194253157Y-13558780D01*
X194348395Y-13511161D01*
X194396014Y-13463542D01*
X194443633Y-13368304D01*
X194443633Y-12558780D01*
X195443633Y-13558780D02*
X194872204Y-13558780D01*
X195157919Y-13558780D02*
X195157919Y-12558780D01*
X195062680Y-12701638D01*
X194967442Y-12796876D01*
X194872204Y-12844495D01*
X195776966Y-12558780D02*
X196443633Y-12558780D01*
X196015061Y-13558780D01*
X209264604Y-28560780D02*
X209264604Y-29370304D01*
X209312223Y-29465542D01*
X209359842Y-29513161D01*
X209455080Y-29560780D01*
X209645557Y-29560780D01*
X209740795Y-29513161D01*
X209788414Y-29465542D01*
X209836033Y-29370304D01*
X209836033Y-28560780D01*
X210264604Y-28656019D02*
X210312223Y-28608400D01*
X210407461Y-28560780D01*
X210645557Y-28560780D01*
X210740795Y-28608400D01*
X210788414Y-28656019D01*
X210836033Y-28751257D01*
X210836033Y-28846495D01*
X210788414Y-28989352D01*
X210216985Y-29560780D01*
X210836033Y-29560780D01*
X211216985Y-28656019D02*
X211264604Y-28608400D01*
X211359842Y-28560780D01*
X211597938Y-28560780D01*
X211693176Y-28608400D01*
X211740795Y-28656019D01*
X211788414Y-28751257D01*
X211788414Y-28846495D01*
X211740795Y-28989352D01*
X211169366Y-29560780D01*
X211788414Y-29560780D01*
X205759404Y-28560780D02*
X205759404Y-29370304D01*
X205807023Y-29465542D01*
X205854642Y-29513161D01*
X205949880Y-29560780D01*
X206140357Y-29560780D01*
X206235595Y-29513161D01*
X206283214Y-29465542D01*
X206330833Y-29370304D01*
X206330833Y-28560780D01*
X206759404Y-28656019D02*
X206807023Y-28608400D01*
X206902261Y-28560780D01*
X207140357Y-28560780D01*
X207235595Y-28608400D01*
X207283214Y-28656019D01*
X207330833Y-28751257D01*
X207330833Y-28846495D01*
X207283214Y-28989352D01*
X206711785Y-29560780D01*
X207330833Y-29560780D01*
X208283214Y-29560780D02*
X207711785Y-29560780D01*
X207997500Y-29560780D02*
X207997500Y-28560780D01*
X207902261Y-28703638D01*
X207807023Y-28798876D01*
X207711785Y-28846495D01*
X202254204Y-28560780D02*
X202254204Y-29370304D01*
X202301823Y-29465542D01*
X202349442Y-29513161D01*
X202444680Y-29560780D01*
X202635157Y-29560780D01*
X202730395Y-29513161D01*
X202778014Y-29465542D01*
X202825633Y-29370304D01*
X202825633Y-28560780D01*
X203825633Y-29560780D02*
X203254204Y-29560780D01*
X203539919Y-29560780D02*
X203539919Y-28560780D01*
X203444680Y-28703638D01*
X203349442Y-28798876D01*
X203254204Y-28846495D01*
X204301823Y-29560780D02*
X204492300Y-29560780D01*
X204587538Y-29513161D01*
X204635157Y-29465542D01*
X204730395Y-29322685D01*
X204778014Y-29132209D01*
X204778014Y-28751257D01*
X204730395Y-28656019D01*
X204682776Y-28608400D01*
X204587538Y-28560780D01*
X204397061Y-28560780D01*
X204301823Y-28608400D01*
X204254204Y-28656019D01*
X204206585Y-28751257D01*
X204206585Y-28989352D01*
X204254204Y-29084590D01*
X204301823Y-29132209D01*
X204397061Y-29179828D01*
X204587538Y-29179828D01*
X204682776Y-29132209D01*
X204730395Y-29084590D01*
X204778014Y-28989352D01*
X198647404Y-28560780D02*
X198647404Y-29370304D01*
X198695023Y-29465542D01*
X198742642Y-29513161D01*
X198837880Y-29560780D01*
X199028357Y-29560780D01*
X199123595Y-29513161D01*
X199171214Y-29465542D01*
X199218833Y-29370304D01*
X199218833Y-28560780D01*
X200218833Y-29560780D02*
X199647404Y-29560780D01*
X199933119Y-29560780D02*
X199933119Y-28560780D01*
X199837880Y-28703638D01*
X199742642Y-28798876D01*
X199647404Y-28846495D01*
X200790261Y-28989352D02*
X200695023Y-28941733D01*
X200647404Y-28894114D01*
X200599785Y-28798876D01*
X200599785Y-28751257D01*
X200647404Y-28656019D01*
X200695023Y-28608400D01*
X200790261Y-28560780D01*
X200980738Y-28560780D01*
X201075976Y-28608400D01*
X201123595Y-28656019D01*
X201171214Y-28751257D01*
X201171214Y-28798876D01*
X201123595Y-28894114D01*
X201075976Y-28941733D01*
X200980738Y-28989352D01*
X200790261Y-28989352D01*
X200695023Y-29036971D01*
X200647404Y-29084590D01*
X200599785Y-29179828D01*
X200599785Y-29370304D01*
X200647404Y-29465542D01*
X200695023Y-29513161D01*
X200790261Y-29560780D01*
X200980738Y-29560780D01*
X201075976Y-29513161D01*
X201123595Y-29465542D01*
X201171214Y-29370304D01*
X201171214Y-29179828D01*
X201123595Y-29084590D01*
X201075976Y-29036971D01*
X200980738Y-28989352D01*
X195091404Y-28618380D02*
X195091404Y-29427904D01*
X195139023Y-29523142D01*
X195186642Y-29570761D01*
X195281880Y-29618380D01*
X195472357Y-29618380D01*
X195567595Y-29570761D01*
X195615214Y-29523142D01*
X195662833Y-29427904D01*
X195662833Y-28618380D01*
X196662833Y-29618380D02*
X196091404Y-29618380D01*
X196377119Y-29618380D02*
X196377119Y-28618380D01*
X196281880Y-28761238D01*
X196186642Y-28856476D01*
X196091404Y-28904095D01*
X197519976Y-28618380D02*
X197329500Y-28618380D01*
X197234261Y-28666000D01*
X197186642Y-28713619D01*
X197091404Y-28856476D01*
X197043785Y-29046952D01*
X197043785Y-29427904D01*
X197091404Y-29523142D01*
X197139023Y-29570761D01*
X197234261Y-29618380D01*
X197424738Y-29618380D01*
X197519976Y-29570761D01*
X197567595Y-29523142D01*
X197615214Y-29427904D01*
X197615214Y-29189809D01*
X197567595Y-29094571D01*
X197519976Y-29046952D01*
X197424738Y-28999333D01*
X197234261Y-28999333D01*
X197139023Y-29046952D01*
X197091404Y-29094571D01*
X197043785Y-29189809D01*
X191586204Y-28618380D02*
X191586204Y-29427904D01*
X191633823Y-29523142D01*
X191681442Y-29570761D01*
X191776680Y-29618380D01*
X191967157Y-29618380D01*
X192062395Y-29570761D01*
X192110014Y-29523142D01*
X192157633Y-29427904D01*
X192157633Y-28618380D01*
X193157633Y-29618380D02*
X192586204Y-29618380D01*
X192871919Y-29618380D02*
X192871919Y-28618380D01*
X192776680Y-28761238D01*
X192681442Y-28856476D01*
X192586204Y-28904095D01*
X194062395Y-28618380D02*
X193586204Y-28618380D01*
X193538585Y-29094571D01*
X193586204Y-29046952D01*
X193681442Y-28999333D01*
X193919538Y-28999333D01*
X194014776Y-29046952D01*
X194062395Y-29094571D01*
X194110014Y-29189809D01*
X194110014Y-29427904D01*
X194062395Y-29523142D01*
X194014776Y-29570761D01*
X193919538Y-29618380D01*
X193681442Y-29618380D01*
X193586204Y-29570761D01*
X193538585Y-29523142D01*
X188081004Y-28611580D02*
X188081004Y-29421104D01*
X188128623Y-29516342D01*
X188176242Y-29563961D01*
X188271480Y-29611580D01*
X188461957Y-29611580D01*
X188557195Y-29563961D01*
X188604814Y-29516342D01*
X188652433Y-29421104D01*
X188652433Y-28611580D01*
X189652433Y-29611580D02*
X189081004Y-29611580D01*
X189366719Y-29611580D02*
X189366719Y-28611580D01*
X189271480Y-28754438D01*
X189176242Y-28849676D01*
X189081004Y-28897295D01*
X189985766Y-28611580D02*
X190604814Y-28611580D01*
X190271480Y-28992533D01*
X190414338Y-28992533D01*
X190509576Y-29040152D01*
X190557195Y-29087771D01*
X190604814Y-29183009D01*
X190604814Y-29421104D01*
X190557195Y-29516342D01*
X190509576Y-29563961D01*
X190414338Y-29611580D01*
X190128623Y-29611580D01*
X190033385Y-29563961D01*
X189985766Y-29516342D01*
X184575804Y-28611580D02*
X184575804Y-29421104D01*
X184623423Y-29516342D01*
X184671042Y-29563961D01*
X184766280Y-29611580D01*
X184956757Y-29611580D01*
X185051995Y-29563961D01*
X185099614Y-29516342D01*
X185147233Y-29421104D01*
X185147233Y-28611580D01*
X186147233Y-29611580D02*
X185575804Y-29611580D01*
X185861519Y-29611580D02*
X185861519Y-28611580D01*
X185766280Y-28754438D01*
X185671042Y-28849676D01*
X185575804Y-28897295D01*
X186528185Y-28706819D02*
X186575804Y-28659200D01*
X186671042Y-28611580D01*
X186909138Y-28611580D01*
X187004376Y-28659200D01*
X187051995Y-28706819D01*
X187099614Y-28802057D01*
X187099614Y-28897295D01*
X187051995Y-29040152D01*
X186480566Y-29611580D01*
X187099614Y-29611580D01*
X181121404Y-28662380D02*
X181121404Y-29471904D01*
X181169023Y-29567142D01*
X181216642Y-29614761D01*
X181311880Y-29662380D01*
X181502357Y-29662380D01*
X181597595Y-29614761D01*
X181645214Y-29567142D01*
X181692833Y-29471904D01*
X181692833Y-28662380D01*
X182692833Y-29662380D02*
X182121404Y-29662380D01*
X182407119Y-29662380D02*
X182407119Y-28662380D01*
X182311880Y-28805238D01*
X182216642Y-28900476D01*
X182121404Y-28948095D01*
X183645214Y-29662380D02*
X183073785Y-29662380D01*
X183359500Y-29662380D02*
X183359500Y-28662380D01*
X183264261Y-28805238D01*
X183169023Y-28900476D01*
X183073785Y-28948095D01*
X177616204Y-28618380D02*
X177616204Y-29427904D01*
X177663823Y-29523142D01*
X177711442Y-29570761D01*
X177806680Y-29618380D01*
X177997157Y-29618380D01*
X178092395Y-29570761D01*
X178140014Y-29523142D01*
X178187633Y-29427904D01*
X178187633Y-28618380D01*
X179187633Y-29618380D02*
X178616204Y-29618380D01*
X178901919Y-29618380D02*
X178901919Y-28618380D01*
X178806680Y-28761238D01*
X178711442Y-28856476D01*
X178616204Y-28904095D01*
X179806680Y-28618380D02*
X179901919Y-28618380D01*
X179997157Y-28666000D01*
X180044776Y-28713619D01*
X180092395Y-28808857D01*
X180140014Y-28999333D01*
X180140014Y-29237428D01*
X180092395Y-29427904D01*
X180044776Y-29523142D01*
X179997157Y-29570761D01*
X179901919Y-29618380D01*
X179806680Y-29618380D01*
X179711442Y-29570761D01*
X179663823Y-29523142D01*
X179616204Y-29427904D01*
X179568585Y-29237428D01*
X179568585Y-28999333D01*
X179616204Y-28808857D01*
X179663823Y-28713619D01*
X179711442Y-28666000D01*
X179806680Y-28618380D01*
X174587195Y-28611580D02*
X174587195Y-29421104D01*
X174634814Y-29516342D01*
X174682433Y-29563961D01*
X174777671Y-29611580D01*
X174968147Y-29611580D01*
X175063385Y-29563961D01*
X175111004Y-29516342D01*
X175158623Y-29421104D01*
X175158623Y-28611580D01*
X175777671Y-29040152D02*
X175682433Y-28992533D01*
X175634814Y-28944914D01*
X175587195Y-28849676D01*
X175587195Y-28802057D01*
X175634814Y-28706819D01*
X175682433Y-28659200D01*
X175777671Y-28611580D01*
X175968147Y-28611580D01*
X176063385Y-28659200D01*
X176111004Y-28706819D01*
X176158623Y-28802057D01*
X176158623Y-28849676D01*
X176111004Y-28944914D01*
X176063385Y-28992533D01*
X175968147Y-29040152D01*
X175777671Y-29040152D01*
X175682433Y-29087771D01*
X175634814Y-29135390D01*
X175587195Y-29230628D01*
X175587195Y-29421104D01*
X175634814Y-29516342D01*
X175682433Y-29563961D01*
X175777671Y-29611580D01*
X175968147Y-29611580D01*
X176063385Y-29563961D01*
X176111004Y-29516342D01*
X176158623Y-29421104D01*
X176158623Y-29230628D01*
X176111004Y-29135390D01*
X176063385Y-29087771D01*
X175968147Y-29040152D01*
X171132795Y-28618380D02*
X171132795Y-29427904D01*
X171180414Y-29523142D01*
X171228033Y-29570761D01*
X171323271Y-29618380D01*
X171513747Y-29618380D01*
X171608985Y-29570761D01*
X171656604Y-29523142D01*
X171704223Y-29427904D01*
X171704223Y-28618380D01*
X172085176Y-28618380D02*
X172751842Y-28618380D01*
X172323271Y-29618380D01*
X167576795Y-28611580D02*
X167576795Y-29421104D01*
X167624414Y-29516342D01*
X167672033Y-29563961D01*
X167767271Y-29611580D01*
X167957747Y-29611580D01*
X168052985Y-29563961D01*
X168100604Y-29516342D01*
X168148223Y-29421104D01*
X168148223Y-28611580D01*
X169100604Y-28611580D02*
X168624414Y-28611580D01*
X168576795Y-29087771D01*
X168624414Y-29040152D01*
X168719652Y-28992533D01*
X168957747Y-28992533D01*
X169052985Y-29040152D01*
X169100604Y-29087771D01*
X169148223Y-29183009D01*
X169148223Y-29421104D01*
X169100604Y-29516342D01*
X169052985Y-29563961D01*
X168957747Y-29611580D01*
X168719652Y-29611580D01*
X168624414Y-29563961D01*
X168576795Y-29516342D01*
X164081995Y-28618380D02*
X164081995Y-29427904D01*
X164129614Y-29523142D01*
X164177233Y-29570761D01*
X164272471Y-29618380D01*
X164462947Y-29618380D01*
X164558185Y-29570761D01*
X164605804Y-29523142D01*
X164653423Y-29427904D01*
X164653423Y-28618380D01*
X165558185Y-28951714D02*
X165558185Y-29618380D01*
X165320090Y-28570761D02*
X165081995Y-29285047D01*
X165701042Y-29285047D01*
X160587195Y-28574380D02*
X160587195Y-29383904D01*
X160634814Y-29479142D01*
X160682433Y-29526761D01*
X160777671Y-29574380D01*
X160968147Y-29574380D01*
X161063385Y-29526761D01*
X161111004Y-29479142D01*
X161158623Y-29383904D01*
X161158623Y-28574380D01*
X161587195Y-28669619D02*
X161634814Y-28622000D01*
X161730052Y-28574380D01*
X161968147Y-28574380D01*
X162063385Y-28622000D01*
X162111004Y-28669619D01*
X162158623Y-28764857D01*
X162158623Y-28860095D01*
X162111004Y-29002952D01*
X161539576Y-29574380D01*
X162158623Y-29574380D01*
X157092395Y-28625180D02*
X157092395Y-29434704D01*
X157140014Y-29529942D01*
X157187633Y-29577561D01*
X157282871Y-29625180D01*
X157473347Y-29625180D01*
X157568585Y-29577561D01*
X157616204Y-29529942D01*
X157663823Y-29434704D01*
X157663823Y-28625180D01*
X158663823Y-29625180D02*
X158092395Y-29625180D01*
X158378109Y-29625180D02*
X158378109Y-28625180D01*
X158282871Y-28768038D01*
X158187633Y-28863276D01*
X158092395Y-28910895D01*
X151444566Y-40041580D02*
X151444566Y-40755866D01*
X151396947Y-40898723D01*
X151301709Y-40993961D01*
X151158852Y-41041580D01*
X151063614Y-41041580D01*
X152444566Y-41041580D02*
X151873138Y-41041580D01*
X152158852Y-41041580D02*
X152158852Y-40041580D01*
X152063614Y-40184438D01*
X151968376Y-40279676D01*
X151873138Y-40327295D01*
X197072604Y-26528780D02*
X197072604Y-27338304D01*
X197120223Y-27433542D01*
X197167842Y-27481161D01*
X197263080Y-27528780D01*
X197453557Y-27528780D01*
X197548795Y-27481161D01*
X197596414Y-27433542D01*
X197644033Y-27338304D01*
X197644033Y-26528780D01*
X198072604Y-26624019D02*
X198120223Y-26576400D01*
X198215461Y-26528780D01*
X198453557Y-26528780D01*
X198548795Y-26576400D01*
X198596414Y-26624019D01*
X198644033Y-26719257D01*
X198644033Y-26814495D01*
X198596414Y-26957352D01*
X198024985Y-27528780D01*
X198644033Y-27528780D01*
X199263080Y-26528780D02*
X199358319Y-26528780D01*
X199453557Y-26576400D01*
X199501176Y-26624019D01*
X199548795Y-26719257D01*
X199596414Y-26909733D01*
X199596414Y-27147828D01*
X199548795Y-27338304D01*
X199501176Y-27433542D01*
X199453557Y-27481161D01*
X199358319Y-27528780D01*
X199263080Y-27528780D01*
X199167842Y-27481161D01*
X199120223Y-27433542D01*
X199072604Y-27338304D01*
X199024985Y-27147828D01*
X199024985Y-26909733D01*
X199072604Y-26719257D01*
X199120223Y-26624019D01*
X199167842Y-26576400D01*
X199263080Y-26528780D01*
X183051804Y-26528780D02*
X183051804Y-27338304D01*
X183099423Y-27433542D01*
X183147042Y-27481161D01*
X183242280Y-27528780D01*
X183432757Y-27528780D01*
X183527995Y-27481161D01*
X183575614Y-27433542D01*
X183623233Y-27338304D01*
X183623233Y-26528780D01*
X184623233Y-27528780D02*
X184051804Y-27528780D01*
X184337519Y-27528780D02*
X184337519Y-26528780D01*
X184242280Y-26671638D01*
X184147042Y-26766876D01*
X184051804Y-26814495D01*
X185480376Y-26862114D02*
X185480376Y-27528780D01*
X185242280Y-26481161D02*
X185004185Y-27195447D01*
X185623233Y-27195447D01*
X209405823Y-9088380D02*
X209072490Y-8612190D01*
X208834395Y-9088380D02*
X208834395Y-8088380D01*
X209215347Y-8088380D01*
X209310585Y-8136000D01*
X209358204Y-8183619D01*
X209405823Y-8278857D01*
X209405823Y-8421714D01*
X209358204Y-8516952D01*
X209310585Y-8564571D01*
X209215347Y-8612190D01*
X208834395Y-8612190D01*
X209834395Y-9088380D02*
X209834395Y-8088380D01*
X210405823Y-9088380D01*
X210405823Y-8088380D01*
X211310585Y-8421714D02*
X211310585Y-9088380D01*
X211072490Y-8040761D02*
X210834395Y-8755047D01*
X211453442Y-8755047D01*
X185885423Y-9088380D02*
X185552090Y-8612190D01*
X185313995Y-9088380D02*
X185313995Y-8088380D01*
X185694947Y-8088380D01*
X185790185Y-8136000D01*
X185837804Y-8183619D01*
X185885423Y-8278857D01*
X185885423Y-8421714D01*
X185837804Y-8516952D01*
X185790185Y-8564571D01*
X185694947Y-8612190D01*
X185313995Y-8612190D01*
X186313995Y-9088380D02*
X186313995Y-8088380D01*
X186885423Y-9088380D01*
X186885423Y-8088380D01*
X187266376Y-8088380D02*
X187885423Y-8088380D01*
X187552090Y-8469333D01*
X187694947Y-8469333D01*
X187790185Y-8516952D01*
X187837804Y-8564571D01*
X187885423Y-8659809D01*
X187885423Y-8897904D01*
X187837804Y-8993142D01*
X187790185Y-9040761D01*
X187694947Y-9088380D01*
X187409233Y-9088380D01*
X187313995Y-9040761D01*
X187266376Y-8993142D01*
X181110223Y-9139180D02*
X180776890Y-8662990D01*
X180538795Y-9139180D02*
X180538795Y-8139180D01*
X180919747Y-8139180D01*
X181014985Y-8186800D01*
X181062604Y-8234419D01*
X181110223Y-8329657D01*
X181110223Y-8472514D01*
X181062604Y-8567752D01*
X181014985Y-8615371D01*
X180919747Y-8662990D01*
X180538795Y-8662990D01*
X181538795Y-9139180D02*
X181538795Y-8139180D01*
X182110223Y-9139180D01*
X182110223Y-8139180D01*
X182538795Y-8234419D02*
X182586414Y-8186800D01*
X182681652Y-8139180D01*
X182919747Y-8139180D01*
X183014985Y-8186800D01*
X183062604Y-8234419D01*
X183110223Y-8329657D01*
X183110223Y-8424895D01*
X183062604Y-8567752D01*
X182491176Y-9139180D01*
X183110223Y-9139180D01*
X180770433Y-16359142D02*
X180722814Y-16406761D01*
X180579957Y-16454380D01*
X180484719Y-16454380D01*
X180341861Y-16406761D01*
X180246623Y-16311523D01*
X180199004Y-16216285D01*
X180151385Y-16025809D01*
X180151385Y-15882952D01*
X180199004Y-15692476D01*
X180246623Y-15597238D01*
X180341861Y-15502000D01*
X180484719Y-15454380D01*
X180579957Y-15454380D01*
X180722814Y-15502000D01*
X180770433Y-15549619D01*
X181103766Y-15454380D02*
X181722814Y-15454380D01*
X181389480Y-15835333D01*
X181532338Y-15835333D01*
X181627576Y-15882952D01*
X181675195Y-15930571D01*
X181722814Y-16025809D01*
X181722814Y-16263904D01*
X181675195Y-16359142D01*
X181627576Y-16406761D01*
X181532338Y-16454380D01*
X181246623Y-16454380D01*
X181151385Y-16406761D01*
X181103766Y-16359142D01*
X157691423Y-9088380D02*
X157358090Y-8612190D01*
X157119995Y-9088380D02*
X157119995Y-8088380D01*
X157500947Y-8088380D01*
X157596185Y-8136000D01*
X157643804Y-8183619D01*
X157691423Y-8278857D01*
X157691423Y-8421714D01*
X157643804Y-8516952D01*
X157596185Y-8564571D01*
X157500947Y-8612190D01*
X157119995Y-8612190D01*
X158119995Y-9088380D02*
X158119995Y-8088380D01*
X158691423Y-9088380D01*
X158691423Y-8088380D01*
X159691423Y-9088380D02*
X159119995Y-9088380D01*
X159405709Y-9088380D02*
X159405709Y-8088380D01*
X159310471Y-8231238D01*
X159215233Y-8326476D01*
X159119995Y-8374095D01*
X155892795Y-26528780D02*
X155892795Y-27338304D01*
X155940414Y-27433542D01*
X155988033Y-27481161D01*
X156083271Y-27528780D01*
X156273747Y-27528780D01*
X156368985Y-27481161D01*
X156416604Y-27433542D01*
X156464223Y-27338304D01*
X156464223Y-26528780D01*
X156845176Y-26528780D02*
X157464223Y-26528780D01*
X157130890Y-26909733D01*
X157273747Y-26909733D01*
X157368985Y-26957352D01*
X157416604Y-27004971D01*
X157464223Y-27100209D01*
X157464223Y-27338304D01*
X157416604Y-27433542D01*
X157368985Y-27481161D01*
X157273747Y-27528780D01*
X156988033Y-27528780D01*
X156892795Y-27481161D01*
X156845176Y-27433542D01*
X172877442Y-16359142D02*
X172829823Y-16406761D01*
X172686966Y-16454380D01*
X172591728Y-16454380D01*
X172448871Y-16406761D01*
X172353633Y-16311523D01*
X172306014Y-16216285D01*
X172258395Y-16025809D01*
X172258395Y-15882952D01*
X172306014Y-15692476D01*
X172353633Y-15597238D01*
X172448871Y-15502000D01*
X172591728Y-15454380D01*
X172686966Y-15454380D01*
X172829823Y-15502000D01*
X172877442Y-15549619D01*
X173829823Y-16454380D02*
X173258395Y-16454380D01*
X173544109Y-16454380D02*
X173544109Y-15454380D01*
X173448871Y-15597238D01*
X173353633Y-15692476D01*
X173258395Y-15740095D01*
X174448871Y-15454380D02*
X174544109Y-15454380D01*
X174639347Y-15502000D01*
X174686966Y-15549619D01*
X174734585Y-15644857D01*
X174782204Y-15835333D01*
X174782204Y-16073428D01*
X174734585Y-16263904D01*
X174686966Y-16359142D01*
X174639347Y-16406761D01*
X174544109Y-16454380D01*
X174448871Y-16454380D01*
X174353633Y-16406761D01*
X174306014Y-16359142D01*
X174258395Y-16263904D01*
X174210776Y-16073428D01*
X174210776Y-15835333D01*
X174258395Y-15644857D01*
X174306014Y-15549619D01*
X174353633Y-15502000D01*
X174448871Y-15454380D01*
X170000833Y-15901942D02*
X169953214Y-15949561D01*
X169810357Y-15997180D01*
X169715119Y-15997180D01*
X169572261Y-15949561D01*
X169477023Y-15854323D01*
X169429404Y-15759085D01*
X169381785Y-15568609D01*
X169381785Y-15425752D01*
X169429404Y-15235276D01*
X169477023Y-15140038D01*
X169572261Y-15044800D01*
X169715119Y-14997180D01*
X169810357Y-14997180D01*
X169953214Y-15044800D01*
X170000833Y-15092419D01*
X170477023Y-15997180D02*
X170667500Y-15997180D01*
X170762738Y-15949561D01*
X170810357Y-15901942D01*
X170905595Y-15759085D01*
X170953214Y-15568609D01*
X170953214Y-15187657D01*
X170905595Y-15092419D01*
X170857976Y-15044800D01*
X170762738Y-14997180D01*
X170572261Y-14997180D01*
X170477023Y-15044800D01*
X170429404Y-15092419D01*
X170381785Y-15187657D01*
X170381785Y-15425752D01*
X170429404Y-15520990D01*
X170477023Y-15568609D01*
X170572261Y-15616228D01*
X170762738Y-15616228D01*
X170857976Y-15568609D01*
X170905595Y-15520990D01*
X170953214Y-15425752D01*
X197991633Y-15952742D02*
X197944014Y-16000361D01*
X197801157Y-16047980D01*
X197705919Y-16047980D01*
X197563061Y-16000361D01*
X197467823Y-15905123D01*
X197420204Y-15809885D01*
X197372585Y-15619409D01*
X197372585Y-15476552D01*
X197420204Y-15286076D01*
X197467823Y-15190838D01*
X197563061Y-15095600D01*
X197705919Y-15047980D01*
X197801157Y-15047980D01*
X197944014Y-15095600D01*
X197991633Y-15143219D01*
X198563061Y-15476552D02*
X198467823Y-15428933D01*
X198420204Y-15381314D01*
X198372585Y-15286076D01*
X198372585Y-15238457D01*
X198420204Y-15143219D01*
X198467823Y-15095600D01*
X198563061Y-15047980D01*
X198753538Y-15047980D01*
X198848776Y-15095600D01*
X198896395Y-15143219D01*
X198944014Y-15238457D01*
X198944014Y-15286076D01*
X198896395Y-15381314D01*
X198848776Y-15428933D01*
X198753538Y-15476552D01*
X198563061Y-15476552D01*
X198467823Y-15524171D01*
X198420204Y-15571790D01*
X198372585Y-15667028D01*
X198372585Y-15857504D01*
X198420204Y-15952742D01*
X198467823Y-16000361D01*
X198563061Y-16047980D01*
X198753538Y-16047980D01*
X198848776Y-16000361D01*
X198896395Y-15952742D01*
X198944014Y-15857504D01*
X198944014Y-15667028D01*
X198896395Y-15571790D01*
X198848776Y-15524171D01*
X198753538Y-15476552D01*
X208761233Y-16342342D02*
X208713614Y-16389961D01*
X208570757Y-16437580D01*
X208475519Y-16437580D01*
X208332661Y-16389961D01*
X208237423Y-16294723D01*
X208189804Y-16199485D01*
X208142185Y-16009009D01*
X208142185Y-15866152D01*
X208189804Y-15675676D01*
X208237423Y-15580438D01*
X208332661Y-15485200D01*
X208475519Y-15437580D01*
X208570757Y-15437580D01*
X208713614Y-15485200D01*
X208761233Y-15532819D01*
X209094566Y-15437580D02*
X209761233Y-15437580D01*
X209332661Y-16437580D01*
X166749633Y-16359142D02*
X166702014Y-16406761D01*
X166559157Y-16454380D01*
X166463919Y-16454380D01*
X166321061Y-16406761D01*
X166225823Y-16311523D01*
X166178204Y-16216285D01*
X166130585Y-16025809D01*
X166130585Y-15882952D01*
X166178204Y-15692476D01*
X166225823Y-15597238D01*
X166321061Y-15502000D01*
X166463919Y-15454380D01*
X166559157Y-15454380D01*
X166702014Y-15502000D01*
X166749633Y-15549619D01*
X167606776Y-15454380D02*
X167416300Y-15454380D01*
X167321061Y-15502000D01*
X167273442Y-15549619D01*
X167178204Y-15692476D01*
X167130585Y-15882952D01*
X167130585Y-16263904D01*
X167178204Y-16359142D01*
X167225823Y-16406761D01*
X167321061Y-16454380D01*
X167511538Y-16454380D01*
X167606776Y-16406761D01*
X167654395Y-16359142D01*
X167702014Y-16263904D01*
X167702014Y-16025809D01*
X167654395Y-15930571D01*
X167606776Y-15882952D01*
X167511538Y-15835333D01*
X167321061Y-15835333D01*
X167225823Y-15882952D01*
X167178204Y-15930571D01*
X167130585Y-16025809D01*
X201344433Y-16359142D02*
X201296814Y-16406761D01*
X201153957Y-16454380D01*
X201058719Y-16454380D01*
X200915861Y-16406761D01*
X200820623Y-16311523D01*
X200773004Y-16216285D01*
X200725385Y-16025809D01*
X200725385Y-15882952D01*
X200773004Y-15692476D01*
X200820623Y-15597238D01*
X200915861Y-15502000D01*
X201058719Y-15454380D01*
X201153957Y-15454380D01*
X201296814Y-15502000D01*
X201344433Y-15549619D01*
X202249195Y-15454380D02*
X201773004Y-15454380D01*
X201725385Y-15930571D01*
X201773004Y-15882952D01*
X201868242Y-15835333D01*
X202106338Y-15835333D01*
X202201576Y-15882952D01*
X202249195Y-15930571D01*
X202296814Y-16025809D01*
X202296814Y-16263904D01*
X202249195Y-16359142D01*
X202201576Y-16406761D01*
X202106338Y-16454380D01*
X201868242Y-16454380D01*
X201773004Y-16406761D01*
X201725385Y-16359142D01*
X187323633Y-16359142D02*
X187276014Y-16406761D01*
X187133157Y-16454380D01*
X187037919Y-16454380D01*
X186895061Y-16406761D01*
X186799823Y-16311523D01*
X186752204Y-16216285D01*
X186704585Y-16025809D01*
X186704585Y-15882952D01*
X186752204Y-15692476D01*
X186799823Y-15597238D01*
X186895061Y-15502000D01*
X187037919Y-15454380D01*
X187133157Y-15454380D01*
X187276014Y-15502000D01*
X187323633Y-15549619D01*
X188180776Y-15787714D02*
X188180776Y-16454380D01*
X187942680Y-15406761D02*
X187704585Y-16121047D01*
X188323633Y-16121047D01*
X194740433Y-16359142D02*
X194692814Y-16406761D01*
X194549957Y-16454380D01*
X194454719Y-16454380D01*
X194311861Y-16406761D01*
X194216623Y-16311523D01*
X194169004Y-16216285D01*
X194121385Y-16025809D01*
X194121385Y-15882952D01*
X194169004Y-15692476D01*
X194216623Y-15597238D01*
X194311861Y-15502000D01*
X194454719Y-15454380D01*
X194549957Y-15454380D01*
X194692814Y-15502000D01*
X194740433Y-15549619D01*
X195121385Y-15549619D02*
X195169004Y-15502000D01*
X195264242Y-15454380D01*
X195502338Y-15454380D01*
X195597576Y-15502000D01*
X195645195Y-15549619D01*
X195692814Y-15644857D01*
X195692814Y-15740095D01*
X195645195Y-15882952D01*
X195073766Y-16454380D01*
X195692814Y-16454380D01*
X159332833Y-16359142D02*
X159285214Y-16406761D01*
X159142357Y-16454380D01*
X159047119Y-16454380D01*
X158904261Y-16406761D01*
X158809023Y-16311523D01*
X158761404Y-16216285D01*
X158713785Y-16025809D01*
X158713785Y-15882952D01*
X158761404Y-15692476D01*
X158809023Y-15597238D01*
X158904261Y-15502000D01*
X159047119Y-15454380D01*
X159142357Y-15454380D01*
X159285214Y-15502000D01*
X159332833Y-15549619D01*
X160285214Y-16454380D02*
X159713785Y-16454380D01*
X159999500Y-16454380D02*
X159999500Y-15454380D01*
X159904261Y-15597238D01*
X159809023Y-15692476D01*
X159713785Y-15740095D01*
X170015195Y-26528780D02*
X170015195Y-27338304D01*
X170062814Y-27433542D01*
X170110433Y-27481161D01*
X170205671Y-27528780D01*
X170396147Y-27528780D01*
X170491385Y-27481161D01*
X170539004Y-27433542D01*
X170586623Y-27338304D01*
X170586623Y-26528780D01*
X171110433Y-27528780D02*
X171300909Y-27528780D01*
X171396147Y-27481161D01*
X171443766Y-27433542D01*
X171539004Y-27290685D01*
X171586623Y-27100209D01*
X171586623Y-26719257D01*
X171539004Y-26624019D01*
X171491385Y-26576400D01*
X171396147Y-26528780D01*
X171205671Y-26528780D01*
X171110433Y-26576400D01*
X171062814Y-26624019D01*
X171015195Y-26719257D01*
X171015195Y-26957352D01*
X171062814Y-27052590D01*
X171110433Y-27100209D01*
X171205671Y-27147828D01*
X171396147Y-27147828D01*
X171491385Y-27100209D01*
X171539004Y-27052590D01*
X171586623Y-26957352D01*
X166205195Y-12558780D02*
X166205195Y-13368304D01*
X166252814Y-13463542D01*
X166300433Y-13511161D01*
X166395671Y-13558780D01*
X166586147Y-13558780D01*
X166681385Y-13511161D01*
X166729004Y-13463542D01*
X166776623Y-13368304D01*
X166776623Y-12558780D01*
X167681385Y-12558780D02*
X167490909Y-12558780D01*
X167395671Y-12606400D01*
X167348052Y-12654019D01*
X167252814Y-12796876D01*
X167205195Y-12987352D01*
X167205195Y-13368304D01*
X167252814Y-13463542D01*
X167300433Y-13511161D01*
X167395671Y-13558780D01*
X167586147Y-13558780D01*
X167681385Y-13511161D01*
X167729004Y-13463542D01*
X167776623Y-13368304D01*
X167776623Y-13130209D01*
X167729004Y-13034971D01*
X167681385Y-12987352D01*
X167586147Y-12939733D01*
X167395671Y-12939733D01*
X167300433Y-12987352D01*
X167252814Y-13034971D01*
X167205195Y-13130209D01*
X155954952Y14837619D02*
X155621619Y15313809D01*
X155383523Y14837619D02*
X155383523Y15837619D01*
X155764476Y15837619D01*
X155859714Y15790000D01*
X155907333Y15742380D01*
X155954952Y15647142D01*
X155954952Y15504285D01*
X155907333Y15409047D01*
X155859714Y15361428D01*
X155764476Y15313809D01*
X155383523Y15313809D01*
X156907333Y14837619D02*
X156335904Y14837619D01*
X156621619Y14837619D02*
X156621619Y15837619D01*
X156526380Y15694761D01*
X156431142Y15599523D01*
X156335904Y15551904D01*
X157526380Y15837619D02*
X157621619Y15837619D01*
X157716857Y15790000D01*
X157764476Y15742380D01*
X157812095Y15647142D01*
X157859714Y15456666D01*
X157859714Y15218571D01*
X157812095Y15028095D01*
X157764476Y14932857D01*
X157716857Y14885238D01*
X157621619Y14837619D01*
X157526380Y14837619D01*
X157431142Y14885238D01*
X157383523Y14932857D01*
X157335904Y15028095D01*
X157288285Y15218571D01*
X157288285Y15456666D01*
X157335904Y15647142D01*
X157383523Y15742380D01*
X157431142Y15790000D01*
X157526380Y15837619D01*
X158716857Y15504285D02*
X158716857Y14837619D01*
X158478761Y15885238D02*
X158240666Y15170952D01*
X158859714Y15170952D01*
X156018452Y20108119D02*
X155685119Y20584309D01*
X155447023Y20108119D02*
X155447023Y21108119D01*
X155827976Y21108119D01*
X155923214Y21060500D01*
X155970833Y21012880D01*
X156018452Y20917642D01*
X156018452Y20774785D01*
X155970833Y20679547D01*
X155923214Y20631928D01*
X155827976Y20584309D01*
X155447023Y20584309D01*
X156970833Y20108119D02*
X156399404Y20108119D01*
X156685119Y20108119D02*
X156685119Y21108119D01*
X156589880Y20965261D01*
X156494642Y20870023D01*
X156399404Y20822404D01*
X157589880Y21108119D02*
X157685119Y21108119D01*
X157780357Y21060500D01*
X157827976Y21012880D01*
X157875595Y20917642D01*
X157923214Y20727166D01*
X157923214Y20489071D01*
X157875595Y20298595D01*
X157827976Y20203357D01*
X157780357Y20155738D01*
X157685119Y20108119D01*
X157589880Y20108119D01*
X157494642Y20155738D01*
X157447023Y20203357D01*
X157399404Y20298595D01*
X157351785Y20489071D01*
X157351785Y20727166D01*
X157399404Y20917642D01*
X157447023Y21012880D01*
X157494642Y21060500D01*
X157589880Y21108119D01*
X158256547Y21108119D02*
X158875595Y21108119D01*
X158542261Y20727166D01*
X158685119Y20727166D01*
X158780357Y20679547D01*
X158827976Y20631928D01*
X158875595Y20536690D01*
X158875595Y20298595D01*
X158827976Y20203357D01*
X158780357Y20155738D01*
X158685119Y20108119D01*
X158399404Y20108119D01*
X158304166Y20155738D01*
X158256547Y20203357D01*
X166670380Y19822452D02*
X166194190Y19489119D01*
X166670380Y19251023D02*
X165670380Y19251023D01*
X165670380Y19631976D01*
X165718000Y19727214D01*
X165765619Y19774833D01*
X165860857Y19822452D01*
X166003714Y19822452D01*
X166098952Y19774833D01*
X166146571Y19727214D01*
X166194190Y19631976D01*
X166194190Y19251023D01*
X166670380Y20774833D02*
X166670380Y20203404D01*
X166670380Y20489119D02*
X165670380Y20489119D01*
X165813238Y20393880D01*
X165908476Y20298642D01*
X165956095Y20203404D01*
X165670380Y21393880D02*
X165670380Y21489119D01*
X165718000Y21584357D01*
X165765619Y21631976D01*
X165860857Y21679595D01*
X166051333Y21727214D01*
X166289428Y21727214D01*
X166479904Y21679595D01*
X166575142Y21631976D01*
X166622761Y21584357D01*
X166670380Y21489119D01*
X166670380Y21393880D01*
X166622761Y21298642D01*
X166575142Y21251023D01*
X166479904Y21203404D01*
X166289428Y21155785D01*
X166051333Y21155785D01*
X165860857Y21203404D01*
X165765619Y21251023D01*
X165718000Y21298642D01*
X165670380Y21393880D01*
X165765619Y22108166D02*
X165718000Y22155785D01*
X165670380Y22251023D01*
X165670380Y22489119D01*
X165718000Y22584357D01*
X165765619Y22631976D01*
X165860857Y22679595D01*
X165956095Y22679595D01*
X166098952Y22631976D01*
X166670380Y22060547D01*
X166670380Y22679595D01*
X166478880Y13193452D02*
X166002690Y12860119D01*
X166478880Y12622023D02*
X165478880Y12622023D01*
X165478880Y13002976D01*
X165526500Y13098214D01*
X165574119Y13145833D01*
X165669357Y13193452D01*
X165812214Y13193452D01*
X165907452Y13145833D01*
X165955071Y13098214D01*
X166002690Y13002976D01*
X166002690Y12622023D01*
X166478880Y14145833D02*
X166478880Y13574404D01*
X166478880Y13860119D02*
X165478880Y13860119D01*
X165621738Y13764880D01*
X165716976Y13669642D01*
X165764595Y13574404D01*
X165478880Y14764880D02*
X165478880Y14860119D01*
X165526500Y14955357D01*
X165574119Y15002976D01*
X165669357Y15050595D01*
X165859833Y15098214D01*
X166097928Y15098214D01*
X166288404Y15050595D01*
X166383642Y15002976D01*
X166431261Y14955357D01*
X166478880Y14860119D01*
X166478880Y14764880D01*
X166431261Y14669642D01*
X166383642Y14622023D01*
X166288404Y14574404D01*
X166097928Y14526785D01*
X165859833Y14526785D01*
X165669357Y14574404D01*
X165574119Y14622023D01*
X165526500Y14669642D01*
X165478880Y14764880D01*
X166478880Y16050595D02*
X166478880Y15479166D01*
X166478880Y15764880D02*
X165478880Y15764880D01*
X165621738Y15669642D01*
X165716976Y15574404D01*
X165764595Y15479166D01*
X160344380Y16266380D02*
X160249142Y16314000D01*
X160153904Y16409238D01*
X160011047Y16552095D01*
X159915809Y16599714D01*
X159820571Y16599714D01*
X159868190Y16361619D02*
X159772952Y16409238D01*
X159677714Y16504476D01*
X159630095Y16694952D01*
X159630095Y17028285D01*
X159677714Y17218761D01*
X159772952Y17314000D01*
X159868190Y17361619D01*
X160058666Y17361619D01*
X160153904Y17314000D01*
X160249142Y17218761D01*
X160296761Y17028285D01*
X160296761Y16694952D01*
X160249142Y16504476D01*
X160153904Y16409238D01*
X160058666Y16361619D01*
X159868190Y16361619D01*
X161249142Y16361619D02*
X160677714Y16361619D01*
X160963428Y16361619D02*
X160963428Y17361619D01*
X160868190Y17218761D01*
X160772952Y17123523D01*
X160677714Y17075904D01*
X161868190Y17361619D02*
X161963428Y17361619D01*
X162058666Y17314000D01*
X162106285Y17266380D01*
X162153904Y17171142D01*
X162201523Y16980666D01*
X162201523Y16742571D01*
X162153904Y16552095D01*
X162106285Y16456857D01*
X162058666Y16409238D01*
X161963428Y16361619D01*
X161868190Y16361619D01*
X161772952Y16409238D01*
X161725333Y16456857D01*
X161677714Y16552095D01*
X161630095Y16742571D01*
X161630095Y16980666D01*
X161677714Y17171142D01*
X161725333Y17266380D01*
X161772952Y17314000D01*
X161868190Y17361619D01*
X162582476Y17266380D02*
X162630095Y17314000D01*
X162725333Y17361619D01*
X162963428Y17361619D01*
X163058666Y17314000D01*
X163106285Y17266380D01*
X163153904Y17171142D01*
X163153904Y17075904D01*
X163106285Y16933047D01*
X162534857Y16361619D01*
X163153904Y16361619D01*
X160344380Y18488880D02*
X160249142Y18536500D01*
X160153904Y18631738D01*
X160011047Y18774595D01*
X159915809Y18822214D01*
X159820571Y18822214D01*
X159868190Y18584119D02*
X159772952Y18631738D01*
X159677714Y18726976D01*
X159630095Y18917452D01*
X159630095Y19250785D01*
X159677714Y19441261D01*
X159772952Y19536500D01*
X159868190Y19584119D01*
X160058666Y19584119D01*
X160153904Y19536500D01*
X160249142Y19441261D01*
X160296761Y19250785D01*
X160296761Y18917452D01*
X160249142Y18726976D01*
X160153904Y18631738D01*
X160058666Y18584119D01*
X159868190Y18584119D01*
X161249142Y18584119D02*
X160677714Y18584119D01*
X160963428Y18584119D02*
X160963428Y19584119D01*
X160868190Y19441261D01*
X160772952Y19346023D01*
X160677714Y19298404D01*
X161868190Y19584119D02*
X161963428Y19584119D01*
X162058666Y19536500D01*
X162106285Y19488880D01*
X162153904Y19393642D01*
X162201523Y19203166D01*
X162201523Y18965071D01*
X162153904Y18774595D01*
X162106285Y18679357D01*
X162058666Y18631738D01*
X161963428Y18584119D01*
X161868190Y18584119D01*
X161772952Y18631738D01*
X161725333Y18679357D01*
X161677714Y18774595D01*
X161630095Y18965071D01*
X161630095Y19203166D01*
X161677714Y19393642D01*
X161725333Y19488880D01*
X161772952Y19536500D01*
X161868190Y19584119D01*
X163153904Y18584119D02*
X162582476Y18584119D01*
X162868190Y18584119D02*
X162868190Y19584119D01*
X162772952Y19441261D01*
X162677714Y19346023D01*
X162582476Y19298404D01*
X204024261Y32117785D02*
X204071880Y32260642D01*
X204071880Y32498738D01*
X204024261Y32593976D01*
X203976642Y32641595D01*
X203881404Y32689214D01*
X203786166Y32689214D01*
X203690928Y32641595D01*
X203643309Y32593976D01*
X203595690Y32498738D01*
X203548071Y32308261D01*
X203500452Y32213023D01*
X203452833Y32165404D01*
X203357595Y32117785D01*
X203262357Y32117785D01*
X203167119Y32165404D01*
X203119500Y32213023D01*
X203071880Y32308261D01*
X203071880Y32546357D01*
X203119500Y32689214D01*
X203071880Y33022547D02*
X204071880Y33260642D01*
X203357595Y33451119D01*
X204071880Y33641595D01*
X203071880Y33879690D01*
X204071880Y34784452D02*
X204071880Y34213023D01*
X204071880Y34498738D02*
X203071880Y34498738D01*
X203214738Y34403500D01*
X203309976Y34308261D01*
X203357595Y34213023D01*
X203071880Y35403500D02*
X203071880Y35498738D01*
X203119500Y35593976D01*
X203167119Y35641595D01*
X203262357Y35689214D01*
X203452833Y35736833D01*
X203690928Y35736833D01*
X203881404Y35689214D01*
X203976642Y35641595D01*
X204024261Y35593976D01*
X204071880Y35498738D01*
X204071880Y35403500D01*
X204024261Y35308261D01*
X203976642Y35260642D01*
X203881404Y35213023D01*
X203690928Y35165404D01*
X203452833Y35165404D01*
X203262357Y35213023D01*
X203167119Y35260642D01*
X203119500Y35308261D01*
X203071880Y35403500D01*
X203167119Y36117785D02*
X203119500Y36165404D01*
X203071880Y36260642D01*
X203071880Y36498738D01*
X203119500Y36593976D01*
X203167119Y36641595D01*
X203262357Y36689214D01*
X203357595Y36689214D01*
X203500452Y36641595D01*
X204071880Y36070166D01*
X204071880Y36689214D01*
D14*
X192769500Y38364333D02*
X193245690Y38364333D01*
X192674261Y38078619D02*
X193007595Y39078619D01*
X193340928Y38078619D01*
X193674261Y38078619D02*
X193674261Y39078619D01*
X193912357Y39078619D01*
X194055214Y39031000D01*
X194150452Y38935761D01*
X194198071Y38840523D01*
X194245690Y38650047D01*
X194245690Y38507190D01*
X194198071Y38316714D01*
X194150452Y38221476D01*
X194055214Y38126238D01*
X193912357Y38078619D01*
X193674261Y38078619D01*
X194674261Y38078619D02*
X194674261Y39078619D01*
X194912357Y39078619D01*
X195055214Y39031000D01*
X195150452Y38935761D01*
X195198071Y38840523D01*
X195245690Y38650047D01*
X195245690Y38507190D01*
X195198071Y38316714D01*
X195150452Y38221476D01*
X195055214Y38126238D01*
X194912357Y38078619D01*
X194674261Y38078619D01*
X196245690Y38078619D02*
X195912357Y38554809D01*
X195674261Y38078619D02*
X195674261Y39078619D01*
X196055214Y39078619D01*
X196150452Y39031000D01*
X196198071Y38983380D01*
X196245690Y38888142D01*
X196245690Y38745285D01*
X196198071Y38650047D01*
X196150452Y38602428D01*
X196055214Y38554809D01*
X195674261Y38554809D01*
X197388547Y39126238D02*
X196531404Y37840523D01*
X197579023Y39078619D02*
X197912357Y38078619D01*
X198245690Y39078619D01*
X198531404Y38364333D02*
X199007595Y38364333D01*
X198436166Y38078619D02*
X198769500Y39078619D01*
X199102833Y38078619D01*
X199912357Y38078619D02*
X199436166Y38078619D01*
X199436166Y39078619D01*
X200245690Y39078619D02*
X200245690Y38269095D01*
X200293309Y38173857D01*
X200340928Y38126238D01*
X200436166Y38078619D01*
X200626642Y38078619D01*
X200721880Y38126238D01*
X200769500Y38173857D01*
X200817119Y38269095D01*
X200817119Y39078619D01*
X201293309Y38602428D02*
X201626642Y38602428D01*
X201769500Y38078619D02*
X201293309Y38078619D01*
X201293309Y39078619D01*
X201769500Y39078619D01*
D11*
X206453142Y4046952D02*
X206500761Y3999333D01*
X206548380Y3856476D01*
X206548380Y3761238D01*
X206500761Y3618380D01*
X206405523Y3523142D01*
X206310285Y3475523D01*
X206119809Y3427904D01*
X205976952Y3427904D01*
X205786476Y3475523D01*
X205691238Y3523142D01*
X205596000Y3618380D01*
X205548380Y3761238D01*
X205548380Y3856476D01*
X205596000Y3999333D01*
X205643619Y4046952D01*
X206548380Y4999333D02*
X206548380Y4427904D01*
X206548380Y4713619D02*
X205548380Y4713619D01*
X205691238Y4618380D01*
X205786476Y4523142D01*
X205834095Y4427904D01*
X205548380Y5618380D02*
X205548380Y5713619D01*
X205596000Y5808857D01*
X205643619Y5856476D01*
X205738857Y5904095D01*
X205929333Y5951714D01*
X206167428Y5951714D01*
X206357904Y5904095D01*
X206453142Y5856476D01*
X206500761Y5808857D01*
X206548380Y5713619D01*
X206548380Y5618380D01*
X206500761Y5523142D01*
X206453142Y5475523D01*
X206357904Y5427904D01*
X206167428Y5380285D01*
X205929333Y5380285D01*
X205738857Y5427904D01*
X205643619Y5475523D01*
X205596000Y5523142D01*
X205548380Y5618380D01*
X205548380Y6856476D02*
X205548380Y6380285D01*
X206024571Y6332666D01*
X205976952Y6380285D01*
X205929333Y6475523D01*
X205929333Y6713619D01*
X205976952Y6808857D01*
X206024571Y6856476D01*
X206119809Y6904095D01*
X206357904Y6904095D01*
X206453142Y6856476D01*
X206500761Y6808857D01*
X206548380Y6713619D01*
X206548380Y6475523D01*
X206500761Y6380285D01*
X206453142Y6332666D01*
X211112714Y5144619D02*
X211112714Y4335095D01*
X211160333Y4239857D01*
X211207952Y4192238D01*
X211303190Y4144619D01*
X211493666Y4144619D01*
X211588904Y4192238D01*
X211636523Y4239857D01*
X211684142Y4335095D01*
X211684142Y5144619D01*
X212684142Y4144619D02*
X212112714Y4144619D01*
X212398428Y4144619D02*
X212398428Y5144619D01*
X212303190Y5001761D01*
X212207952Y4906523D01*
X212112714Y4858904D01*
X213303190Y5144619D02*
X213398428Y5144619D01*
X213493666Y5097000D01*
X213541285Y5049380D01*
X213588904Y4954142D01*
X213636523Y4763666D01*
X213636523Y4525571D01*
X213588904Y4335095D01*
X213541285Y4239857D01*
X213493666Y4192238D01*
X213398428Y4144619D01*
X213303190Y4144619D01*
X213207952Y4192238D01*
X213160333Y4239857D01*
X213112714Y4335095D01*
X213065095Y4525571D01*
X213065095Y4763666D01*
X213112714Y4954142D01*
X213160333Y5049380D01*
X213207952Y5097000D01*
X213303190Y5144619D01*
X214541285Y5144619D02*
X214065095Y5144619D01*
X214017476Y4668428D01*
X214065095Y4716047D01*
X214160333Y4763666D01*
X214398428Y4763666D01*
X214493666Y4716047D01*
X214541285Y4668428D01*
X214588904Y4573190D01*
X214588904Y4335095D01*
X214541285Y4239857D01*
X214493666Y4192238D01*
X214398428Y4144619D01*
X214160333Y4144619D01*
X214065095Y4192238D01*
X214017476Y4239857D01*
X211049214Y17215119D02*
X211049214Y16405595D01*
X211096833Y16310357D01*
X211144452Y16262738D01*
X211239690Y16215119D01*
X211430166Y16215119D01*
X211525404Y16262738D01*
X211573023Y16310357D01*
X211620642Y16405595D01*
X211620642Y17215119D01*
X212620642Y16215119D02*
X212049214Y16215119D01*
X212334928Y16215119D02*
X212334928Y17215119D01*
X212239690Y17072261D01*
X212144452Y16977023D01*
X212049214Y16929404D01*
X213239690Y17215119D02*
X213334928Y17215119D01*
X213430166Y17167500D01*
X213477785Y17119880D01*
X213525404Y17024642D01*
X213573023Y16834166D01*
X213573023Y16596071D01*
X213525404Y16405595D01*
X213477785Y16310357D01*
X213430166Y16262738D01*
X213334928Y16215119D01*
X213239690Y16215119D01*
X213144452Y16262738D01*
X213096833Y16310357D01*
X213049214Y16405595D01*
X213001595Y16596071D01*
X213001595Y16834166D01*
X213049214Y17024642D01*
X213096833Y17119880D01*
X213144452Y17167500D01*
X213239690Y17215119D01*
X214430166Y16881785D02*
X214430166Y16215119D01*
X214192071Y17262738D02*
X213953976Y16548452D01*
X214573023Y16548452D01*
X206389642Y16075952D02*
X206437261Y16028333D01*
X206484880Y15885476D01*
X206484880Y15790238D01*
X206437261Y15647380D01*
X206342023Y15552142D01*
X206246785Y15504523D01*
X206056309Y15456904D01*
X205913452Y15456904D01*
X205722976Y15504523D01*
X205627738Y15552142D01*
X205532500Y15647380D01*
X205484880Y15790238D01*
X205484880Y15885476D01*
X205532500Y16028333D01*
X205580119Y16075952D01*
X206484880Y17028333D02*
X206484880Y16456904D01*
X206484880Y16742619D02*
X205484880Y16742619D01*
X205627738Y16647380D01*
X205722976Y16552142D01*
X205770595Y16456904D01*
X205484880Y17647380D02*
X205484880Y17742619D01*
X205532500Y17837857D01*
X205580119Y17885476D01*
X205675357Y17933095D01*
X205865833Y17980714D01*
X206103928Y17980714D01*
X206294404Y17933095D01*
X206389642Y17885476D01*
X206437261Y17837857D01*
X206484880Y17742619D01*
X206484880Y17647380D01*
X206437261Y17552142D01*
X206389642Y17504523D01*
X206294404Y17456904D01*
X206103928Y17409285D01*
X205865833Y17409285D01*
X205675357Y17456904D01*
X205580119Y17504523D01*
X205532500Y17552142D01*
X205484880Y17647380D01*
X205818214Y18837857D02*
X206484880Y18837857D01*
X205437261Y18599761D02*
X206151547Y18361666D01*
X206151547Y18980714D01*
X167551714Y31014119D02*
X167551714Y30204595D01*
X167599333Y30109357D01*
X167646952Y30061738D01*
X167742190Y30014119D01*
X167932666Y30014119D01*
X168027904Y30061738D01*
X168075523Y30109357D01*
X168123142Y30204595D01*
X168123142Y31014119D01*
X169123142Y30014119D02*
X168551714Y30014119D01*
X168837428Y30014119D02*
X168837428Y31014119D01*
X168742190Y30871261D01*
X168646952Y30776023D01*
X168551714Y30728404D01*
X169742190Y31014119D02*
X169837428Y31014119D01*
X169932666Y30966500D01*
X169980285Y30918880D01*
X170027904Y30823642D01*
X170075523Y30633166D01*
X170075523Y30395071D01*
X170027904Y30204595D01*
X169980285Y30109357D01*
X169932666Y30061738D01*
X169837428Y30014119D01*
X169742190Y30014119D01*
X169646952Y30061738D01*
X169599333Y30109357D01*
X169551714Y30204595D01*
X169504095Y30395071D01*
X169504095Y30633166D01*
X169551714Y30823642D01*
X169599333Y30918880D01*
X169646952Y30966500D01*
X169742190Y31014119D01*
X171027904Y30014119D02*
X170456476Y30014119D01*
X170742190Y30014119D02*
X170742190Y31014119D01*
X170646952Y30871261D01*
X170551714Y30776023D01*
X170456476Y30728404D01*
X168591452Y32560857D02*
X168543833Y32513238D01*
X168400976Y32465619D01*
X168305738Y32465619D01*
X168162880Y32513238D01*
X168067642Y32608476D01*
X168020023Y32703714D01*
X167972404Y32894190D01*
X167972404Y33037047D01*
X168020023Y33227523D01*
X168067642Y33322761D01*
X168162880Y33418000D01*
X168305738Y33465619D01*
X168400976Y33465619D01*
X168543833Y33418000D01*
X168591452Y33370380D01*
X169543833Y32465619D02*
X168972404Y32465619D01*
X169258119Y32465619D02*
X169258119Y33465619D01*
X169162880Y33322761D01*
X169067642Y33227523D01*
X168972404Y33179904D01*
X170162880Y33465619D02*
X170258119Y33465619D01*
X170353357Y33418000D01*
X170400976Y33370380D01*
X170448595Y33275142D01*
X170496214Y33084666D01*
X170496214Y32846571D01*
X170448595Y32656095D01*
X170400976Y32560857D01*
X170353357Y32513238D01*
X170258119Y32465619D01*
X170162880Y32465619D01*
X170067642Y32513238D01*
X170020023Y32560857D01*
X169972404Y32656095D01*
X169924785Y32846571D01*
X169924785Y33084666D01*
X169972404Y33275142D01*
X170020023Y33370380D01*
X170067642Y33418000D01*
X170162880Y33465619D01*
X171448595Y32465619D02*
X170877166Y32465619D01*
X171162880Y32465619D02*
X171162880Y33465619D01*
X171067642Y33322761D01*
X170972404Y33227523D01*
X170877166Y33179904D01*
X181053142Y2613952D02*
X181100761Y2566333D01*
X181148380Y2423476D01*
X181148380Y2328238D01*
X181100761Y2185380D01*
X181005523Y2090142D01*
X180910285Y2042523D01*
X180719809Y1994904D01*
X180576952Y1994904D01*
X180386476Y2042523D01*
X180291238Y2090142D01*
X180196000Y2185380D01*
X180148380Y2328238D01*
X180148380Y2423476D01*
X180196000Y2566333D01*
X180243619Y2613952D01*
X181148380Y3566333D02*
X181148380Y2994904D01*
X181148380Y3280619D02*
X180148380Y3280619D01*
X180291238Y3185380D01*
X180386476Y3090142D01*
X180434095Y2994904D01*
X180148380Y4185380D02*
X180148380Y4280619D01*
X180196000Y4375857D01*
X180243619Y4423476D01*
X180338857Y4471095D01*
X180529333Y4518714D01*
X180767428Y4518714D01*
X180957904Y4471095D01*
X181053142Y4423476D01*
X181100761Y4375857D01*
X181148380Y4280619D01*
X181148380Y4185380D01*
X181100761Y4090142D01*
X181053142Y4042523D01*
X180957904Y3994904D01*
X180767428Y3947285D01*
X180529333Y3947285D01*
X180338857Y3994904D01*
X180243619Y4042523D01*
X180196000Y4090142D01*
X180148380Y4185380D01*
X180148380Y4852047D02*
X180148380Y5471095D01*
X180529333Y5137761D01*
X180529333Y5280619D01*
X180576952Y5375857D01*
X180624571Y5423476D01*
X180719809Y5471095D01*
X180957904Y5471095D01*
X181053142Y5423476D01*
X181100761Y5375857D01*
X181148380Y5280619D01*
X181148380Y4994904D01*
X181100761Y4899666D01*
X181053142Y4852047D01*
X152097142Y21067452D02*
X152144761Y21019833D01*
X152192380Y20876976D01*
X152192380Y20781738D01*
X152144761Y20638880D01*
X152049523Y20543642D01*
X151954285Y20496023D01*
X151763809Y20448404D01*
X151620952Y20448404D01*
X151430476Y20496023D01*
X151335238Y20543642D01*
X151240000Y20638880D01*
X151192380Y20781738D01*
X151192380Y20876976D01*
X151240000Y21019833D01*
X151287619Y21067452D01*
X152192380Y22019833D02*
X152192380Y21448404D01*
X152192380Y21734119D02*
X151192380Y21734119D01*
X151335238Y21638880D01*
X151430476Y21543642D01*
X151478095Y21448404D01*
X151192380Y22638880D02*
X151192380Y22734119D01*
X151240000Y22829357D01*
X151287619Y22876976D01*
X151382857Y22924595D01*
X151573333Y22972214D01*
X151811428Y22972214D01*
X152001904Y22924595D01*
X152097142Y22876976D01*
X152144761Y22829357D01*
X152192380Y22734119D01*
X152192380Y22638880D01*
X152144761Y22543642D01*
X152097142Y22496023D01*
X152001904Y22448404D01*
X151811428Y22400785D01*
X151573333Y22400785D01*
X151382857Y22448404D01*
X151287619Y22496023D01*
X151240000Y22543642D01*
X151192380Y22638880D01*
X151287619Y23353166D02*
X151240000Y23400785D01*
X151192380Y23496023D01*
X151192380Y23734119D01*
X151240000Y23829357D01*
X151287619Y23876976D01*
X151382857Y23924595D01*
X151478095Y23924595D01*
X151620952Y23876976D01*
X152192380Y23305547D01*
X152192380Y23924595D01*
X143953452Y15828619D02*
X143620119Y16304809D01*
X143382023Y15828619D02*
X143382023Y16828619D01*
X143762976Y16828619D01*
X143858214Y16781000D01*
X143905833Y16733380D01*
X143953452Y16638142D01*
X143953452Y16495285D01*
X143905833Y16400047D01*
X143858214Y16352428D01*
X143762976Y16304809D01*
X143382023Y16304809D01*
X144905833Y15828619D02*
X144334404Y15828619D01*
X144620119Y15828619D02*
X144620119Y16828619D01*
X144524880Y16685761D01*
X144429642Y16590523D01*
X144334404Y16542904D01*
X145524880Y16828619D02*
X145620119Y16828619D01*
X145715357Y16781000D01*
X145762976Y16733380D01*
X145810595Y16638142D01*
X145858214Y16447666D01*
X145858214Y16209571D01*
X145810595Y16019095D01*
X145762976Y15923857D01*
X145715357Y15876238D01*
X145620119Y15828619D01*
X145524880Y15828619D01*
X145429642Y15876238D01*
X145382023Y15923857D01*
X145334404Y16019095D01*
X145286785Y16209571D01*
X145286785Y16447666D01*
X145334404Y16638142D01*
X145382023Y16733380D01*
X145429642Y16781000D01*
X145524880Y16828619D01*
X146715357Y16828619D02*
X146524880Y16828619D01*
X146429642Y16781000D01*
X146382023Y16733380D01*
X146286785Y16590523D01*
X146239166Y16400047D01*
X146239166Y16019095D01*
X146286785Y15923857D01*
X146334404Y15876238D01*
X146429642Y15828619D01*
X146620119Y15828619D01*
X146715357Y15876238D01*
X146762976Y15923857D01*
X146810595Y16019095D01*
X146810595Y16257190D01*
X146762976Y16352428D01*
X146715357Y16400047D01*
X146620119Y16447666D01*
X146429642Y16447666D01*
X146334404Y16400047D01*
X146286785Y16352428D01*
X146239166Y16257190D01*
X148120714Y19139619D02*
X148120714Y18330095D01*
X148168333Y18234857D01*
X148215952Y18187238D01*
X148311190Y18139619D01*
X148501666Y18139619D01*
X148596904Y18187238D01*
X148644523Y18234857D01*
X148692142Y18330095D01*
X148692142Y19139619D01*
X149692142Y18139619D02*
X149120714Y18139619D01*
X149406428Y18139619D02*
X149406428Y19139619D01*
X149311190Y18996761D01*
X149215952Y18901523D01*
X149120714Y18853904D01*
X150311190Y19139619D02*
X150406428Y19139619D01*
X150501666Y19092000D01*
X150549285Y19044380D01*
X150596904Y18949142D01*
X150644523Y18758666D01*
X150644523Y18520571D01*
X150596904Y18330095D01*
X150549285Y18234857D01*
X150501666Y18187238D01*
X150406428Y18139619D01*
X150311190Y18139619D01*
X150215952Y18187238D01*
X150168333Y18234857D01*
X150120714Y18330095D01*
X150073095Y18520571D01*
X150073095Y18758666D01*
X150120714Y18949142D01*
X150168333Y19044380D01*
X150215952Y19092000D01*
X150311190Y19139619D01*
X151025476Y19044380D02*
X151073095Y19092000D01*
X151168333Y19139619D01*
X151406428Y19139619D01*
X151501666Y19092000D01*
X151549285Y19044380D01*
X151596904Y18949142D01*
X151596904Y18853904D01*
X151549285Y18711047D01*
X150977857Y18139619D01*
X151596904Y18139619D01*
X229521261Y1148595D02*
X229254595Y1529547D01*
X229064119Y1148595D02*
X229064119Y1948595D01*
X229368880Y1948595D01*
X229445071Y1910500D01*
X229483166Y1872404D01*
X229521261Y1796214D01*
X229521261Y1681928D01*
X229483166Y1605738D01*
X229445071Y1567642D01*
X229368880Y1529547D01*
X229064119Y1529547D01*
X230283166Y1148595D02*
X229826023Y1148595D01*
X230054595Y1148595D02*
X230054595Y1948595D01*
X229978404Y1834309D01*
X229902214Y1758119D01*
X229826023Y1720023D01*
X230587928Y1872404D02*
X230626023Y1910500D01*
X230702214Y1948595D01*
X230892690Y1948595D01*
X230968880Y1910500D01*
X231006976Y1872404D01*
X231045071Y1796214D01*
X231045071Y1720023D01*
X231006976Y1605738D01*
X230549833Y1148595D01*
X231045071Y1148595D01*
X231311738Y1948595D02*
X231806976Y1948595D01*
X231540309Y1643833D01*
X231654595Y1643833D01*
X231730785Y1605738D01*
X231768880Y1567642D01*
X231806976Y1491452D01*
X231806976Y1300976D01*
X231768880Y1224785D01*
X231730785Y1186690D01*
X231654595Y1148595D01*
X231426023Y1148595D01*
X231349833Y1186690D01*
X231311738Y1224785D01*
X229521261Y4450595D02*
X229254595Y4831547D01*
X229064119Y4450595D02*
X229064119Y5250595D01*
X229368880Y5250595D01*
X229445071Y5212500D01*
X229483166Y5174404D01*
X229521261Y5098214D01*
X229521261Y4983928D01*
X229483166Y4907738D01*
X229445071Y4869642D01*
X229368880Y4831547D01*
X229064119Y4831547D01*
X230283166Y4450595D02*
X229826023Y4450595D01*
X230054595Y4450595D02*
X230054595Y5250595D01*
X229978404Y5136309D01*
X229902214Y5060119D01*
X229826023Y5022023D01*
X230587928Y5174404D02*
X230626023Y5212500D01*
X230702214Y5250595D01*
X230892690Y5250595D01*
X230968880Y5212500D01*
X231006976Y5174404D01*
X231045071Y5098214D01*
X231045071Y5022023D01*
X231006976Y4907738D01*
X230549833Y4450595D01*
X231045071Y4450595D01*
X231349833Y5174404D02*
X231387928Y5212500D01*
X231464119Y5250595D01*
X231654595Y5250595D01*
X231730785Y5212500D01*
X231768880Y5174404D01*
X231806976Y5098214D01*
X231806976Y5022023D01*
X231768880Y4907738D01*
X231311738Y4450595D01*
X231806976Y4450595D01*
X229521261Y7816095D02*
X229254595Y8197047D01*
X229064119Y7816095D02*
X229064119Y8616095D01*
X229368880Y8616095D01*
X229445071Y8578000D01*
X229483166Y8539904D01*
X229521261Y8463714D01*
X229521261Y8349428D01*
X229483166Y8273238D01*
X229445071Y8235142D01*
X229368880Y8197047D01*
X229064119Y8197047D01*
X230283166Y7816095D02*
X229826023Y7816095D01*
X230054595Y7816095D02*
X230054595Y8616095D01*
X229978404Y8501809D01*
X229902214Y8425619D01*
X229826023Y8387523D01*
X230587928Y8539904D02*
X230626023Y8578000D01*
X230702214Y8616095D01*
X230892690Y8616095D01*
X230968880Y8578000D01*
X231006976Y8539904D01*
X231045071Y8463714D01*
X231045071Y8387523D01*
X231006976Y8273238D01*
X230549833Y7816095D01*
X231045071Y7816095D01*
X231806976Y7816095D02*
X231349833Y7816095D01*
X231578404Y7816095D02*
X231578404Y8616095D01*
X231502214Y8501809D01*
X231426023Y8425619D01*
X231349833Y8387523D01*
X229521261Y11054595D02*
X229254595Y11435547D01*
X229064119Y11054595D02*
X229064119Y11854595D01*
X229368880Y11854595D01*
X229445071Y11816500D01*
X229483166Y11778404D01*
X229521261Y11702214D01*
X229521261Y11587928D01*
X229483166Y11511738D01*
X229445071Y11473642D01*
X229368880Y11435547D01*
X229064119Y11435547D01*
X230283166Y11054595D02*
X229826023Y11054595D01*
X230054595Y11054595D02*
X230054595Y11854595D01*
X229978404Y11740309D01*
X229902214Y11664119D01*
X229826023Y11626023D01*
X230587928Y11778404D02*
X230626023Y11816500D01*
X230702214Y11854595D01*
X230892690Y11854595D01*
X230968880Y11816500D01*
X231006976Y11778404D01*
X231045071Y11702214D01*
X231045071Y11626023D01*
X231006976Y11511738D01*
X230549833Y11054595D01*
X231045071Y11054595D01*
X231540309Y11854595D02*
X231616500Y11854595D01*
X231692690Y11816500D01*
X231730785Y11778404D01*
X231768880Y11702214D01*
X231806976Y11549833D01*
X231806976Y11359357D01*
X231768880Y11206976D01*
X231730785Y11130785D01*
X231692690Y11092690D01*
X231616500Y11054595D01*
X231540309Y11054595D01*
X231464119Y11092690D01*
X231426023Y11130785D01*
X231387928Y11206976D01*
X231349833Y11359357D01*
X231349833Y11549833D01*
X231387928Y11702214D01*
X231426023Y11778404D01*
X231464119Y11816500D01*
X231540309Y11854595D01*
X229521261Y14356595D02*
X229254595Y14737547D01*
X229064119Y14356595D02*
X229064119Y15156595D01*
X229368880Y15156595D01*
X229445071Y15118500D01*
X229483166Y15080404D01*
X229521261Y15004214D01*
X229521261Y14889928D01*
X229483166Y14813738D01*
X229445071Y14775642D01*
X229368880Y14737547D01*
X229064119Y14737547D01*
X230283166Y14356595D02*
X229826023Y14356595D01*
X230054595Y14356595D02*
X230054595Y15156595D01*
X229978404Y15042309D01*
X229902214Y14966119D01*
X229826023Y14928023D01*
X231045071Y14356595D02*
X230587928Y14356595D01*
X230816500Y14356595D02*
X230816500Y15156595D01*
X230740309Y15042309D01*
X230664119Y14966119D01*
X230587928Y14928023D01*
X231426023Y14356595D02*
X231578404Y14356595D01*
X231654595Y14394690D01*
X231692690Y14432785D01*
X231768880Y14547071D01*
X231806976Y14699452D01*
X231806976Y15004214D01*
X231768880Y15080404D01*
X231730785Y15118500D01*
X231654595Y15156595D01*
X231502214Y15156595D01*
X231426023Y15118500D01*
X231387928Y15080404D01*
X231349833Y15004214D01*
X231349833Y14813738D01*
X231387928Y14737547D01*
X231426023Y14699452D01*
X231502214Y14661357D01*
X231654595Y14661357D01*
X231730785Y14699452D01*
X231768880Y14737547D01*
X231806976Y14813738D01*
X229521261Y17697095D02*
X229254595Y18078047D01*
X229064119Y17697095D02*
X229064119Y18497095D01*
X229368880Y18497095D01*
X229445071Y18459000D01*
X229483166Y18420904D01*
X229521261Y18344714D01*
X229521261Y18230428D01*
X229483166Y18154238D01*
X229445071Y18116142D01*
X229368880Y18078047D01*
X229064119Y18078047D01*
X230283166Y17697095D02*
X229826023Y17697095D01*
X230054595Y17697095D02*
X230054595Y18497095D01*
X229978404Y18382809D01*
X229902214Y18306619D01*
X229826023Y18268523D01*
X231045071Y17697095D02*
X230587928Y17697095D01*
X230816500Y17697095D02*
X230816500Y18497095D01*
X230740309Y18382809D01*
X230664119Y18306619D01*
X230587928Y18268523D01*
X231502214Y18154238D02*
X231426023Y18192333D01*
X231387928Y18230428D01*
X231349833Y18306619D01*
X231349833Y18344714D01*
X231387928Y18420904D01*
X231426023Y18459000D01*
X231502214Y18497095D01*
X231654595Y18497095D01*
X231730785Y18459000D01*
X231768880Y18420904D01*
X231806976Y18344714D01*
X231806976Y18306619D01*
X231768880Y18230428D01*
X231730785Y18192333D01*
X231654595Y18154238D01*
X231502214Y18154238D01*
X231426023Y18116142D01*
X231387928Y18078047D01*
X231349833Y18001857D01*
X231349833Y17849476D01*
X231387928Y17773285D01*
X231426023Y17735190D01*
X231502214Y17697095D01*
X231654595Y17697095D01*
X231730785Y17735190D01*
X231768880Y17773285D01*
X231806976Y17849476D01*
X231806976Y18001857D01*
X231768880Y18078047D01*
X231730785Y18116142D01*
X231654595Y18154238D01*
X229521261Y20960595D02*
X229254595Y21341547D01*
X229064119Y20960595D02*
X229064119Y21760595D01*
X229368880Y21760595D01*
X229445071Y21722500D01*
X229483166Y21684404D01*
X229521261Y21608214D01*
X229521261Y21493928D01*
X229483166Y21417738D01*
X229445071Y21379642D01*
X229368880Y21341547D01*
X229064119Y21341547D01*
X230283166Y20960595D02*
X229826023Y20960595D01*
X230054595Y20960595D02*
X230054595Y21760595D01*
X229978404Y21646309D01*
X229902214Y21570119D01*
X229826023Y21532023D01*
X231045071Y20960595D02*
X230587928Y20960595D01*
X230816500Y20960595D02*
X230816500Y21760595D01*
X230740309Y21646309D01*
X230664119Y21570119D01*
X230587928Y21532023D01*
X231311738Y21760595D02*
X231845071Y21760595D01*
X231502214Y20960595D01*
X229521261Y24262595D02*
X229254595Y24643547D01*
X229064119Y24262595D02*
X229064119Y25062595D01*
X229368880Y25062595D01*
X229445071Y25024500D01*
X229483166Y24986404D01*
X229521261Y24910214D01*
X229521261Y24795928D01*
X229483166Y24719738D01*
X229445071Y24681642D01*
X229368880Y24643547D01*
X229064119Y24643547D01*
X230283166Y24262595D02*
X229826023Y24262595D01*
X230054595Y24262595D02*
X230054595Y25062595D01*
X229978404Y24948309D01*
X229902214Y24872119D01*
X229826023Y24834023D01*
X231045071Y24262595D02*
X230587928Y24262595D01*
X230816500Y24262595D02*
X230816500Y25062595D01*
X230740309Y24948309D01*
X230664119Y24872119D01*
X230587928Y24834023D01*
X231730785Y25062595D02*
X231578404Y25062595D01*
X231502214Y25024500D01*
X231464119Y24986404D01*
X231387928Y24872119D01*
X231349833Y24719738D01*
X231349833Y24414976D01*
X231387928Y24338785D01*
X231426023Y24300690D01*
X231502214Y24262595D01*
X231654595Y24262595D01*
X231730785Y24300690D01*
X231768880Y24338785D01*
X231806976Y24414976D01*
X231806976Y24605452D01*
X231768880Y24681642D01*
X231730785Y24719738D01*
X231654595Y24757833D01*
X231502214Y24757833D01*
X231426023Y24719738D01*
X231387928Y24681642D01*
X231349833Y24605452D01*
X229521261Y27564595D02*
X229254595Y27945547D01*
X229064119Y27564595D02*
X229064119Y28364595D01*
X229368880Y28364595D01*
X229445071Y28326500D01*
X229483166Y28288404D01*
X229521261Y28212214D01*
X229521261Y28097928D01*
X229483166Y28021738D01*
X229445071Y27983642D01*
X229368880Y27945547D01*
X229064119Y27945547D01*
X230283166Y27564595D02*
X229826023Y27564595D01*
X230054595Y27564595D02*
X230054595Y28364595D01*
X229978404Y28250309D01*
X229902214Y28174119D01*
X229826023Y28136023D01*
X230778404Y28364595D02*
X230854595Y28364595D01*
X230930785Y28326500D01*
X230968880Y28288404D01*
X231006976Y28212214D01*
X231045071Y28059833D01*
X231045071Y27869357D01*
X231006976Y27716976D01*
X230968880Y27640785D01*
X230930785Y27602690D01*
X230854595Y27564595D01*
X230778404Y27564595D01*
X230702214Y27602690D01*
X230664119Y27640785D01*
X230626023Y27716976D01*
X230587928Y27869357D01*
X230587928Y28059833D01*
X230626023Y28212214D01*
X230664119Y28288404D01*
X230702214Y28326500D01*
X230778404Y28364595D01*
X231768880Y28364595D02*
X231387928Y28364595D01*
X231349833Y27983642D01*
X231387928Y28021738D01*
X231464119Y28059833D01*
X231654595Y28059833D01*
X231730785Y28021738D01*
X231768880Y27983642D01*
X231806976Y27907452D01*
X231806976Y27716976D01*
X231768880Y27640785D01*
X231730785Y27602690D01*
X231654595Y27564595D01*
X231464119Y27564595D01*
X231387928Y27602690D01*
X231349833Y27640785D01*
X174790785Y37212238D02*
X174933642Y37164619D01*
X175171738Y37164619D01*
X175266976Y37212238D01*
X175314595Y37259857D01*
X175362214Y37355095D01*
X175362214Y37450333D01*
X175314595Y37545571D01*
X175266976Y37593190D01*
X175171738Y37640809D01*
X174981261Y37688428D01*
X174886023Y37736047D01*
X174838404Y37783666D01*
X174790785Y37878904D01*
X174790785Y37974142D01*
X174838404Y38069380D01*
X174886023Y38117000D01*
X174981261Y38164619D01*
X175219357Y38164619D01*
X175362214Y38117000D01*
X175695547Y38164619D02*
X175933642Y37164619D01*
X176124119Y37878904D01*
X176314595Y37164619D01*
X176552690Y38164619D01*
X177457452Y37164619D02*
X176886023Y37164619D01*
X177171738Y37164619D02*
X177171738Y38164619D01*
X177076500Y38021761D01*
X176981261Y37926523D01*
X176886023Y37878904D01*
X178076500Y38164619D02*
X178171738Y38164619D01*
X178266976Y38117000D01*
X178314595Y38069380D01*
X178362214Y37974142D01*
X178409833Y37783666D01*
X178409833Y37545571D01*
X178362214Y37355095D01*
X178314595Y37259857D01*
X178266976Y37212238D01*
X178171738Y37164619D01*
X178076500Y37164619D01*
X177981261Y37212238D01*
X177933642Y37259857D01*
X177886023Y37355095D01*
X177838404Y37545571D01*
X177838404Y37783666D01*
X177886023Y37974142D01*
X177933642Y38069380D01*
X177981261Y38117000D01*
X178076500Y38164619D01*
X178743166Y38164619D02*
X179362214Y38164619D01*
X179028880Y37783666D01*
X179171738Y37783666D01*
X179266976Y37736047D01*
X179314595Y37688428D01*
X179362214Y37593190D01*
X179362214Y37355095D01*
X179314595Y37259857D01*
X179266976Y37212238D01*
X179171738Y37164619D01*
X178886023Y37164619D01*
X178790785Y37212238D01*
X178743166Y37259857D01*
D14*
X183752095Y38078619D02*
X183752095Y39078619D01*
X184133047Y39078619D01*
X184228285Y39031000D01*
X184275904Y38983380D01*
X184323523Y38888142D01*
X184323523Y38745285D01*
X184275904Y38650047D01*
X184228285Y38602428D01*
X184133047Y38554809D01*
X183752095Y38554809D01*
X185323523Y38078619D02*
X184990190Y38554809D01*
X184752095Y38078619D02*
X184752095Y39078619D01*
X185133047Y39078619D01*
X185228285Y39031000D01*
X185275904Y38983380D01*
X185323523Y38888142D01*
X185323523Y38745285D01*
X185275904Y38650047D01*
X185228285Y38602428D01*
X185133047Y38554809D01*
X184752095Y38554809D01*
X186275904Y39031000D02*
X186180666Y39078619D01*
X186037809Y39078619D01*
X185894952Y39031000D01*
X185799714Y38935761D01*
X185752095Y38840523D01*
X185704476Y38650047D01*
X185704476Y38507190D01*
X185752095Y38316714D01*
X185799714Y38221476D01*
X185894952Y38126238D01*
X186037809Y38078619D01*
X186133047Y38078619D01*
X186275904Y38126238D01*
X186323523Y38173857D01*
X186323523Y38507190D01*
X186133047Y38507190D01*
D11*
X219391523Y26013619D02*
X219391523Y27013619D01*
X219629619Y27013619D01*
X219772476Y26966000D01*
X219867714Y26870761D01*
X219915333Y26775523D01*
X219962952Y26585047D01*
X219962952Y26442190D01*
X219915333Y26251714D01*
X219867714Y26156476D01*
X219772476Y26061238D01*
X219629619Y26013619D01*
X219391523Y26013619D01*
X220915333Y26013619D02*
X220343904Y26013619D01*
X220629619Y26013619D02*
X220629619Y27013619D01*
X220534380Y26870761D01*
X220439142Y26775523D01*
X220343904Y26727904D01*
X221534380Y27013619D02*
X221629619Y27013619D01*
X221724857Y26966000D01*
X221772476Y26918380D01*
X221820095Y26823142D01*
X221867714Y26632666D01*
X221867714Y26394571D01*
X221820095Y26204095D01*
X221772476Y26108857D01*
X221724857Y26061238D01*
X221629619Y26013619D01*
X221534380Y26013619D01*
X221439142Y26061238D01*
X221391523Y26108857D01*
X221343904Y26204095D01*
X221296285Y26394571D01*
X221296285Y26632666D01*
X221343904Y26823142D01*
X221391523Y26918380D01*
X221439142Y26966000D01*
X221534380Y27013619D01*
X222820095Y26013619D02*
X222248666Y26013619D01*
X222534380Y26013619D02*
X222534380Y27013619D01*
X222439142Y26870761D01*
X222343904Y26775523D01*
X222248666Y26727904D01*
X141032452Y26648619D02*
X140699119Y27124809D01*
X140461023Y26648619D02*
X140461023Y27648619D01*
X140841976Y27648619D01*
X140937214Y27601000D01*
X140984833Y27553380D01*
X141032452Y27458142D01*
X141032452Y27315285D01*
X140984833Y27220047D01*
X140937214Y27172428D01*
X140841976Y27124809D01*
X140461023Y27124809D01*
X141984833Y26648619D02*
X141413404Y26648619D01*
X141699119Y26648619D02*
X141699119Y27648619D01*
X141603880Y27505761D01*
X141508642Y27410523D01*
X141413404Y27362904D01*
X142603880Y27648619D02*
X142699119Y27648619D01*
X142794357Y27601000D01*
X142841976Y27553380D01*
X142889595Y27458142D01*
X142937214Y27267666D01*
X142937214Y27029571D01*
X142889595Y26839095D01*
X142841976Y26743857D01*
X142794357Y26696238D01*
X142699119Y26648619D01*
X142603880Y26648619D01*
X142508642Y26696238D01*
X142461023Y26743857D01*
X142413404Y26839095D01*
X142365785Y27029571D01*
X142365785Y27267666D01*
X142413404Y27458142D01*
X142461023Y27553380D01*
X142508642Y27601000D01*
X142603880Y27648619D01*
X143270547Y27648619D02*
X143937214Y27648619D01*
X143508642Y26648619D01*
X138682880Y20837285D02*
X139397166Y20837285D01*
X139540023Y20789666D01*
X139635261Y20694428D01*
X139682880Y20551571D01*
X139682880Y20456333D01*
X139682880Y21837285D02*
X139682880Y21265857D01*
X139682880Y21551571D02*
X138682880Y21551571D01*
X138825738Y21456333D01*
X138920976Y21361095D01*
X138968595Y21265857D01*
X138682880Y22456333D02*
X138682880Y22551571D01*
X138730500Y22646809D01*
X138778119Y22694428D01*
X138873357Y22742047D01*
X139063833Y22789666D01*
X139301928Y22789666D01*
X139492404Y22742047D01*
X139587642Y22694428D01*
X139635261Y22646809D01*
X139682880Y22551571D01*
X139682880Y22456333D01*
X139635261Y22361095D01*
X139587642Y22313476D01*
X139492404Y22265857D01*
X139301928Y22218238D01*
X139063833Y22218238D01*
X138873357Y22265857D01*
X138778119Y22313476D01*
X138730500Y22361095D01*
X138682880Y22456333D01*
X139682880Y23742047D02*
X139682880Y23170619D01*
X139682880Y23456333D02*
X138682880Y23456333D01*
X138825738Y23361095D01*
X138920976Y23265857D01*
X138968595Y23170619D01*
X198666714Y890119D02*
X198666714Y80595D01*
X198714333Y-14642D01*
X198761952Y-62261D01*
X198857190Y-109880D01*
X199047666Y-109880D01*
X199142904Y-62261D01*
X199190523Y-14642D01*
X199238142Y80595D01*
X199238142Y890119D01*
X200238142Y-109880D02*
X199666714Y-109880D01*
X199952428Y-109880D02*
X199952428Y890119D01*
X199857190Y747261D01*
X199761952Y652023D01*
X199666714Y604404D01*
X200857190Y890119D02*
X200952428Y890119D01*
X201047666Y842500D01*
X201095285Y794880D01*
X201142904Y699642D01*
X201190523Y509166D01*
X201190523Y271071D01*
X201142904Y80595D01*
X201095285Y-14642D01*
X201047666Y-62261D01*
X200952428Y-109880D01*
X200857190Y-109880D01*
X200761952Y-62261D01*
X200714333Y-14642D01*
X200666714Y80595D01*
X200619095Y271071D01*
X200619095Y509166D01*
X200666714Y699642D01*
X200714333Y794880D01*
X200761952Y842500D01*
X200857190Y890119D01*
X201523857Y890119D02*
X202142904Y890119D01*
X201809571Y509166D01*
X201952428Y509166D01*
X202047666Y461547D01*
X202095285Y413928D01*
X202142904Y318690D01*
X202142904Y80595D01*
X202095285Y-14642D01*
X202047666Y-62261D01*
X201952428Y-109880D01*
X201666714Y-109880D01*
X201571476Y-62261D01*
X201523857Y-14642D01*
X219455023Y-427380D02*
X219455023Y572619D01*
X219693119Y572619D01*
X219835976Y525000D01*
X219931214Y429761D01*
X219978833Y334523D01*
X220026452Y144047D01*
X220026452Y1190D01*
X219978833Y-189285D01*
X219931214Y-284523D01*
X219835976Y-379761D01*
X219693119Y-427380D01*
X219455023Y-427380D01*
X220978833Y-427380D02*
X220407404Y-427380D01*
X220693119Y-427380D02*
X220693119Y572619D01*
X220597880Y429761D01*
X220502642Y334523D01*
X220407404Y286904D01*
X221931214Y-427380D02*
X221359785Y-427380D01*
X221645500Y-427380D02*
X221645500Y572619D01*
X221550261Y429761D01*
X221455023Y334523D01*
X221359785Y286904D01*
X222264547Y572619D02*
X222883595Y572619D01*
X222550261Y191666D01*
X222693119Y191666D01*
X222788357Y144047D01*
X222835976Y96428D01*
X222883595Y1190D01*
X222883595Y-236904D01*
X222835976Y-332142D01*
X222788357Y-379761D01*
X222693119Y-427380D01*
X222407404Y-427380D01*
X222312166Y-379761D01*
X222264547Y-332142D01*
X219455023Y2874619D02*
X219455023Y3874619D01*
X219693119Y3874619D01*
X219835976Y3827000D01*
X219931214Y3731761D01*
X219978833Y3636523D01*
X220026452Y3446047D01*
X220026452Y3303190D01*
X219978833Y3112714D01*
X219931214Y3017476D01*
X219835976Y2922238D01*
X219693119Y2874619D01*
X219455023Y2874619D01*
X220978833Y2874619D02*
X220407404Y2874619D01*
X220693119Y2874619D02*
X220693119Y3874619D01*
X220597880Y3731761D01*
X220502642Y3636523D01*
X220407404Y3588904D01*
X221597880Y3874619D02*
X221693119Y3874619D01*
X221788357Y3827000D01*
X221835976Y3779380D01*
X221883595Y3684142D01*
X221931214Y3493666D01*
X221931214Y3255571D01*
X221883595Y3065095D01*
X221835976Y2969857D01*
X221788357Y2922238D01*
X221693119Y2874619D01*
X221597880Y2874619D01*
X221502642Y2922238D01*
X221455023Y2969857D01*
X221407404Y3065095D01*
X221359785Y3255571D01*
X221359785Y3493666D01*
X221407404Y3684142D01*
X221455023Y3779380D01*
X221502642Y3827000D01*
X221597880Y3874619D01*
X222835976Y3874619D02*
X222359785Y3874619D01*
X222312166Y3398428D01*
X222359785Y3446047D01*
X222455023Y3493666D01*
X222693119Y3493666D01*
X222788357Y3446047D01*
X222835976Y3398428D01*
X222883595Y3303190D01*
X222883595Y3065095D01*
X222835976Y2969857D01*
X222788357Y2922238D01*
X222693119Y2874619D01*
X222455023Y2874619D01*
X222359785Y2922238D01*
X222312166Y2969857D01*
X219391523Y6176619D02*
X219391523Y7176619D01*
X219629619Y7176619D01*
X219772476Y7129000D01*
X219867714Y7033761D01*
X219915333Y6938523D01*
X219962952Y6748047D01*
X219962952Y6605190D01*
X219915333Y6414714D01*
X219867714Y6319476D01*
X219772476Y6224238D01*
X219629619Y6176619D01*
X219391523Y6176619D01*
X220915333Y6176619D02*
X220343904Y6176619D01*
X220629619Y6176619D02*
X220629619Y7176619D01*
X220534380Y7033761D01*
X220439142Y6938523D01*
X220343904Y6890904D01*
X221867714Y6176619D02*
X221296285Y6176619D01*
X221582000Y6176619D02*
X221582000Y7176619D01*
X221486761Y7033761D01*
X221391523Y6938523D01*
X221296285Y6890904D01*
X222248666Y7081380D02*
X222296285Y7129000D01*
X222391523Y7176619D01*
X222629619Y7176619D01*
X222724857Y7129000D01*
X222772476Y7081380D01*
X222820095Y6986142D01*
X222820095Y6890904D01*
X222772476Y6748047D01*
X222201047Y6176619D01*
X222820095Y6176619D01*
X219391523Y9440119D02*
X219391523Y10440119D01*
X219629619Y10440119D01*
X219772476Y10392500D01*
X219867714Y10297261D01*
X219915333Y10202023D01*
X219962952Y10011547D01*
X219962952Y9868690D01*
X219915333Y9678214D01*
X219867714Y9582976D01*
X219772476Y9487738D01*
X219629619Y9440119D01*
X219391523Y9440119D01*
X220915333Y9440119D02*
X220343904Y9440119D01*
X220629619Y9440119D02*
X220629619Y10440119D01*
X220534380Y10297261D01*
X220439142Y10202023D01*
X220343904Y10154404D01*
X221534380Y10440119D02*
X221629619Y10440119D01*
X221724857Y10392500D01*
X221772476Y10344880D01*
X221820095Y10249642D01*
X221867714Y10059166D01*
X221867714Y9821071D01*
X221820095Y9630595D01*
X221772476Y9535357D01*
X221724857Y9487738D01*
X221629619Y9440119D01*
X221534380Y9440119D01*
X221439142Y9487738D01*
X221391523Y9535357D01*
X221343904Y9630595D01*
X221296285Y9821071D01*
X221296285Y10059166D01*
X221343904Y10249642D01*
X221391523Y10344880D01*
X221439142Y10392500D01*
X221534380Y10440119D01*
X222724857Y10106785D02*
X222724857Y9440119D01*
X222486761Y10487738D02*
X222248666Y9773452D01*
X222867714Y9773452D01*
X155700761Y24053285D02*
X155748380Y24196142D01*
X155748380Y24434238D01*
X155700761Y24529476D01*
X155653142Y24577095D01*
X155557904Y24624714D01*
X155462666Y24624714D01*
X155367428Y24577095D01*
X155319809Y24529476D01*
X155272190Y24434238D01*
X155224571Y24243761D01*
X155176952Y24148523D01*
X155129333Y24100904D01*
X155034095Y24053285D01*
X154938857Y24053285D01*
X154843619Y24100904D01*
X154796000Y24148523D01*
X154748380Y24243761D01*
X154748380Y24481857D01*
X154796000Y24624714D01*
X154748380Y24958047D02*
X155748380Y25196142D01*
X155034095Y25386619D01*
X155748380Y25577095D01*
X154748380Y25815190D01*
X155748380Y26719952D02*
X155748380Y26148523D01*
X155748380Y26434238D02*
X154748380Y26434238D01*
X154891238Y26339000D01*
X154986476Y26243761D01*
X155034095Y26148523D01*
X154748380Y27339000D02*
X154748380Y27434238D01*
X154796000Y27529476D01*
X154843619Y27577095D01*
X154938857Y27624714D01*
X155129333Y27672333D01*
X155367428Y27672333D01*
X155557904Y27624714D01*
X155653142Y27577095D01*
X155700761Y27529476D01*
X155748380Y27434238D01*
X155748380Y27339000D01*
X155700761Y27243761D01*
X155653142Y27196142D01*
X155557904Y27148523D01*
X155367428Y27100904D01*
X155129333Y27100904D01*
X154938857Y27148523D01*
X154843619Y27196142D01*
X154796000Y27243761D01*
X154748380Y27339000D01*
X155748380Y28624714D02*
X155748380Y28053285D01*
X155748380Y28339000D02*
X154748380Y28339000D01*
X154891238Y28243761D01*
X154986476Y28148523D01*
X155034095Y28053285D01*
X219582023Y12780619D02*
X219582023Y13780619D01*
X219820119Y13780619D01*
X219962976Y13733000D01*
X220058214Y13637761D01*
X220105833Y13542523D01*
X220153452Y13352047D01*
X220153452Y13209190D01*
X220105833Y13018714D01*
X220058214Y12923476D01*
X219962976Y12828238D01*
X219820119Y12780619D01*
X219582023Y12780619D01*
X221105833Y12780619D02*
X220534404Y12780619D01*
X220820119Y12780619D02*
X220820119Y13780619D01*
X220724880Y13637761D01*
X220629642Y13542523D01*
X220534404Y13494904D01*
X222058214Y12780619D02*
X221486785Y12780619D01*
X221772500Y12780619D02*
X221772500Y13780619D01*
X221677261Y13637761D01*
X221582023Y13542523D01*
X221486785Y13494904D01*
X223010595Y12780619D02*
X222439166Y12780619D01*
X222724880Y12780619D02*
X222724880Y13780619D01*
X222629642Y13637761D01*
X222534404Y13542523D01*
X222439166Y13494904D01*
X219455023Y16107619D02*
X219455023Y17107619D01*
X219693119Y17107619D01*
X219835976Y17060000D01*
X219931214Y16964761D01*
X219978833Y16869523D01*
X220026452Y16679047D01*
X220026452Y16536190D01*
X219978833Y16345714D01*
X219931214Y16250476D01*
X219835976Y16155238D01*
X219693119Y16107619D01*
X219455023Y16107619D01*
X220978833Y16107619D02*
X220407404Y16107619D01*
X220693119Y16107619D02*
X220693119Y17107619D01*
X220597880Y16964761D01*
X220502642Y16869523D01*
X220407404Y16821904D01*
X221597880Y17107619D02*
X221693119Y17107619D01*
X221788357Y17060000D01*
X221835976Y17012380D01*
X221883595Y16917142D01*
X221931214Y16726666D01*
X221931214Y16488571D01*
X221883595Y16298095D01*
X221835976Y16202857D01*
X221788357Y16155238D01*
X221693119Y16107619D01*
X221597880Y16107619D01*
X221502642Y16155238D01*
X221455023Y16202857D01*
X221407404Y16298095D01*
X221359785Y16488571D01*
X221359785Y16726666D01*
X221407404Y16917142D01*
X221455023Y17012380D01*
X221502642Y17060000D01*
X221597880Y17107619D01*
X222264547Y17107619D02*
X222883595Y17107619D01*
X222550261Y16726666D01*
X222693119Y16726666D01*
X222788357Y16679047D01*
X222835976Y16631428D01*
X222883595Y16536190D01*
X222883595Y16298095D01*
X222835976Y16202857D01*
X222788357Y16155238D01*
X222693119Y16107619D01*
X222407404Y16107619D01*
X222312166Y16155238D01*
X222264547Y16202857D01*
X219391523Y19384619D02*
X219391523Y20384619D01*
X219629619Y20384619D01*
X219772476Y20337000D01*
X219867714Y20241761D01*
X219915333Y20146523D01*
X219962952Y19956047D01*
X219962952Y19813190D01*
X219915333Y19622714D01*
X219867714Y19527476D01*
X219772476Y19432238D01*
X219629619Y19384619D01*
X219391523Y19384619D01*
X220915333Y19384619D02*
X220343904Y19384619D01*
X220629619Y19384619D02*
X220629619Y20384619D01*
X220534380Y20241761D01*
X220439142Y20146523D01*
X220343904Y20098904D01*
X221867714Y19384619D02*
X221296285Y19384619D01*
X221582000Y19384619D02*
X221582000Y20384619D01*
X221486761Y20241761D01*
X221391523Y20146523D01*
X221296285Y20098904D01*
X222486761Y20384619D02*
X222582000Y20384619D01*
X222677238Y20337000D01*
X222724857Y20289380D01*
X222772476Y20194142D01*
X222820095Y20003666D01*
X222820095Y19765571D01*
X222772476Y19575095D01*
X222724857Y19479857D01*
X222677238Y19432238D01*
X222582000Y19384619D01*
X222486761Y19384619D01*
X222391523Y19432238D01*
X222343904Y19479857D01*
X222296285Y19575095D01*
X222248666Y19765571D01*
X222248666Y20003666D01*
X222296285Y20194142D01*
X222343904Y20289380D01*
X222391523Y20337000D01*
X222486761Y20384619D01*
X219391523Y22711619D02*
X219391523Y23711619D01*
X219629619Y23711619D01*
X219772476Y23664000D01*
X219867714Y23568761D01*
X219915333Y23473523D01*
X219962952Y23283047D01*
X219962952Y23140190D01*
X219915333Y22949714D01*
X219867714Y22854476D01*
X219772476Y22759238D01*
X219629619Y22711619D01*
X219391523Y22711619D01*
X220915333Y22711619D02*
X220343904Y22711619D01*
X220629619Y22711619D02*
X220629619Y23711619D01*
X220534380Y23568761D01*
X220439142Y23473523D01*
X220343904Y23425904D01*
X221534380Y23711619D02*
X221629619Y23711619D01*
X221724857Y23664000D01*
X221772476Y23616380D01*
X221820095Y23521142D01*
X221867714Y23330666D01*
X221867714Y23092571D01*
X221820095Y22902095D01*
X221772476Y22806857D01*
X221724857Y22759238D01*
X221629619Y22711619D01*
X221534380Y22711619D01*
X221439142Y22759238D01*
X221391523Y22806857D01*
X221343904Y22902095D01*
X221296285Y23092571D01*
X221296285Y23330666D01*
X221343904Y23521142D01*
X221391523Y23616380D01*
X221439142Y23664000D01*
X221534380Y23711619D01*
X222248666Y23616380D02*
X222296285Y23664000D01*
X222391523Y23711619D01*
X222629619Y23711619D01*
X222724857Y23664000D01*
X222772476Y23616380D01*
X222820095Y23521142D01*
X222820095Y23425904D01*
X222772476Y23283047D01*
X222201047Y22711619D01*
X222820095Y22711619D01*
X140992785Y29306428D02*
X140659452Y29306428D01*
X140659452Y28782619D02*
X140659452Y29782619D01*
X141135642Y29782619D01*
X142040404Y28782619D02*
X141468976Y28782619D01*
X141754690Y28782619D02*
X141754690Y29782619D01*
X141659452Y29639761D01*
X141564214Y29544523D01*
X141468976Y29496904D01*
X142659452Y29782619D02*
X142754690Y29782619D01*
X142849928Y29735000D01*
X142897547Y29687380D01*
X142945166Y29592142D01*
X142992785Y29401666D01*
X142992785Y29163571D01*
X142945166Y28973095D01*
X142897547Y28877857D01*
X142849928Y28830238D01*
X142754690Y28782619D01*
X142659452Y28782619D01*
X142564214Y28830238D01*
X142516595Y28877857D01*
X142468976Y28973095D01*
X142421357Y29163571D01*
X142421357Y29401666D01*
X142468976Y29592142D01*
X142516595Y29687380D01*
X142564214Y29735000D01*
X142659452Y29782619D01*
X143945166Y28782619D02*
X143373738Y28782619D01*
X143659452Y28782619D02*
X143659452Y29782619D01*
X143564214Y29639761D01*
X143468976Y29544523D01*
X143373738Y29496904D01*
M02*
