G04 #@! TF.GenerationSoftware,KiCad,Pcbnew,5.1.10-88a1d61d58~90~ubuntu20.04.1*
G04 #@! TF.CreationDate,2022-11-29T16:27:44+00:00*
G04 #@! TF.ProjectId,SIM108,53494d31-3038-42e6-9b69-6361645f7063,221101*
G04 #@! TF.SameCoordinates,Original*
G04 #@! TF.FileFunction,Soldermask,Bot*
G04 #@! TF.FilePolarity,Negative*
%FSLAX46Y46*%
G04 Gerber Fmt 4.6, Leading zero omitted, Abs format (unit mm)*
G04 Created by KiCad (PCBNEW 5.1.10-88a1d61d58~90~ubuntu20.04.1) date 2022-11-29 16:27:44*
%MOMM*%
%LPD*%
G01*
G04 APERTURE LIST*
%ADD10C,1.400000*%
%ADD11C,1.524000*%
%ADD12R,2.000000X2.000000*%
%ADD13C,2.000000*%
%ADD14C,1.600000*%
%ADD15R,1.600000X1.600000*%
%ADD16C,3.600000*%
%ADD17C,5.600000*%
%ADD18R,1.500000X1.500000*%
%ADD19O,1.600000X1.600000*%
%ADD20R,1.500000X1.050000*%
%ADD21O,1.500000X1.050000*%
%ADD22C,1.800000*%
%ADD23R,1.800000X1.800000*%
%ADD24O,2.000000X2.000000*%
%ADD25O,1.800000X1.800000*%
%ADD26O,2.400000X1.600000*%
%ADD27R,2.400000X1.600000*%
%ADD28O,1.600000X2.400000*%
%ADD29R,1.600000X2.400000*%
%ADD30O,1.700000X1.700000*%
%ADD31R,1.700000X1.700000*%
G04 APERTURE END LIST*
D10*
X38608200Y-34899600D03*
X38608200Y-32359600D03*
D11*
X57709000Y-29820000D03*
X62709000Y-29820000D03*
X57709000Y-24820000D03*
X62709000Y-24820000D03*
D12*
X49657000Y-101067000D03*
D13*
X54737000Y-101067000D03*
X59817000Y-101067000D03*
X64897000Y-101067000D03*
X69977000Y-101067000D03*
X75057000Y-101067000D03*
X80137000Y-101067000D03*
X85217000Y-101067000D03*
X90297000Y-101067000D03*
X59817000Y-96067000D03*
X90297000Y-96067000D03*
D12*
X49657000Y-96067000D03*
D13*
X80137000Y-96067000D03*
X85217000Y-96067000D03*
X69977000Y-96067000D03*
X54737000Y-96067000D03*
X75057000Y-96067000D03*
X64897000Y-96067000D03*
G36*
G01*
X33452000Y-24994000D02*
X33452000Y-24232000D01*
G75*
G02*
X33833000Y-23851000I381000J0D01*
G01*
X34595000Y-23851000D01*
G75*
G02*
X34976000Y-24232000I0J-381000D01*
G01*
X34976000Y-24994000D01*
G75*
G02*
X34595000Y-25375000I-381000J0D01*
G01*
X33833000Y-25375000D01*
G75*
G02*
X33452000Y-24994000I0J381000D01*
G01*
G37*
D11*
X36754000Y-24613000D03*
X39294000Y-24613000D03*
X44374000Y-24613000D03*
X46914000Y-24613000D03*
X49454000Y-24613000D03*
X51994000Y-24613000D03*
D14*
X68123000Y-24327000D03*
D15*
X68123000Y-22327000D03*
D16*
X116002500Y-97994000D03*
D17*
X116002500Y-97994000D03*
X24002500Y-97994000D03*
D16*
X24002500Y-97994000D03*
D18*
X57721500Y-27343500D03*
X62674500Y-27343500D03*
D19*
X115125500Y-58649000D03*
D14*
X115125500Y-56109000D03*
D19*
X111823500Y-58649000D03*
D14*
X111823500Y-56109000D03*
D19*
X108521500Y-58649000D03*
D14*
X108521500Y-56109000D03*
D19*
X105219500Y-58649000D03*
D14*
X105219500Y-56109000D03*
D19*
X101917500Y-58649000D03*
D14*
X101917500Y-56109000D03*
D19*
X98615500Y-58649000D03*
D14*
X98615500Y-56109000D03*
D19*
X95313500Y-58649000D03*
D14*
X95313500Y-56109000D03*
D19*
X92011500Y-58649000D03*
D14*
X92011500Y-56109000D03*
D20*
X83947000Y-84684000D03*
D21*
X83947000Y-87224000D03*
X83947000Y-85954000D03*
D19*
X43993000Y-38202000D03*
D14*
X43993000Y-40742000D03*
X67945000Y-55379000D03*
D15*
X67945000Y-57379000D03*
D19*
X118364000Y-58649000D03*
D14*
X118364000Y-56109000D03*
D22*
X118364000Y-50648000D03*
D23*
X118364000Y-53188000D03*
D19*
X80137000Y-73635000D03*
X72517000Y-76175000D03*
X80137000Y-76175000D03*
D15*
X72517000Y-73635000D03*
D19*
X100457000Y-73635000D03*
X92837000Y-76175000D03*
X100457000Y-76175000D03*
D15*
X92837000Y-73635000D03*
D19*
X90297000Y-73635000D03*
X82677000Y-76175000D03*
X90297000Y-76175000D03*
D15*
X82677000Y-73635000D03*
D19*
X69977000Y-73635000D03*
X62357000Y-76175000D03*
X69977000Y-76175000D03*
D15*
X62357000Y-73635000D03*
D19*
X59817000Y-73635000D03*
X52197000Y-76175000D03*
X59817000Y-76175000D03*
D15*
X52197000Y-73635000D03*
D19*
X49657000Y-73635000D03*
X42037000Y-76175000D03*
X49657000Y-76175000D03*
D15*
X42037000Y-73635000D03*
D19*
X39497000Y-73635000D03*
X31877000Y-76175000D03*
X39497000Y-76175000D03*
D15*
X31877000Y-73635000D03*
D19*
X29337000Y-73635000D03*
X21717000Y-76175000D03*
X29337000Y-76175000D03*
D15*
X21717000Y-73635000D03*
D19*
X94107000Y-79096000D03*
D14*
X94107000Y-81636000D03*
D19*
X99060000Y-79096000D03*
D14*
X99060000Y-81636000D03*
D19*
X83947000Y-79096000D03*
D14*
X83947000Y-81636000D03*
D19*
X88900000Y-79096000D03*
D14*
X88900000Y-81636000D03*
D19*
X73787000Y-79096000D03*
D14*
X73787000Y-81636000D03*
D19*
X78740000Y-79096000D03*
D14*
X78740000Y-81636000D03*
D19*
X63627000Y-79096000D03*
D14*
X63627000Y-81636000D03*
D19*
X68580000Y-79096000D03*
D14*
X68580000Y-81636000D03*
D19*
X53467000Y-79096000D03*
D14*
X53467000Y-81636000D03*
D19*
X58420000Y-79096000D03*
D14*
X58420000Y-81636000D03*
D19*
X43307000Y-79096000D03*
D14*
X43307000Y-81636000D03*
D19*
X48260000Y-79096000D03*
D14*
X48260000Y-81636000D03*
D19*
X32893000Y-79096000D03*
D14*
X32893000Y-81636000D03*
D19*
X37973000Y-79096000D03*
D14*
X37973000Y-81636000D03*
D19*
X22860000Y-79096000D03*
D14*
X22860000Y-81636000D03*
D19*
X27813000Y-79096000D03*
D14*
X27813000Y-81636000D03*
D19*
X30480000Y-32995000D03*
D14*
X30480000Y-40615000D03*
D20*
X98933000Y-84684000D03*
D21*
X98933000Y-87224000D03*
X98933000Y-85954000D03*
D20*
X94107000Y-84684000D03*
D21*
X94107000Y-87224000D03*
X94107000Y-85954000D03*
D20*
X88900000Y-84684000D03*
D21*
X88900000Y-87224000D03*
X88900000Y-85954000D03*
D20*
X78740000Y-84684000D03*
D21*
X78740000Y-87224000D03*
X78740000Y-85954000D03*
D20*
X73787000Y-84684000D03*
D21*
X73787000Y-87224000D03*
X73787000Y-85954000D03*
D20*
X68580000Y-84684000D03*
D21*
X68580000Y-87224000D03*
X68580000Y-85954000D03*
D20*
X63627000Y-84684000D03*
D21*
X63627000Y-87224000D03*
X63627000Y-85954000D03*
D20*
X58420000Y-84684000D03*
D21*
X58420000Y-87224000D03*
X58420000Y-85954000D03*
D20*
X53467000Y-84684000D03*
D21*
X53467000Y-87224000D03*
X53467000Y-85954000D03*
D20*
X48260000Y-84684000D03*
D21*
X48260000Y-87224000D03*
X48260000Y-85954000D03*
D20*
X43307000Y-84684000D03*
D21*
X43307000Y-87224000D03*
X43307000Y-85954000D03*
D20*
X37973000Y-84684000D03*
D21*
X37973000Y-87224000D03*
X37973000Y-85954000D03*
D20*
X33020000Y-84684000D03*
D21*
X33020000Y-87224000D03*
X33020000Y-85954000D03*
D20*
X27813000Y-84684000D03*
D21*
X27813000Y-87224000D03*
X27813000Y-85954000D03*
D20*
X22860000Y-84684000D03*
D21*
X22860000Y-87224000D03*
X22860000Y-85954000D03*
D24*
X24130000Y-42520000D03*
X24130000Y-39980000D03*
X24130000Y-37440000D03*
X24130000Y-34900000D03*
D12*
X24130000Y-32360000D03*
D25*
X94107000Y-90399000D03*
D23*
X96647000Y-90399000D03*
D25*
X83947000Y-90399000D03*
D23*
X86487000Y-90399000D03*
D25*
X73787000Y-90399000D03*
D23*
X76327000Y-90399000D03*
D25*
X63627000Y-90399000D03*
D23*
X66167000Y-90399000D03*
D25*
X53467000Y-90399000D03*
D23*
X56007000Y-90399000D03*
D25*
X43307000Y-90399000D03*
D23*
X45847000Y-90399000D03*
D25*
X33020000Y-90399000D03*
D23*
X35560000Y-90399000D03*
D25*
X22860000Y-90399000D03*
D23*
X25400000Y-90399000D03*
D14*
X29515000Y-45663000D03*
D15*
X29515000Y-43663000D03*
D14*
X92761000Y-40456000D03*
D15*
X92761000Y-38456000D03*
D26*
X72441000Y-57379000D03*
X87681000Y-24359000D03*
X72441000Y-54839000D03*
X87681000Y-26899000D03*
X72441000Y-52299000D03*
X87681000Y-29439000D03*
X72441000Y-49759000D03*
X87681000Y-31979000D03*
X72441000Y-47219000D03*
X87681000Y-34519000D03*
X72441000Y-44679000D03*
X87681000Y-37059000D03*
X72441000Y-42139000D03*
X87681000Y-39599000D03*
X72441000Y-39599000D03*
X87681000Y-42139000D03*
X72441000Y-37059000D03*
X87681000Y-44679000D03*
X72441000Y-34519000D03*
X87681000Y-47219000D03*
X72441000Y-31979000D03*
X87681000Y-49759000D03*
X72441000Y-29439000D03*
X87681000Y-52299000D03*
X72441000Y-26899000D03*
X87681000Y-54839000D03*
X72441000Y-24359000D03*
D27*
X87681000Y-57379000D03*
D19*
X93523000Y-24359000D03*
X111303000Y-31979000D03*
X96063000Y-24359000D03*
X108763000Y-31979000D03*
X98603000Y-24359000D03*
X106223000Y-31979000D03*
X101143000Y-24359000D03*
X103683000Y-31979000D03*
X103683000Y-24359000D03*
X101143000Y-31979000D03*
X106223000Y-24359000D03*
X98603000Y-31979000D03*
X108763000Y-24359000D03*
X96063000Y-31979000D03*
X111303000Y-24359000D03*
D15*
X93523000Y-31979000D03*
D22*
X115113000Y-50648000D03*
D23*
X115113000Y-53188000D03*
D22*
X111811000Y-50648000D03*
D23*
X111811000Y-53188000D03*
D28*
X97206000Y-38456000D03*
X114986000Y-46076000D03*
X99746000Y-38456000D03*
X112446000Y-46076000D03*
X102286000Y-38456000D03*
X109906000Y-46076000D03*
X104826000Y-38456000D03*
X107366000Y-46076000D03*
X107366000Y-38456000D03*
X104826000Y-46076000D03*
X109906000Y-38456000D03*
X102286000Y-46076000D03*
X112446000Y-38456000D03*
X99746000Y-46076000D03*
X114986000Y-38456000D03*
D29*
X97206000Y-46076000D03*
D22*
X108509000Y-50648000D03*
D23*
X108509000Y-53188000D03*
D22*
X105207000Y-50648000D03*
D23*
X105207000Y-53188000D03*
D26*
X41199000Y-32360000D03*
X33579000Y-34900000D03*
X41199000Y-34900000D03*
D27*
X33579000Y-32360000D03*
D16*
X23995000Y-26999000D03*
D17*
X23995000Y-26999000D03*
X115995000Y-26999000D03*
D16*
X115995000Y-26999000D03*
D22*
X101905000Y-50648000D03*
D23*
X101905000Y-53188000D03*
D22*
X98603000Y-50648000D03*
D23*
X98603000Y-53188000D03*
D22*
X95301000Y-50648000D03*
D23*
X95301000Y-53188000D03*
D22*
X91999000Y-50648000D03*
D23*
X91999000Y-53188000D03*
D19*
X41199000Y-38202000D03*
X33579000Y-45822000D03*
X41199000Y-40742000D03*
X33579000Y-43282000D03*
X41199000Y-43282000D03*
X33579000Y-40742000D03*
X41199000Y-45822000D03*
D15*
X33579000Y-38202000D03*
D30*
X25324000Y-22098000D03*
D31*
X22784000Y-22098000D03*
D13*
X29525000Y-22200000D03*
X29515000Y-27280000D03*
M02*
