G04 #@! TF.GenerationSoftware,KiCad,Pcbnew,(5.1.9-0-10_14)*
G04 #@! TF.CreationDate,2023-02-04T12:05:34+01:00*
G04 #@! TF.ProjectId,PDJRSIM,53494d31-3038-42e6-9b69-6361645f7063,221101*
G04 #@! TF.SameCoordinates,Original*
G04 #@! TF.FileFunction,Soldermask,Top*
G04 #@! TF.FilePolarity,Negative*
%FSLAX46Y46*%
G04 Gerber Fmt 4.6, Leading zero omitted, Abs format (unit mm)*
G04 Created by KiCad (PCBNEW (5.1.9-0-10_14)) date 2023-02-04 12:05:34*
%MOMM*%
%LPD*%
G01*
G04 APERTURE LIST*
%ADD10O,1.500000X3.000000*%
%ADD11R,1.300000X0.800000*%
%ADD12R,0.500000X0.800000*%
%ADD13R,0.900000X0.900000*%
%ADD14C,3.600000*%
%ADD15C,5.600000*%
%ADD16R,0.800000X0.900000*%
%ADD17O,1.600000X1.600000*%
%ADD18R,1.600000X1.600000*%
%ADD19R,1.500000X1.500000*%
%ADD20C,1.524000*%
%ADD21C,1.600000*%
%ADD22C,1.700000*%
%ADD23C,1.800000*%
%ADD24R,1.800000X1.800000*%
%ADD25O,2.000000X2.000000*%
%ADD26R,2.000000X2.000000*%
%ADD27O,2.400000X1.600000*%
%ADD28R,2.400000X1.600000*%
%ADD29C,2.000000*%
G04 APERTURE END LIST*
D10*
X213987100Y-40589200D03*
X210487100Y-40589200D03*
X206987100Y-40589200D03*
X203487100Y-40589200D03*
X199987100Y-40589200D03*
X196487100Y-40589200D03*
X192987100Y-40589200D03*
X189487100Y-40589200D03*
X185987100Y-40589200D03*
G36*
G01*
X210980400Y-35762250D02*
X210980400Y-34849750D01*
G75*
G02*
X211224150Y-34606000I243750J0D01*
G01*
X211711650Y-34606000D01*
G75*
G02*
X211955400Y-34849750I0J-243750D01*
G01*
X211955400Y-35762250D01*
G75*
G02*
X211711650Y-36006000I-243750J0D01*
G01*
X211224150Y-36006000D01*
G75*
G02*
X210980400Y-35762250I0J243750D01*
G01*
G37*
G36*
G01*
X209105400Y-35762250D02*
X209105400Y-34849750D01*
G75*
G02*
X209349150Y-34606000I243750J0D01*
G01*
X209836650Y-34606000D01*
G75*
G02*
X210080400Y-34849750I0J-243750D01*
G01*
X210080400Y-35762250D01*
G75*
G02*
X209836650Y-36006000I-243750J0D01*
G01*
X209349150Y-36006000D01*
G75*
G02*
X209105400Y-35762250I0J243750D01*
G01*
G37*
G36*
G01*
X207498300Y-35762250D02*
X207498300Y-34849750D01*
G75*
G02*
X207742050Y-34606000I243750J0D01*
G01*
X208229550Y-34606000D01*
G75*
G02*
X208473300Y-34849750I0J-243750D01*
G01*
X208473300Y-35762250D01*
G75*
G02*
X208229550Y-36006000I-243750J0D01*
G01*
X207742050Y-36006000D01*
G75*
G02*
X207498300Y-35762250I0J243750D01*
G01*
G37*
G36*
G01*
X205623300Y-35762250D02*
X205623300Y-34849750D01*
G75*
G02*
X205867050Y-34606000I243750J0D01*
G01*
X206354550Y-34606000D01*
G75*
G02*
X206598300Y-34849750I0J-243750D01*
G01*
X206598300Y-35762250D01*
G75*
G02*
X206354550Y-36006000I-243750J0D01*
G01*
X205867050Y-36006000D01*
G75*
G02*
X205623300Y-35762250I0J243750D01*
G01*
G37*
G36*
G01*
X203993100Y-35762250D02*
X203993100Y-34849750D01*
G75*
G02*
X204236850Y-34606000I243750J0D01*
G01*
X204724350Y-34606000D01*
G75*
G02*
X204968100Y-34849750I0J-243750D01*
G01*
X204968100Y-35762250D01*
G75*
G02*
X204724350Y-36006000I-243750J0D01*
G01*
X204236850Y-36006000D01*
G75*
G02*
X203993100Y-35762250I0J243750D01*
G01*
G37*
G36*
G01*
X202118100Y-35762250D02*
X202118100Y-34849750D01*
G75*
G02*
X202361850Y-34606000I243750J0D01*
G01*
X202849350Y-34606000D01*
G75*
G02*
X203093100Y-34849750I0J-243750D01*
G01*
X203093100Y-35762250D01*
G75*
G02*
X202849350Y-36006000I-243750J0D01*
G01*
X202361850Y-36006000D01*
G75*
G02*
X202118100Y-35762250I0J243750D01*
G01*
G37*
G36*
G01*
X200487900Y-35762250D02*
X200487900Y-34849750D01*
G75*
G02*
X200731650Y-34606000I243750J0D01*
G01*
X201219150Y-34606000D01*
G75*
G02*
X201462900Y-34849750I0J-243750D01*
G01*
X201462900Y-35762250D01*
G75*
G02*
X201219150Y-36006000I-243750J0D01*
G01*
X200731650Y-36006000D01*
G75*
G02*
X200487900Y-35762250I0J243750D01*
G01*
G37*
G36*
G01*
X198612900Y-35762250D02*
X198612900Y-34849750D01*
G75*
G02*
X198856650Y-34606000I243750J0D01*
G01*
X199344150Y-34606000D01*
G75*
G02*
X199587900Y-34849750I0J-243750D01*
G01*
X199587900Y-35762250D01*
G75*
G02*
X199344150Y-36006000I-243750J0D01*
G01*
X198856650Y-36006000D01*
G75*
G02*
X198612900Y-35762250I0J243750D01*
G01*
G37*
G36*
G01*
X196982700Y-35762250D02*
X196982700Y-34849750D01*
G75*
G02*
X197226450Y-34606000I243750J0D01*
G01*
X197713950Y-34606000D01*
G75*
G02*
X197957700Y-34849750I0J-243750D01*
G01*
X197957700Y-35762250D01*
G75*
G02*
X197713950Y-36006000I-243750J0D01*
G01*
X197226450Y-36006000D01*
G75*
G02*
X196982700Y-35762250I0J243750D01*
G01*
G37*
G36*
G01*
X195107700Y-35762250D02*
X195107700Y-34849750D01*
G75*
G02*
X195351450Y-34606000I243750J0D01*
G01*
X195838950Y-34606000D01*
G75*
G02*
X196082700Y-34849750I0J-243750D01*
G01*
X196082700Y-35762250D01*
G75*
G02*
X195838950Y-36006000I-243750J0D01*
G01*
X195351450Y-36006000D01*
G75*
G02*
X195107700Y-35762250I0J243750D01*
G01*
G37*
G36*
G01*
X193477500Y-35762250D02*
X193477500Y-34849750D01*
G75*
G02*
X193721250Y-34606000I243750J0D01*
G01*
X194208750Y-34606000D01*
G75*
G02*
X194452500Y-34849750I0J-243750D01*
G01*
X194452500Y-35762250D01*
G75*
G02*
X194208750Y-36006000I-243750J0D01*
G01*
X193721250Y-36006000D01*
G75*
G02*
X193477500Y-35762250I0J243750D01*
G01*
G37*
G36*
G01*
X191602500Y-35762250D02*
X191602500Y-34849750D01*
G75*
G02*
X191846250Y-34606000I243750J0D01*
G01*
X192333750Y-34606000D01*
G75*
G02*
X192577500Y-34849750I0J-243750D01*
G01*
X192577500Y-35762250D01*
G75*
G02*
X192333750Y-36006000I-243750J0D01*
G01*
X191846250Y-36006000D01*
G75*
G02*
X191602500Y-35762250I0J243750D01*
G01*
G37*
G36*
G01*
X189972300Y-35762250D02*
X189972300Y-34849750D01*
G75*
G02*
X190216050Y-34606000I243750J0D01*
G01*
X190703550Y-34606000D01*
G75*
G02*
X190947300Y-34849750I0J-243750D01*
G01*
X190947300Y-35762250D01*
G75*
G02*
X190703550Y-36006000I-243750J0D01*
G01*
X190216050Y-36006000D01*
G75*
G02*
X189972300Y-35762250I0J243750D01*
G01*
G37*
G36*
G01*
X188097300Y-35762250D02*
X188097300Y-34849750D01*
G75*
G02*
X188341050Y-34606000I243750J0D01*
G01*
X188828550Y-34606000D01*
G75*
G02*
X189072300Y-34849750I0J-243750D01*
G01*
X189072300Y-35762250D01*
G75*
G02*
X188828550Y-36006000I-243750J0D01*
G01*
X188341050Y-36006000D01*
G75*
G02*
X188097300Y-35762250I0J243750D01*
G01*
G37*
G36*
G01*
X186467100Y-35762250D02*
X186467100Y-34849750D01*
G75*
G02*
X186710850Y-34606000I243750J0D01*
G01*
X187198350Y-34606000D01*
G75*
G02*
X187442100Y-34849750I0J-243750D01*
G01*
X187442100Y-35762250D01*
G75*
G02*
X187198350Y-36006000I-243750J0D01*
G01*
X186710850Y-36006000D01*
G75*
G02*
X186467100Y-35762250I0J243750D01*
G01*
G37*
G36*
G01*
X184592100Y-35762250D02*
X184592100Y-34849750D01*
G75*
G02*
X184835850Y-34606000I243750J0D01*
G01*
X185323350Y-34606000D01*
G75*
G02*
X185567100Y-34849750I0J-243750D01*
G01*
X185567100Y-35762250D01*
G75*
G02*
X185323350Y-36006000I-243750J0D01*
G01*
X184835850Y-36006000D01*
G75*
G02*
X184592100Y-35762250I0J243750D01*
G01*
G37*
G36*
G01*
X182961900Y-35762250D02*
X182961900Y-34849750D01*
G75*
G02*
X183205650Y-34606000I243750J0D01*
G01*
X183693150Y-34606000D01*
G75*
G02*
X183936900Y-34849750I0J-243750D01*
G01*
X183936900Y-35762250D01*
G75*
G02*
X183693150Y-36006000I-243750J0D01*
G01*
X183205650Y-36006000D01*
G75*
G02*
X182961900Y-35762250I0J243750D01*
G01*
G37*
G36*
G01*
X181086900Y-35762250D02*
X181086900Y-34849750D01*
G75*
G02*
X181330650Y-34606000I243750J0D01*
G01*
X181818150Y-34606000D01*
G75*
G02*
X182061900Y-34849750I0J-243750D01*
G01*
X182061900Y-35762250D01*
G75*
G02*
X181818150Y-36006000I-243750J0D01*
G01*
X181330650Y-36006000D01*
G75*
G02*
X181086900Y-35762250I0J243750D01*
G01*
G37*
G36*
G01*
X179456700Y-35762250D02*
X179456700Y-34849750D01*
G75*
G02*
X179700450Y-34606000I243750J0D01*
G01*
X180187950Y-34606000D01*
G75*
G02*
X180431700Y-34849750I0J-243750D01*
G01*
X180431700Y-35762250D01*
G75*
G02*
X180187950Y-36006000I-243750J0D01*
G01*
X179700450Y-36006000D01*
G75*
G02*
X179456700Y-35762250I0J243750D01*
G01*
G37*
G36*
G01*
X177581700Y-35762250D02*
X177581700Y-34849750D01*
G75*
G02*
X177825450Y-34606000I243750J0D01*
G01*
X178312950Y-34606000D01*
G75*
G02*
X178556700Y-34849750I0J-243750D01*
G01*
X178556700Y-35762250D01*
G75*
G02*
X178312950Y-36006000I-243750J0D01*
G01*
X177825450Y-36006000D01*
G75*
G02*
X177581700Y-35762250I0J243750D01*
G01*
G37*
G36*
G01*
X175951500Y-35762250D02*
X175951500Y-34849750D01*
G75*
G02*
X176195250Y-34606000I243750J0D01*
G01*
X176682750Y-34606000D01*
G75*
G02*
X176926500Y-34849750I0J-243750D01*
G01*
X176926500Y-35762250D01*
G75*
G02*
X176682750Y-36006000I-243750J0D01*
G01*
X176195250Y-36006000D01*
G75*
G02*
X175951500Y-35762250I0J243750D01*
G01*
G37*
G36*
G01*
X174076500Y-35762250D02*
X174076500Y-34849750D01*
G75*
G02*
X174320250Y-34606000I243750J0D01*
G01*
X174807750Y-34606000D01*
G75*
G02*
X175051500Y-34849750I0J-243750D01*
G01*
X175051500Y-35762250D01*
G75*
G02*
X174807750Y-36006000I-243750J0D01*
G01*
X174320250Y-36006000D01*
G75*
G02*
X174076500Y-35762250I0J243750D01*
G01*
G37*
G36*
G01*
X172446300Y-35762250D02*
X172446300Y-34849750D01*
G75*
G02*
X172690050Y-34606000I243750J0D01*
G01*
X173177550Y-34606000D01*
G75*
G02*
X173421300Y-34849750I0J-243750D01*
G01*
X173421300Y-35762250D01*
G75*
G02*
X173177550Y-36006000I-243750J0D01*
G01*
X172690050Y-36006000D01*
G75*
G02*
X172446300Y-35762250I0J243750D01*
G01*
G37*
G36*
G01*
X170571300Y-35762250D02*
X170571300Y-34849750D01*
G75*
G02*
X170815050Y-34606000I243750J0D01*
G01*
X171302550Y-34606000D01*
G75*
G02*
X171546300Y-34849750I0J-243750D01*
G01*
X171546300Y-35762250D01*
G75*
G02*
X171302550Y-36006000I-243750J0D01*
G01*
X170815050Y-36006000D01*
G75*
G02*
X170571300Y-35762250I0J243750D01*
G01*
G37*
G36*
G01*
X168941100Y-35762250D02*
X168941100Y-34849750D01*
G75*
G02*
X169184850Y-34606000I243750J0D01*
G01*
X169672350Y-34606000D01*
G75*
G02*
X169916100Y-34849750I0J-243750D01*
G01*
X169916100Y-35762250D01*
G75*
G02*
X169672350Y-36006000I-243750J0D01*
G01*
X169184850Y-36006000D01*
G75*
G02*
X168941100Y-35762250I0J243750D01*
G01*
G37*
G36*
G01*
X167066100Y-35762250D02*
X167066100Y-34849750D01*
G75*
G02*
X167309850Y-34606000I243750J0D01*
G01*
X167797350Y-34606000D01*
G75*
G02*
X168041100Y-34849750I0J-243750D01*
G01*
X168041100Y-35762250D01*
G75*
G02*
X167797350Y-36006000I-243750J0D01*
G01*
X167309850Y-36006000D01*
G75*
G02*
X167066100Y-35762250I0J243750D01*
G01*
G37*
G36*
G01*
X165435900Y-35762250D02*
X165435900Y-34849750D01*
G75*
G02*
X165679650Y-34606000I243750J0D01*
G01*
X166167150Y-34606000D01*
G75*
G02*
X166410900Y-34849750I0J-243750D01*
G01*
X166410900Y-35762250D01*
G75*
G02*
X166167150Y-36006000I-243750J0D01*
G01*
X165679650Y-36006000D01*
G75*
G02*
X165435900Y-35762250I0J243750D01*
G01*
G37*
G36*
G01*
X163560900Y-35762250D02*
X163560900Y-34849750D01*
G75*
G02*
X163804650Y-34606000I243750J0D01*
G01*
X164292150Y-34606000D01*
G75*
G02*
X164535900Y-34849750I0J-243750D01*
G01*
X164535900Y-35762250D01*
G75*
G02*
X164292150Y-36006000I-243750J0D01*
G01*
X163804650Y-36006000D01*
G75*
G02*
X163560900Y-35762250I0J243750D01*
G01*
G37*
G36*
G01*
X161930700Y-35762250D02*
X161930700Y-34849750D01*
G75*
G02*
X162174450Y-34606000I243750J0D01*
G01*
X162661950Y-34606000D01*
G75*
G02*
X162905700Y-34849750I0J-243750D01*
G01*
X162905700Y-35762250D01*
G75*
G02*
X162661950Y-36006000I-243750J0D01*
G01*
X162174450Y-36006000D01*
G75*
G02*
X161930700Y-35762250I0J243750D01*
G01*
G37*
G36*
G01*
X160055700Y-35762250D02*
X160055700Y-34849750D01*
G75*
G02*
X160299450Y-34606000I243750J0D01*
G01*
X160786950Y-34606000D01*
G75*
G02*
X161030700Y-34849750I0J-243750D01*
G01*
X161030700Y-35762250D01*
G75*
G02*
X160786950Y-36006000I-243750J0D01*
G01*
X160299450Y-36006000D01*
G75*
G02*
X160055700Y-35762250I0J243750D01*
G01*
G37*
G36*
G01*
X158425500Y-35762250D02*
X158425500Y-34849750D01*
G75*
G02*
X158669250Y-34606000I243750J0D01*
G01*
X159156750Y-34606000D01*
G75*
G02*
X159400500Y-34849750I0J-243750D01*
G01*
X159400500Y-35762250D01*
G75*
G02*
X159156750Y-36006000I-243750J0D01*
G01*
X158669250Y-36006000D01*
G75*
G02*
X158425500Y-35762250I0J243750D01*
G01*
G37*
G36*
G01*
X156550500Y-35762250D02*
X156550500Y-34849750D01*
G75*
G02*
X156794250Y-34606000I243750J0D01*
G01*
X157281750Y-34606000D01*
G75*
G02*
X157525500Y-34849750I0J-243750D01*
G01*
X157525500Y-35762250D01*
G75*
G02*
X157281750Y-36006000I-243750J0D01*
G01*
X156794250Y-36006000D01*
G75*
G02*
X156550500Y-35762250I0J243750D01*
G01*
G37*
D11*
X195160700Y-11257200D03*
X195160700Y-9977200D03*
X195160700Y-8717200D03*
X195160700Y-7447200D03*
X195160700Y-6167200D03*
X195160700Y-4897200D03*
X195160700Y-3637200D03*
X195160700Y-2357200D03*
X201460700Y-2357200D03*
X201460700Y-3637200D03*
X201460700Y-4897200D03*
X201460700Y-6167200D03*
X201460700Y-7447200D03*
X201460700Y-8717200D03*
X201460700Y-9977200D03*
X201460700Y-11257200D03*
D12*
X209537100Y-30709200D03*
X209537100Y-33109200D03*
X210487100Y-30709200D03*
X210487100Y-33109200D03*
X211437100Y-30709200D03*
X211437100Y-33109200D03*
X206037100Y-30709200D03*
X206037100Y-33109200D03*
X206987100Y-30709200D03*
X206987100Y-33109200D03*
X207937100Y-30709200D03*
X207937100Y-33109200D03*
X202537100Y-30709200D03*
X202537100Y-33109200D03*
X203487100Y-30709200D03*
X203487100Y-33109200D03*
X204437100Y-30709200D03*
X204437100Y-33109200D03*
X199037100Y-30709200D03*
X199037100Y-33109200D03*
X199987100Y-30709200D03*
X199987100Y-33109200D03*
X200937100Y-30709200D03*
X200937100Y-33109200D03*
X195537100Y-30709200D03*
X195537100Y-33109200D03*
X196487100Y-30709200D03*
X196487100Y-33109200D03*
X197437100Y-30709200D03*
X197437100Y-33109200D03*
X192037100Y-30709200D03*
X192037100Y-33109200D03*
X192987100Y-30709200D03*
X192987100Y-33109200D03*
X193937100Y-30709200D03*
X193937100Y-33109200D03*
X188537100Y-30709200D03*
X188537100Y-33109200D03*
X189487100Y-30709200D03*
X189487100Y-33109200D03*
X190437100Y-30709200D03*
X190437100Y-33109200D03*
X185037100Y-30709200D03*
X185037100Y-33109200D03*
X185987100Y-30709200D03*
X185987100Y-33109200D03*
X186937100Y-30709200D03*
X186937100Y-33109200D03*
X181541100Y-30709200D03*
X181541100Y-33109200D03*
X182491100Y-30709200D03*
X182491100Y-33109200D03*
X183441100Y-30709200D03*
X183441100Y-33109200D03*
X178041100Y-30709200D03*
X178041100Y-33109200D03*
X178991100Y-30709200D03*
X178991100Y-33109200D03*
X179941100Y-30709200D03*
X179941100Y-33109200D03*
X174541100Y-30709200D03*
X174541100Y-33109200D03*
X175491100Y-30709200D03*
X175491100Y-33109200D03*
X176441100Y-30709200D03*
X176441100Y-33109200D03*
X171041100Y-30709200D03*
X171041100Y-33109200D03*
X171991100Y-30709200D03*
X171991100Y-33109200D03*
X172941100Y-30709200D03*
X172941100Y-33109200D03*
X167541100Y-30709200D03*
X167541100Y-33109200D03*
X168491100Y-30709200D03*
X168491100Y-33109200D03*
X169441100Y-30709200D03*
X169441100Y-33109200D03*
X164041100Y-30709200D03*
X164041100Y-33109200D03*
X164991100Y-30709200D03*
X164991100Y-33109200D03*
X165941100Y-30709200D03*
X165941100Y-33109200D03*
X160541100Y-30709200D03*
X160541100Y-33109200D03*
X161491100Y-30709200D03*
X161491100Y-33109200D03*
X162441100Y-30709200D03*
X162441100Y-33109200D03*
X157041100Y-30709200D03*
X157041100Y-33109200D03*
X157991100Y-30709200D03*
X157991100Y-33109200D03*
X158941100Y-30709200D03*
X158941100Y-33109200D03*
D10*
X182491100Y-40589200D03*
X178991100Y-40589200D03*
X175491100Y-40589200D03*
X171991100Y-40589200D03*
X168491100Y-40589200D03*
X164991100Y-40589200D03*
X161491100Y-40589200D03*
X157991100Y-40589200D03*
X154491100Y-40589200D03*
G36*
G01*
X200924500Y-21096200D02*
X200624500Y-21096200D01*
G75*
G02*
X200474500Y-20946200I0J150000D01*
G01*
X200474500Y-19271200D01*
G75*
G02*
X200624500Y-19121200I150000J0D01*
G01*
X200924500Y-19121200D01*
G75*
G02*
X201074500Y-19271200I0J-150000D01*
G01*
X201074500Y-20946200D01*
G75*
G02*
X200924500Y-21096200I-150000J0D01*
G01*
G37*
G36*
G01*
X202194500Y-21096200D02*
X201894500Y-21096200D01*
G75*
G02*
X201744500Y-20946200I0J150000D01*
G01*
X201744500Y-19271200D01*
G75*
G02*
X201894500Y-19121200I150000J0D01*
G01*
X202194500Y-19121200D01*
G75*
G02*
X202344500Y-19271200I0J-150000D01*
G01*
X202344500Y-20946200D01*
G75*
G02*
X202194500Y-21096200I-150000J0D01*
G01*
G37*
G36*
G01*
X203464500Y-21096200D02*
X203164500Y-21096200D01*
G75*
G02*
X203014500Y-20946200I0J150000D01*
G01*
X203014500Y-19271200D01*
G75*
G02*
X203164500Y-19121200I150000J0D01*
G01*
X203464500Y-19121200D01*
G75*
G02*
X203614500Y-19271200I0J-150000D01*
G01*
X203614500Y-20946200D01*
G75*
G02*
X203464500Y-21096200I-150000J0D01*
G01*
G37*
G36*
G01*
X204734500Y-21096200D02*
X204434500Y-21096200D01*
G75*
G02*
X204284500Y-20946200I0J150000D01*
G01*
X204284500Y-19271200D01*
G75*
G02*
X204434500Y-19121200I150000J0D01*
G01*
X204734500Y-19121200D01*
G75*
G02*
X204884500Y-19271200I0J-150000D01*
G01*
X204884500Y-20946200D01*
G75*
G02*
X204734500Y-21096200I-150000J0D01*
G01*
G37*
G36*
G01*
X206004500Y-21096200D02*
X205704500Y-21096200D01*
G75*
G02*
X205554500Y-20946200I0J150000D01*
G01*
X205554500Y-19271200D01*
G75*
G02*
X205704500Y-19121200I150000J0D01*
G01*
X206004500Y-19121200D01*
G75*
G02*
X206154500Y-19271200I0J-150000D01*
G01*
X206154500Y-20946200D01*
G75*
G02*
X206004500Y-21096200I-150000J0D01*
G01*
G37*
G36*
G01*
X207274500Y-21096200D02*
X206974500Y-21096200D01*
G75*
G02*
X206824500Y-20946200I0J150000D01*
G01*
X206824500Y-19271200D01*
G75*
G02*
X206974500Y-19121200I150000J0D01*
G01*
X207274500Y-19121200D01*
G75*
G02*
X207424500Y-19271200I0J-150000D01*
G01*
X207424500Y-20946200D01*
G75*
G02*
X207274500Y-21096200I-150000J0D01*
G01*
G37*
G36*
G01*
X208544500Y-21096200D02*
X208244500Y-21096200D01*
G75*
G02*
X208094500Y-20946200I0J150000D01*
G01*
X208094500Y-19271200D01*
G75*
G02*
X208244500Y-19121200I150000J0D01*
G01*
X208544500Y-19121200D01*
G75*
G02*
X208694500Y-19271200I0J-150000D01*
G01*
X208694500Y-20946200D01*
G75*
G02*
X208544500Y-21096200I-150000J0D01*
G01*
G37*
G36*
G01*
X209814500Y-21096200D02*
X209514500Y-21096200D01*
G75*
G02*
X209364500Y-20946200I0J150000D01*
G01*
X209364500Y-19271200D01*
G75*
G02*
X209514500Y-19121200I150000J0D01*
G01*
X209814500Y-19121200D01*
G75*
G02*
X209964500Y-19271200I0J-150000D01*
G01*
X209964500Y-20946200D01*
G75*
G02*
X209814500Y-21096200I-150000J0D01*
G01*
G37*
G36*
G01*
X209814500Y-28021200D02*
X209514500Y-28021200D01*
G75*
G02*
X209364500Y-27871200I0J150000D01*
G01*
X209364500Y-26196200D01*
G75*
G02*
X209514500Y-26046200I150000J0D01*
G01*
X209814500Y-26046200D01*
G75*
G02*
X209964500Y-26196200I0J-150000D01*
G01*
X209964500Y-27871200D01*
G75*
G02*
X209814500Y-28021200I-150000J0D01*
G01*
G37*
G36*
G01*
X208544500Y-28021200D02*
X208244500Y-28021200D01*
G75*
G02*
X208094500Y-27871200I0J150000D01*
G01*
X208094500Y-26196200D01*
G75*
G02*
X208244500Y-26046200I150000J0D01*
G01*
X208544500Y-26046200D01*
G75*
G02*
X208694500Y-26196200I0J-150000D01*
G01*
X208694500Y-27871200D01*
G75*
G02*
X208544500Y-28021200I-150000J0D01*
G01*
G37*
G36*
G01*
X207274500Y-28021200D02*
X206974500Y-28021200D01*
G75*
G02*
X206824500Y-27871200I0J150000D01*
G01*
X206824500Y-26196200D01*
G75*
G02*
X206974500Y-26046200I150000J0D01*
G01*
X207274500Y-26046200D01*
G75*
G02*
X207424500Y-26196200I0J-150000D01*
G01*
X207424500Y-27871200D01*
G75*
G02*
X207274500Y-28021200I-150000J0D01*
G01*
G37*
G36*
G01*
X206004500Y-28021200D02*
X205704500Y-28021200D01*
G75*
G02*
X205554500Y-27871200I0J150000D01*
G01*
X205554500Y-26196200D01*
G75*
G02*
X205704500Y-26046200I150000J0D01*
G01*
X206004500Y-26046200D01*
G75*
G02*
X206154500Y-26196200I0J-150000D01*
G01*
X206154500Y-27871200D01*
G75*
G02*
X206004500Y-28021200I-150000J0D01*
G01*
G37*
G36*
G01*
X204734500Y-28021200D02*
X204434500Y-28021200D01*
G75*
G02*
X204284500Y-27871200I0J150000D01*
G01*
X204284500Y-26196200D01*
G75*
G02*
X204434500Y-26046200I150000J0D01*
G01*
X204734500Y-26046200D01*
G75*
G02*
X204884500Y-26196200I0J-150000D01*
G01*
X204884500Y-27871200D01*
G75*
G02*
X204734500Y-28021200I-150000J0D01*
G01*
G37*
G36*
G01*
X203464500Y-28021200D02*
X203164500Y-28021200D01*
G75*
G02*
X203014500Y-27871200I0J150000D01*
G01*
X203014500Y-26196200D01*
G75*
G02*
X203164500Y-26046200I150000J0D01*
G01*
X203464500Y-26046200D01*
G75*
G02*
X203614500Y-26196200I0J-150000D01*
G01*
X203614500Y-27871200D01*
G75*
G02*
X203464500Y-28021200I-150000J0D01*
G01*
G37*
G36*
G01*
X202194500Y-28021200D02*
X201894500Y-28021200D01*
G75*
G02*
X201744500Y-27871200I0J150000D01*
G01*
X201744500Y-26196200D01*
G75*
G02*
X201894500Y-26046200I150000J0D01*
G01*
X202194500Y-26046200D01*
G75*
G02*
X202344500Y-26196200I0J-150000D01*
G01*
X202344500Y-27871200D01*
G75*
G02*
X202194500Y-28021200I-150000J0D01*
G01*
G37*
G36*
G01*
X200924500Y-28021200D02*
X200624500Y-28021200D01*
G75*
G02*
X200474500Y-27871200I0J150000D01*
G01*
X200474500Y-26196200D01*
G75*
G02*
X200624500Y-26046200I150000J0D01*
G01*
X200924500Y-26046200D01*
G75*
G02*
X201074500Y-26196200I0J-150000D01*
G01*
X201074500Y-27871200D01*
G75*
G02*
X200924500Y-28021200I-150000J0D01*
G01*
G37*
G36*
G01*
X186903700Y-21096200D02*
X186603700Y-21096200D01*
G75*
G02*
X186453700Y-20946200I0J150000D01*
G01*
X186453700Y-19271200D01*
G75*
G02*
X186603700Y-19121200I150000J0D01*
G01*
X186903700Y-19121200D01*
G75*
G02*
X187053700Y-19271200I0J-150000D01*
G01*
X187053700Y-20946200D01*
G75*
G02*
X186903700Y-21096200I-150000J0D01*
G01*
G37*
G36*
G01*
X188173700Y-21096200D02*
X187873700Y-21096200D01*
G75*
G02*
X187723700Y-20946200I0J150000D01*
G01*
X187723700Y-19271200D01*
G75*
G02*
X187873700Y-19121200I150000J0D01*
G01*
X188173700Y-19121200D01*
G75*
G02*
X188323700Y-19271200I0J-150000D01*
G01*
X188323700Y-20946200D01*
G75*
G02*
X188173700Y-21096200I-150000J0D01*
G01*
G37*
G36*
G01*
X189443700Y-21096200D02*
X189143700Y-21096200D01*
G75*
G02*
X188993700Y-20946200I0J150000D01*
G01*
X188993700Y-19271200D01*
G75*
G02*
X189143700Y-19121200I150000J0D01*
G01*
X189443700Y-19121200D01*
G75*
G02*
X189593700Y-19271200I0J-150000D01*
G01*
X189593700Y-20946200D01*
G75*
G02*
X189443700Y-21096200I-150000J0D01*
G01*
G37*
G36*
G01*
X190713700Y-21096200D02*
X190413700Y-21096200D01*
G75*
G02*
X190263700Y-20946200I0J150000D01*
G01*
X190263700Y-19271200D01*
G75*
G02*
X190413700Y-19121200I150000J0D01*
G01*
X190713700Y-19121200D01*
G75*
G02*
X190863700Y-19271200I0J-150000D01*
G01*
X190863700Y-20946200D01*
G75*
G02*
X190713700Y-21096200I-150000J0D01*
G01*
G37*
G36*
G01*
X191983700Y-21096200D02*
X191683700Y-21096200D01*
G75*
G02*
X191533700Y-20946200I0J150000D01*
G01*
X191533700Y-19271200D01*
G75*
G02*
X191683700Y-19121200I150000J0D01*
G01*
X191983700Y-19121200D01*
G75*
G02*
X192133700Y-19271200I0J-150000D01*
G01*
X192133700Y-20946200D01*
G75*
G02*
X191983700Y-21096200I-150000J0D01*
G01*
G37*
G36*
G01*
X193253700Y-21096200D02*
X192953700Y-21096200D01*
G75*
G02*
X192803700Y-20946200I0J150000D01*
G01*
X192803700Y-19271200D01*
G75*
G02*
X192953700Y-19121200I150000J0D01*
G01*
X193253700Y-19121200D01*
G75*
G02*
X193403700Y-19271200I0J-150000D01*
G01*
X193403700Y-20946200D01*
G75*
G02*
X193253700Y-21096200I-150000J0D01*
G01*
G37*
G36*
G01*
X194523700Y-21096200D02*
X194223700Y-21096200D01*
G75*
G02*
X194073700Y-20946200I0J150000D01*
G01*
X194073700Y-19271200D01*
G75*
G02*
X194223700Y-19121200I150000J0D01*
G01*
X194523700Y-19121200D01*
G75*
G02*
X194673700Y-19271200I0J-150000D01*
G01*
X194673700Y-20946200D01*
G75*
G02*
X194523700Y-21096200I-150000J0D01*
G01*
G37*
G36*
G01*
X195793700Y-21096200D02*
X195493700Y-21096200D01*
G75*
G02*
X195343700Y-20946200I0J150000D01*
G01*
X195343700Y-19271200D01*
G75*
G02*
X195493700Y-19121200I150000J0D01*
G01*
X195793700Y-19121200D01*
G75*
G02*
X195943700Y-19271200I0J-150000D01*
G01*
X195943700Y-20946200D01*
G75*
G02*
X195793700Y-21096200I-150000J0D01*
G01*
G37*
G36*
G01*
X195793700Y-28021200D02*
X195493700Y-28021200D01*
G75*
G02*
X195343700Y-27871200I0J150000D01*
G01*
X195343700Y-26196200D01*
G75*
G02*
X195493700Y-26046200I150000J0D01*
G01*
X195793700Y-26046200D01*
G75*
G02*
X195943700Y-26196200I0J-150000D01*
G01*
X195943700Y-27871200D01*
G75*
G02*
X195793700Y-28021200I-150000J0D01*
G01*
G37*
G36*
G01*
X194523700Y-28021200D02*
X194223700Y-28021200D01*
G75*
G02*
X194073700Y-27871200I0J150000D01*
G01*
X194073700Y-26196200D01*
G75*
G02*
X194223700Y-26046200I150000J0D01*
G01*
X194523700Y-26046200D01*
G75*
G02*
X194673700Y-26196200I0J-150000D01*
G01*
X194673700Y-27871200D01*
G75*
G02*
X194523700Y-28021200I-150000J0D01*
G01*
G37*
G36*
G01*
X193253700Y-28021200D02*
X192953700Y-28021200D01*
G75*
G02*
X192803700Y-27871200I0J150000D01*
G01*
X192803700Y-26196200D01*
G75*
G02*
X192953700Y-26046200I150000J0D01*
G01*
X193253700Y-26046200D01*
G75*
G02*
X193403700Y-26196200I0J-150000D01*
G01*
X193403700Y-27871200D01*
G75*
G02*
X193253700Y-28021200I-150000J0D01*
G01*
G37*
G36*
G01*
X191983700Y-28021200D02*
X191683700Y-28021200D01*
G75*
G02*
X191533700Y-27871200I0J150000D01*
G01*
X191533700Y-26196200D01*
G75*
G02*
X191683700Y-26046200I150000J0D01*
G01*
X191983700Y-26046200D01*
G75*
G02*
X192133700Y-26196200I0J-150000D01*
G01*
X192133700Y-27871200D01*
G75*
G02*
X191983700Y-28021200I-150000J0D01*
G01*
G37*
G36*
G01*
X190713700Y-28021200D02*
X190413700Y-28021200D01*
G75*
G02*
X190263700Y-27871200I0J150000D01*
G01*
X190263700Y-26196200D01*
G75*
G02*
X190413700Y-26046200I150000J0D01*
G01*
X190713700Y-26046200D01*
G75*
G02*
X190863700Y-26196200I0J-150000D01*
G01*
X190863700Y-27871200D01*
G75*
G02*
X190713700Y-28021200I-150000J0D01*
G01*
G37*
G36*
G01*
X189443700Y-28021200D02*
X189143700Y-28021200D01*
G75*
G02*
X188993700Y-27871200I0J150000D01*
G01*
X188993700Y-26196200D01*
G75*
G02*
X189143700Y-26046200I150000J0D01*
G01*
X189443700Y-26046200D01*
G75*
G02*
X189593700Y-26196200I0J-150000D01*
G01*
X189593700Y-27871200D01*
G75*
G02*
X189443700Y-28021200I-150000J0D01*
G01*
G37*
G36*
G01*
X188173700Y-28021200D02*
X187873700Y-28021200D01*
G75*
G02*
X187723700Y-27871200I0J150000D01*
G01*
X187723700Y-26196200D01*
G75*
G02*
X187873700Y-26046200I150000J0D01*
G01*
X188173700Y-26046200D01*
G75*
G02*
X188323700Y-26196200I0J-150000D01*
G01*
X188323700Y-27871200D01*
G75*
G02*
X188173700Y-28021200I-150000J0D01*
G01*
G37*
G36*
G01*
X186903700Y-28021200D02*
X186603700Y-28021200D01*
G75*
G02*
X186453700Y-27871200I0J150000D01*
G01*
X186453700Y-26196200D01*
G75*
G02*
X186603700Y-26046200I150000J0D01*
G01*
X186903700Y-26046200D01*
G75*
G02*
X187053700Y-26196200I0J-150000D01*
G01*
X187053700Y-27871200D01*
G75*
G02*
X186903700Y-28021200I-150000J0D01*
G01*
G37*
D13*
X211497400Y-5536800D03*
X211497400Y-6876800D03*
X211497400Y-2876800D03*
X211497400Y-4216800D03*
X208497400Y-5536800D03*
X208497400Y-4216800D03*
X208497400Y-6876800D03*
X208497400Y-2876800D03*
X185126700Y-4216800D03*
X185126700Y-2876800D03*
X185126700Y-6876800D03*
X185126700Y-5536800D03*
X188126700Y-4216800D03*
X188126700Y-5536800D03*
X188126700Y-2876800D03*
X188126700Y-6876800D03*
X183351500Y-5536800D03*
X183351500Y-6876800D03*
X183351500Y-2876800D03*
X183351500Y-4216800D03*
X180351500Y-5536800D03*
X180351500Y-4216800D03*
X180351500Y-6876800D03*
X180351500Y-2876800D03*
G36*
G01*
X181147100Y-17950200D02*
X181147100Y-17000200D01*
G75*
G02*
X181312100Y-16835200I165000J0D01*
G01*
X181642100Y-16835200D01*
G75*
G02*
X181807100Y-17000200I0J-165000D01*
G01*
X181807100Y-17950200D01*
G75*
G02*
X181642100Y-18115200I-165000J0D01*
G01*
X181312100Y-18115200D01*
G75*
G02*
X181147100Y-17950200I0J165000D01*
G01*
G37*
G36*
G01*
X180067100Y-17950200D02*
X180067100Y-17000200D01*
G75*
G02*
X180232100Y-16835200I165000J0D01*
G01*
X180562100Y-16835200D01*
G75*
G02*
X180727100Y-17000200I0J-165000D01*
G01*
X180727100Y-17950200D01*
G75*
G02*
X180562100Y-18115200I-165000J0D01*
G01*
X180232100Y-18115200D01*
G75*
G02*
X180067100Y-17950200I0J165000D01*
G01*
G37*
X156983500Y-4216800D03*
X156983500Y-2876800D03*
X156983500Y-6876800D03*
X156983500Y-5536800D03*
X159983500Y-4216800D03*
X159983500Y-5536800D03*
X159983500Y-2876800D03*
X159983500Y-6876800D03*
G36*
G01*
X158912900Y-21096200D02*
X158612900Y-21096200D01*
G75*
G02*
X158462900Y-20946200I0J150000D01*
G01*
X158462900Y-19271200D01*
G75*
G02*
X158612900Y-19121200I150000J0D01*
G01*
X158912900Y-19121200D01*
G75*
G02*
X159062900Y-19271200I0J-150000D01*
G01*
X159062900Y-20946200D01*
G75*
G02*
X158912900Y-21096200I-150000J0D01*
G01*
G37*
G36*
G01*
X160182900Y-21096200D02*
X159882900Y-21096200D01*
G75*
G02*
X159732900Y-20946200I0J150000D01*
G01*
X159732900Y-19271200D01*
G75*
G02*
X159882900Y-19121200I150000J0D01*
G01*
X160182900Y-19121200D01*
G75*
G02*
X160332900Y-19271200I0J-150000D01*
G01*
X160332900Y-20946200D01*
G75*
G02*
X160182900Y-21096200I-150000J0D01*
G01*
G37*
G36*
G01*
X161452900Y-21096200D02*
X161152900Y-21096200D01*
G75*
G02*
X161002900Y-20946200I0J150000D01*
G01*
X161002900Y-19271200D01*
G75*
G02*
X161152900Y-19121200I150000J0D01*
G01*
X161452900Y-19121200D01*
G75*
G02*
X161602900Y-19271200I0J-150000D01*
G01*
X161602900Y-20946200D01*
G75*
G02*
X161452900Y-21096200I-150000J0D01*
G01*
G37*
G36*
G01*
X162722900Y-21096200D02*
X162422900Y-21096200D01*
G75*
G02*
X162272900Y-20946200I0J150000D01*
G01*
X162272900Y-19271200D01*
G75*
G02*
X162422900Y-19121200I150000J0D01*
G01*
X162722900Y-19121200D01*
G75*
G02*
X162872900Y-19271200I0J-150000D01*
G01*
X162872900Y-20946200D01*
G75*
G02*
X162722900Y-21096200I-150000J0D01*
G01*
G37*
G36*
G01*
X163992900Y-21096200D02*
X163692900Y-21096200D01*
G75*
G02*
X163542900Y-20946200I0J150000D01*
G01*
X163542900Y-19271200D01*
G75*
G02*
X163692900Y-19121200I150000J0D01*
G01*
X163992900Y-19121200D01*
G75*
G02*
X164142900Y-19271200I0J-150000D01*
G01*
X164142900Y-20946200D01*
G75*
G02*
X163992900Y-21096200I-150000J0D01*
G01*
G37*
G36*
G01*
X165262900Y-21096200D02*
X164962900Y-21096200D01*
G75*
G02*
X164812900Y-20946200I0J150000D01*
G01*
X164812900Y-19271200D01*
G75*
G02*
X164962900Y-19121200I150000J0D01*
G01*
X165262900Y-19121200D01*
G75*
G02*
X165412900Y-19271200I0J-150000D01*
G01*
X165412900Y-20946200D01*
G75*
G02*
X165262900Y-21096200I-150000J0D01*
G01*
G37*
G36*
G01*
X166532900Y-21096200D02*
X166232900Y-21096200D01*
G75*
G02*
X166082900Y-20946200I0J150000D01*
G01*
X166082900Y-19271200D01*
G75*
G02*
X166232900Y-19121200I150000J0D01*
G01*
X166532900Y-19121200D01*
G75*
G02*
X166682900Y-19271200I0J-150000D01*
G01*
X166682900Y-20946200D01*
G75*
G02*
X166532900Y-21096200I-150000J0D01*
G01*
G37*
G36*
G01*
X167802900Y-21096200D02*
X167502900Y-21096200D01*
G75*
G02*
X167352900Y-20946200I0J150000D01*
G01*
X167352900Y-19271200D01*
G75*
G02*
X167502900Y-19121200I150000J0D01*
G01*
X167802900Y-19121200D01*
G75*
G02*
X167952900Y-19271200I0J-150000D01*
G01*
X167952900Y-20946200D01*
G75*
G02*
X167802900Y-21096200I-150000J0D01*
G01*
G37*
G36*
G01*
X167802900Y-28021200D02*
X167502900Y-28021200D01*
G75*
G02*
X167352900Y-27871200I0J150000D01*
G01*
X167352900Y-26196200D01*
G75*
G02*
X167502900Y-26046200I150000J0D01*
G01*
X167802900Y-26046200D01*
G75*
G02*
X167952900Y-26196200I0J-150000D01*
G01*
X167952900Y-27871200D01*
G75*
G02*
X167802900Y-28021200I-150000J0D01*
G01*
G37*
G36*
G01*
X166532900Y-28021200D02*
X166232900Y-28021200D01*
G75*
G02*
X166082900Y-27871200I0J150000D01*
G01*
X166082900Y-26196200D01*
G75*
G02*
X166232900Y-26046200I150000J0D01*
G01*
X166532900Y-26046200D01*
G75*
G02*
X166682900Y-26196200I0J-150000D01*
G01*
X166682900Y-27871200D01*
G75*
G02*
X166532900Y-28021200I-150000J0D01*
G01*
G37*
G36*
G01*
X165262900Y-28021200D02*
X164962900Y-28021200D01*
G75*
G02*
X164812900Y-27871200I0J150000D01*
G01*
X164812900Y-26196200D01*
G75*
G02*
X164962900Y-26046200I150000J0D01*
G01*
X165262900Y-26046200D01*
G75*
G02*
X165412900Y-26196200I0J-150000D01*
G01*
X165412900Y-27871200D01*
G75*
G02*
X165262900Y-28021200I-150000J0D01*
G01*
G37*
G36*
G01*
X163992900Y-28021200D02*
X163692900Y-28021200D01*
G75*
G02*
X163542900Y-27871200I0J150000D01*
G01*
X163542900Y-26196200D01*
G75*
G02*
X163692900Y-26046200I150000J0D01*
G01*
X163992900Y-26046200D01*
G75*
G02*
X164142900Y-26196200I0J-150000D01*
G01*
X164142900Y-27871200D01*
G75*
G02*
X163992900Y-28021200I-150000J0D01*
G01*
G37*
G36*
G01*
X162722900Y-28021200D02*
X162422900Y-28021200D01*
G75*
G02*
X162272900Y-27871200I0J150000D01*
G01*
X162272900Y-26196200D01*
G75*
G02*
X162422900Y-26046200I150000J0D01*
G01*
X162722900Y-26046200D01*
G75*
G02*
X162872900Y-26196200I0J-150000D01*
G01*
X162872900Y-27871200D01*
G75*
G02*
X162722900Y-28021200I-150000J0D01*
G01*
G37*
G36*
G01*
X161452900Y-28021200D02*
X161152900Y-28021200D01*
G75*
G02*
X161002900Y-27871200I0J150000D01*
G01*
X161002900Y-26196200D01*
G75*
G02*
X161152900Y-26046200I150000J0D01*
G01*
X161452900Y-26046200D01*
G75*
G02*
X161602900Y-26196200I0J-150000D01*
G01*
X161602900Y-27871200D01*
G75*
G02*
X161452900Y-28021200I-150000J0D01*
G01*
G37*
G36*
G01*
X160182900Y-28021200D02*
X159882900Y-28021200D01*
G75*
G02*
X159732900Y-27871200I0J150000D01*
G01*
X159732900Y-26196200D01*
G75*
G02*
X159882900Y-26046200I150000J0D01*
G01*
X160182900Y-26046200D01*
G75*
G02*
X160332900Y-26196200I0J-150000D01*
G01*
X160332900Y-27871200D01*
G75*
G02*
X160182900Y-28021200I-150000J0D01*
G01*
G37*
G36*
G01*
X158912900Y-28021200D02*
X158612900Y-28021200D01*
G75*
G02*
X158462900Y-27871200I0J150000D01*
G01*
X158462900Y-26196200D01*
G75*
G02*
X158612900Y-26046200I150000J0D01*
G01*
X158912900Y-26046200D01*
G75*
G02*
X159062900Y-26196200I0J-150000D01*
G01*
X159062900Y-27871200D01*
G75*
G02*
X158912900Y-28021200I-150000J0D01*
G01*
G37*
G36*
G01*
X173310300Y-17000200D02*
X173310300Y-17950200D01*
G75*
G02*
X173145300Y-18115200I-165000J0D01*
G01*
X172815300Y-18115200D01*
G75*
G02*
X172650300Y-17950200I0J165000D01*
G01*
X172650300Y-17000200D01*
G75*
G02*
X172815300Y-16835200I165000J0D01*
G01*
X173145300Y-16835200D01*
G75*
G02*
X173310300Y-17000200I0J-165000D01*
G01*
G37*
G36*
G01*
X174390300Y-17000200D02*
X174390300Y-17950200D01*
G75*
G02*
X174225300Y-18115200I-165000J0D01*
G01*
X173895300Y-18115200D01*
G75*
G02*
X173730300Y-17950200I0J165000D01*
G01*
X173730300Y-17000200D01*
G75*
G02*
X173895300Y-16835200I165000J0D01*
G01*
X174225300Y-16835200D01*
G75*
G02*
X174390300Y-17000200I0J-165000D01*
G01*
G37*
G36*
G01*
X170377500Y-14394200D02*
X170377500Y-13444200D01*
G75*
G02*
X170542500Y-13279200I165000J0D01*
G01*
X170872500Y-13279200D01*
G75*
G02*
X171037500Y-13444200I0J-165000D01*
G01*
X171037500Y-14394200D01*
G75*
G02*
X170872500Y-14559200I-165000J0D01*
G01*
X170542500Y-14559200D01*
G75*
G02*
X170377500Y-14394200I0J165000D01*
G01*
G37*
G36*
G01*
X169297500Y-14394200D02*
X169297500Y-13444200D01*
G75*
G02*
X169462500Y-13279200I165000J0D01*
G01*
X169792500Y-13279200D01*
G75*
G02*
X169957500Y-13444200I0J-165000D01*
G01*
X169957500Y-14394200D01*
G75*
G02*
X169792500Y-14559200I-165000J0D01*
G01*
X169462500Y-14559200D01*
G75*
G02*
X169297500Y-14394200I0J165000D01*
G01*
G37*
G36*
G01*
X198368300Y-14394200D02*
X198368300Y-13444200D01*
G75*
G02*
X198533300Y-13279200I165000J0D01*
G01*
X198863300Y-13279200D01*
G75*
G02*
X199028300Y-13444200I0J-165000D01*
G01*
X199028300Y-14394200D01*
G75*
G02*
X198863300Y-14559200I-165000J0D01*
G01*
X198533300Y-14559200D01*
G75*
G02*
X198368300Y-14394200I0J165000D01*
G01*
G37*
G36*
G01*
X197288300Y-14394200D02*
X197288300Y-13444200D01*
G75*
G02*
X197453300Y-13279200I165000J0D01*
G01*
X197783300Y-13279200D01*
G75*
G02*
X197948300Y-13444200I0J-165000D01*
G01*
X197948300Y-14394200D01*
G75*
G02*
X197783300Y-14559200I-165000J0D01*
G01*
X197453300Y-14559200D01*
G75*
G02*
X197288300Y-14394200I0J165000D01*
G01*
G37*
G36*
G01*
X209137900Y-17950200D02*
X209137900Y-17000200D01*
G75*
G02*
X209302900Y-16835200I165000J0D01*
G01*
X209632900Y-16835200D01*
G75*
G02*
X209797900Y-17000200I0J-165000D01*
G01*
X209797900Y-17950200D01*
G75*
G02*
X209632900Y-18115200I-165000J0D01*
G01*
X209302900Y-18115200D01*
G75*
G02*
X209137900Y-17950200I0J165000D01*
G01*
G37*
G36*
G01*
X208057900Y-17950200D02*
X208057900Y-17000200D01*
G75*
G02*
X208222900Y-16835200I165000J0D01*
G01*
X208552900Y-16835200D01*
G75*
G02*
X208717900Y-17000200I0J-165000D01*
G01*
X208717900Y-17950200D01*
G75*
G02*
X208552900Y-18115200I-165000J0D01*
G01*
X208222900Y-18115200D01*
G75*
G02*
X208057900Y-17950200I0J165000D01*
G01*
G37*
G36*
G01*
X167126300Y-17950200D02*
X167126300Y-17000200D01*
G75*
G02*
X167291300Y-16835200I165000J0D01*
G01*
X167621300Y-16835200D01*
G75*
G02*
X167786300Y-17000200I0J-165000D01*
G01*
X167786300Y-17950200D01*
G75*
G02*
X167621300Y-18115200I-165000J0D01*
G01*
X167291300Y-18115200D01*
G75*
G02*
X167126300Y-17950200I0J165000D01*
G01*
G37*
G36*
G01*
X166046300Y-17950200D02*
X166046300Y-17000200D01*
G75*
G02*
X166211300Y-16835200I165000J0D01*
G01*
X166541300Y-16835200D01*
G75*
G02*
X166706300Y-17000200I0J-165000D01*
G01*
X166706300Y-17950200D01*
G75*
G02*
X166541300Y-18115200I-165000J0D01*
G01*
X166211300Y-18115200D01*
G75*
G02*
X166046300Y-17950200I0J165000D01*
G01*
G37*
G36*
G01*
X201301100Y-17000200D02*
X201301100Y-17950200D01*
G75*
G02*
X201136100Y-18115200I-165000J0D01*
G01*
X200806100Y-18115200D01*
G75*
G02*
X200641100Y-17950200I0J165000D01*
G01*
X200641100Y-17000200D01*
G75*
G02*
X200806100Y-16835200I165000J0D01*
G01*
X201136100Y-16835200D01*
G75*
G02*
X201301100Y-17000200I0J-165000D01*
G01*
G37*
G36*
G01*
X202381100Y-17000200D02*
X202381100Y-17950200D01*
G75*
G02*
X202216100Y-18115200I-165000J0D01*
G01*
X201886100Y-18115200D01*
G75*
G02*
X201721100Y-17950200I0J165000D01*
G01*
X201721100Y-17000200D01*
G75*
G02*
X201886100Y-16835200I165000J0D01*
G01*
X202216100Y-16835200D01*
G75*
G02*
X202381100Y-17000200I0J-165000D01*
G01*
G37*
G36*
G01*
X187280300Y-17000200D02*
X187280300Y-17950200D01*
G75*
G02*
X187115300Y-18115200I-165000J0D01*
G01*
X186785300Y-18115200D01*
G75*
G02*
X186620300Y-17950200I0J165000D01*
G01*
X186620300Y-17000200D01*
G75*
G02*
X186785300Y-16835200I165000J0D01*
G01*
X187115300Y-16835200D01*
G75*
G02*
X187280300Y-17000200I0J-165000D01*
G01*
G37*
G36*
G01*
X188360300Y-17000200D02*
X188360300Y-17950200D01*
G75*
G02*
X188195300Y-18115200I-165000J0D01*
G01*
X187865300Y-18115200D01*
G75*
G02*
X187700300Y-17950200I0J165000D01*
G01*
X187700300Y-17000200D01*
G75*
G02*
X187865300Y-16835200I165000J0D01*
G01*
X188195300Y-16835200D01*
G75*
G02*
X188360300Y-17000200I0J-165000D01*
G01*
G37*
G36*
G01*
X195117100Y-17950200D02*
X195117100Y-17000200D01*
G75*
G02*
X195282100Y-16835200I165000J0D01*
G01*
X195612100Y-16835200D01*
G75*
G02*
X195777100Y-17000200I0J-165000D01*
G01*
X195777100Y-17950200D01*
G75*
G02*
X195612100Y-18115200I-165000J0D01*
G01*
X195282100Y-18115200D01*
G75*
G02*
X195117100Y-17950200I0J165000D01*
G01*
G37*
G36*
G01*
X194037100Y-17950200D02*
X194037100Y-17000200D01*
G75*
G02*
X194202100Y-16835200I165000J0D01*
G01*
X194532100Y-16835200D01*
G75*
G02*
X194697100Y-17000200I0J-165000D01*
G01*
X194697100Y-17950200D01*
G75*
G02*
X194532100Y-18115200I-165000J0D01*
G01*
X194202100Y-18115200D01*
G75*
G02*
X194037100Y-17950200I0J165000D01*
G01*
G37*
G36*
G01*
X159289500Y-17000200D02*
X159289500Y-17950200D01*
G75*
G02*
X159124500Y-18115200I-165000J0D01*
G01*
X158794500Y-18115200D01*
G75*
G02*
X158629500Y-17950200I0J165000D01*
G01*
X158629500Y-17000200D01*
G75*
G02*
X158794500Y-16835200I165000J0D01*
G01*
X159124500Y-16835200D01*
G75*
G02*
X159289500Y-17000200I0J-165000D01*
G01*
G37*
G36*
G01*
X160369500Y-17000200D02*
X160369500Y-17950200D01*
G75*
G02*
X160204500Y-18115200I-165000J0D01*
G01*
X159874500Y-18115200D01*
G75*
G02*
X159709500Y-17950200I0J165000D01*
G01*
X159709500Y-17000200D01*
G75*
G02*
X159874500Y-16835200I165000J0D01*
G01*
X160204500Y-16835200D01*
G75*
G02*
X160369500Y-17000200I0J-165000D01*
G01*
G37*
G36*
G01*
X172933700Y-21096200D02*
X172633700Y-21096200D01*
G75*
G02*
X172483700Y-20946200I0J150000D01*
G01*
X172483700Y-19271200D01*
G75*
G02*
X172633700Y-19121200I150000J0D01*
G01*
X172933700Y-19121200D01*
G75*
G02*
X173083700Y-19271200I0J-150000D01*
G01*
X173083700Y-20946200D01*
G75*
G02*
X172933700Y-21096200I-150000J0D01*
G01*
G37*
G36*
G01*
X174203700Y-21096200D02*
X173903700Y-21096200D01*
G75*
G02*
X173753700Y-20946200I0J150000D01*
G01*
X173753700Y-19271200D01*
G75*
G02*
X173903700Y-19121200I150000J0D01*
G01*
X174203700Y-19121200D01*
G75*
G02*
X174353700Y-19271200I0J-150000D01*
G01*
X174353700Y-20946200D01*
G75*
G02*
X174203700Y-21096200I-150000J0D01*
G01*
G37*
G36*
G01*
X175473700Y-21096200D02*
X175173700Y-21096200D01*
G75*
G02*
X175023700Y-20946200I0J150000D01*
G01*
X175023700Y-19271200D01*
G75*
G02*
X175173700Y-19121200I150000J0D01*
G01*
X175473700Y-19121200D01*
G75*
G02*
X175623700Y-19271200I0J-150000D01*
G01*
X175623700Y-20946200D01*
G75*
G02*
X175473700Y-21096200I-150000J0D01*
G01*
G37*
G36*
G01*
X176743700Y-21096200D02*
X176443700Y-21096200D01*
G75*
G02*
X176293700Y-20946200I0J150000D01*
G01*
X176293700Y-19271200D01*
G75*
G02*
X176443700Y-19121200I150000J0D01*
G01*
X176743700Y-19121200D01*
G75*
G02*
X176893700Y-19271200I0J-150000D01*
G01*
X176893700Y-20946200D01*
G75*
G02*
X176743700Y-21096200I-150000J0D01*
G01*
G37*
G36*
G01*
X178013700Y-21096200D02*
X177713700Y-21096200D01*
G75*
G02*
X177563700Y-20946200I0J150000D01*
G01*
X177563700Y-19271200D01*
G75*
G02*
X177713700Y-19121200I150000J0D01*
G01*
X178013700Y-19121200D01*
G75*
G02*
X178163700Y-19271200I0J-150000D01*
G01*
X178163700Y-20946200D01*
G75*
G02*
X178013700Y-21096200I-150000J0D01*
G01*
G37*
G36*
G01*
X179283700Y-21096200D02*
X178983700Y-21096200D01*
G75*
G02*
X178833700Y-20946200I0J150000D01*
G01*
X178833700Y-19271200D01*
G75*
G02*
X178983700Y-19121200I150000J0D01*
G01*
X179283700Y-19121200D01*
G75*
G02*
X179433700Y-19271200I0J-150000D01*
G01*
X179433700Y-20946200D01*
G75*
G02*
X179283700Y-21096200I-150000J0D01*
G01*
G37*
G36*
G01*
X180553700Y-21096200D02*
X180253700Y-21096200D01*
G75*
G02*
X180103700Y-20946200I0J150000D01*
G01*
X180103700Y-19271200D01*
G75*
G02*
X180253700Y-19121200I150000J0D01*
G01*
X180553700Y-19121200D01*
G75*
G02*
X180703700Y-19271200I0J-150000D01*
G01*
X180703700Y-20946200D01*
G75*
G02*
X180553700Y-21096200I-150000J0D01*
G01*
G37*
G36*
G01*
X181823700Y-21096200D02*
X181523700Y-21096200D01*
G75*
G02*
X181373700Y-20946200I0J150000D01*
G01*
X181373700Y-19271200D01*
G75*
G02*
X181523700Y-19121200I150000J0D01*
G01*
X181823700Y-19121200D01*
G75*
G02*
X181973700Y-19271200I0J-150000D01*
G01*
X181973700Y-20946200D01*
G75*
G02*
X181823700Y-21096200I-150000J0D01*
G01*
G37*
G36*
G01*
X181823700Y-28021200D02*
X181523700Y-28021200D01*
G75*
G02*
X181373700Y-27871200I0J150000D01*
G01*
X181373700Y-26196200D01*
G75*
G02*
X181523700Y-26046200I150000J0D01*
G01*
X181823700Y-26046200D01*
G75*
G02*
X181973700Y-26196200I0J-150000D01*
G01*
X181973700Y-27871200D01*
G75*
G02*
X181823700Y-28021200I-150000J0D01*
G01*
G37*
G36*
G01*
X180553700Y-28021200D02*
X180253700Y-28021200D01*
G75*
G02*
X180103700Y-27871200I0J150000D01*
G01*
X180103700Y-26196200D01*
G75*
G02*
X180253700Y-26046200I150000J0D01*
G01*
X180553700Y-26046200D01*
G75*
G02*
X180703700Y-26196200I0J-150000D01*
G01*
X180703700Y-27871200D01*
G75*
G02*
X180553700Y-28021200I-150000J0D01*
G01*
G37*
G36*
G01*
X179283700Y-28021200D02*
X178983700Y-28021200D01*
G75*
G02*
X178833700Y-27871200I0J150000D01*
G01*
X178833700Y-26196200D01*
G75*
G02*
X178983700Y-26046200I150000J0D01*
G01*
X179283700Y-26046200D01*
G75*
G02*
X179433700Y-26196200I0J-150000D01*
G01*
X179433700Y-27871200D01*
G75*
G02*
X179283700Y-28021200I-150000J0D01*
G01*
G37*
G36*
G01*
X178013700Y-28021200D02*
X177713700Y-28021200D01*
G75*
G02*
X177563700Y-27871200I0J150000D01*
G01*
X177563700Y-26196200D01*
G75*
G02*
X177713700Y-26046200I150000J0D01*
G01*
X178013700Y-26046200D01*
G75*
G02*
X178163700Y-26196200I0J-150000D01*
G01*
X178163700Y-27871200D01*
G75*
G02*
X178013700Y-28021200I-150000J0D01*
G01*
G37*
G36*
G01*
X176743700Y-28021200D02*
X176443700Y-28021200D01*
G75*
G02*
X176293700Y-27871200I0J150000D01*
G01*
X176293700Y-26196200D01*
G75*
G02*
X176443700Y-26046200I150000J0D01*
G01*
X176743700Y-26046200D01*
G75*
G02*
X176893700Y-26196200I0J-150000D01*
G01*
X176893700Y-27871200D01*
G75*
G02*
X176743700Y-28021200I-150000J0D01*
G01*
G37*
G36*
G01*
X175473700Y-28021200D02*
X175173700Y-28021200D01*
G75*
G02*
X175023700Y-27871200I0J150000D01*
G01*
X175023700Y-26196200D01*
G75*
G02*
X175173700Y-26046200I150000J0D01*
G01*
X175473700Y-26046200D01*
G75*
G02*
X175623700Y-26196200I0J-150000D01*
G01*
X175623700Y-27871200D01*
G75*
G02*
X175473700Y-28021200I-150000J0D01*
G01*
G37*
G36*
G01*
X174203700Y-28021200D02*
X173903700Y-28021200D01*
G75*
G02*
X173753700Y-27871200I0J150000D01*
G01*
X173753700Y-26196200D01*
G75*
G02*
X173903700Y-26046200I150000J0D01*
G01*
X174203700Y-26046200D01*
G75*
G02*
X174353700Y-26196200I0J-150000D01*
G01*
X174353700Y-27871200D01*
G75*
G02*
X174203700Y-28021200I-150000J0D01*
G01*
G37*
G36*
G01*
X172933700Y-28021200D02*
X172633700Y-28021200D01*
G75*
G02*
X172483700Y-27871200I0J150000D01*
G01*
X172483700Y-26196200D01*
G75*
G02*
X172633700Y-26046200I150000J0D01*
G01*
X172933700Y-26046200D01*
G75*
G02*
X173083700Y-26196200I0J-150000D01*
G01*
X173083700Y-27871200D01*
G75*
G02*
X172933700Y-28021200I-150000J0D01*
G01*
G37*
D11*
X167017500Y-11257200D03*
X167017500Y-9977200D03*
X167017500Y-8717200D03*
X167017500Y-7447200D03*
X167017500Y-6167200D03*
X167017500Y-4897200D03*
X167017500Y-3637200D03*
X167017500Y-2357200D03*
X173317500Y-2357200D03*
X173317500Y-3637200D03*
X173317500Y-4897200D03*
X173317500Y-6167200D03*
X173317500Y-7447200D03*
X173317500Y-8717200D03*
X173317500Y-9977200D03*
X173317500Y-11257200D03*
D14*
X136631500Y33097000D03*
D15*
X136631500Y33097000D03*
X228631500Y33097000D03*
D14*
X228631500Y33097000D03*
G36*
G01*
X157372500Y14000502D02*
X157372500Y13100498D01*
G75*
G02*
X157122502Y12850500I-249998J0D01*
G01*
X156597498Y12850500D01*
G75*
G02*
X156347500Y13100498I0J249998D01*
G01*
X156347500Y14000502D01*
G75*
G02*
X156597498Y14250500I249998J0D01*
G01*
X157122502Y14250500D01*
G75*
G02*
X157372500Y14000502I0J-249998D01*
G01*
G37*
G36*
G01*
X159197500Y14000502D02*
X159197500Y13100498D01*
G75*
G02*
X158947502Y12850500I-249998J0D01*
G01*
X158422498Y12850500D01*
G75*
G02*
X158172500Y13100498I0J249998D01*
G01*
X158172500Y14000502D01*
G75*
G02*
X158422498Y14250500I249998J0D01*
G01*
X158947502Y14250500D01*
G75*
G02*
X159197500Y14000502I0J-249998D01*
G01*
G37*
G36*
G01*
X157372500Y22763502D02*
X157372500Y21863498D01*
G75*
G02*
X157122502Y21613500I-249998J0D01*
G01*
X156597498Y21613500D01*
G75*
G02*
X156347500Y21863498I0J249998D01*
G01*
X156347500Y22763502D01*
G75*
G02*
X156597498Y23013500I249998J0D01*
G01*
X157122502Y23013500D01*
G75*
G02*
X157372500Y22763502I0J-249998D01*
G01*
G37*
G36*
G01*
X159197500Y22763502D02*
X159197500Y21863498D01*
G75*
G02*
X158947502Y21613500I-249998J0D01*
G01*
X158422498Y21613500D01*
G75*
G02*
X158172500Y21863498I0J249998D01*
G01*
X158172500Y22763502D01*
G75*
G02*
X158422498Y23013500I249998J0D01*
G01*
X158947502Y23013500D01*
G75*
G02*
X159197500Y22763502I0J-249998D01*
G01*
G37*
G36*
G01*
X164826502Y21951500D02*
X163926498Y21951500D01*
G75*
G02*
X163676500Y22201498I0J249998D01*
G01*
X163676500Y22726502D01*
G75*
G02*
X163926498Y22976500I249998J0D01*
G01*
X164826502Y22976500D01*
G75*
G02*
X165076500Y22726502I0J-249998D01*
G01*
X165076500Y22201498D01*
G75*
G02*
X164826502Y21951500I-249998J0D01*
G01*
G37*
G36*
G01*
X164826502Y20126500D02*
X163926498Y20126500D01*
G75*
G02*
X163676500Y20376498I0J249998D01*
G01*
X163676500Y20901502D01*
G75*
G02*
X163926498Y21151500I249998J0D01*
G01*
X164826502Y21151500D01*
G75*
G02*
X165076500Y20901502I0J-249998D01*
G01*
X165076500Y20376498D01*
G75*
G02*
X164826502Y20126500I-249998J0D01*
G01*
G37*
G36*
G01*
X163926498Y13912500D02*
X164826502Y13912500D01*
G75*
G02*
X165076500Y13662502I0J-249998D01*
G01*
X165076500Y13137498D01*
G75*
G02*
X164826502Y12887500I-249998J0D01*
G01*
X163926498Y12887500D01*
G75*
G02*
X163676500Y13137498I0J249998D01*
G01*
X163676500Y13662502D01*
G75*
G02*
X163926498Y13912500I249998J0D01*
G01*
G37*
G36*
G01*
X163926498Y15737500D02*
X164826502Y15737500D01*
G75*
G02*
X165076500Y15487502I0J-249998D01*
G01*
X165076500Y14962498D01*
G75*
G02*
X164826502Y14712500I-249998J0D01*
G01*
X163926498Y14712500D01*
G75*
G02*
X163676500Y14962498I0J249998D01*
G01*
X163676500Y15487502D01*
G75*
G02*
X163926498Y15737500I249998J0D01*
G01*
G37*
D16*
X161392000Y13312500D03*
X160442000Y15312500D03*
X162342000Y15312500D03*
X161392000Y22551500D03*
X162342000Y20551500D03*
X160442000Y20551500D03*
D17*
X206159500Y38252000D03*
X223939500Y30632000D03*
X208699500Y38252000D03*
X221399500Y30632000D03*
X211239500Y38252000D03*
X218859500Y30632000D03*
X213779500Y38252000D03*
X216319500Y30632000D03*
X216319500Y38252000D03*
X213779500Y30632000D03*
X218859500Y38252000D03*
X211239500Y30632000D03*
X221399500Y38252000D03*
X208699500Y30632000D03*
X223939500Y38252000D03*
D18*
X206159500Y30632000D03*
G36*
G01*
X207335500Y4718500D02*
X208285500Y4718500D01*
G75*
G02*
X208535500Y4468500I0J-250000D01*
G01*
X208535500Y3968500D01*
G75*
G02*
X208285500Y3718500I-250000J0D01*
G01*
X207335500Y3718500D01*
G75*
G02*
X207085500Y3968500I0J250000D01*
G01*
X207085500Y4468500D01*
G75*
G02*
X207335500Y4718500I250000J0D01*
G01*
G37*
G36*
G01*
X207335500Y6618500D02*
X208285500Y6618500D01*
G75*
G02*
X208535500Y6368500I0J-250000D01*
G01*
X208535500Y5868500D01*
G75*
G02*
X208285500Y5618500I-250000J0D01*
G01*
X207335500Y5618500D01*
G75*
G02*
X207085500Y5868500I0J250000D01*
G01*
X207085500Y6368500D01*
G75*
G02*
X207335500Y6618500I250000J0D01*
G01*
G37*
G36*
G01*
X211063500Y6271000D02*
X211063500Y5971000D01*
G75*
G02*
X210913500Y5821000I-150000J0D01*
G01*
X209463500Y5821000D01*
G75*
G02*
X209313500Y5971000I0J150000D01*
G01*
X209313500Y6271000D01*
G75*
G02*
X209463500Y6421000I150000J0D01*
G01*
X210913500Y6421000D01*
G75*
G02*
X211063500Y6271000I0J-150000D01*
G01*
G37*
G36*
G01*
X211063500Y7541000D02*
X211063500Y7241000D01*
G75*
G02*
X210913500Y7091000I-150000J0D01*
G01*
X209463500Y7091000D01*
G75*
G02*
X209313500Y7241000I0J150000D01*
G01*
X209313500Y7541000D01*
G75*
G02*
X209463500Y7691000I150000J0D01*
G01*
X210913500Y7691000D01*
G75*
G02*
X211063500Y7541000I0J-150000D01*
G01*
G37*
G36*
G01*
X211063500Y8811000D02*
X211063500Y8511000D01*
G75*
G02*
X210913500Y8361000I-150000J0D01*
G01*
X209463500Y8361000D01*
G75*
G02*
X209313500Y8511000I0J150000D01*
G01*
X209313500Y8811000D01*
G75*
G02*
X209463500Y8961000I150000J0D01*
G01*
X210913500Y8961000D01*
G75*
G02*
X211063500Y8811000I0J-150000D01*
G01*
G37*
G36*
G01*
X211063500Y10081000D02*
X211063500Y9781000D01*
G75*
G02*
X210913500Y9631000I-150000J0D01*
G01*
X209463500Y9631000D01*
G75*
G02*
X209313500Y9781000I0J150000D01*
G01*
X209313500Y10081000D01*
G75*
G02*
X209463500Y10231000I150000J0D01*
G01*
X210913500Y10231000D01*
G75*
G02*
X211063500Y10081000I0J-150000D01*
G01*
G37*
G36*
G01*
X211063500Y11351000D02*
X211063500Y11051000D01*
G75*
G02*
X210913500Y10901000I-150000J0D01*
G01*
X209463500Y10901000D01*
G75*
G02*
X209313500Y11051000I0J150000D01*
G01*
X209313500Y11351000D01*
G75*
G02*
X209463500Y11501000I150000J0D01*
G01*
X210913500Y11501000D01*
G75*
G02*
X211063500Y11351000I0J-150000D01*
G01*
G37*
G36*
G01*
X211063500Y12621000D02*
X211063500Y12321000D01*
G75*
G02*
X210913500Y12171000I-150000J0D01*
G01*
X209463500Y12171000D01*
G75*
G02*
X209313500Y12321000I0J150000D01*
G01*
X209313500Y12621000D01*
G75*
G02*
X209463500Y12771000I150000J0D01*
G01*
X210913500Y12771000D01*
G75*
G02*
X211063500Y12621000I0J-150000D01*
G01*
G37*
G36*
G01*
X211063500Y13891000D02*
X211063500Y13591000D01*
G75*
G02*
X210913500Y13441000I-150000J0D01*
G01*
X209463500Y13441000D01*
G75*
G02*
X209313500Y13591000I0J150000D01*
G01*
X209313500Y13891000D01*
G75*
G02*
X209463500Y14041000I150000J0D01*
G01*
X210913500Y14041000D01*
G75*
G02*
X211063500Y13891000I0J-150000D01*
G01*
G37*
G36*
G01*
X211063500Y15161000D02*
X211063500Y14861000D01*
G75*
G02*
X210913500Y14711000I-150000J0D01*
G01*
X209463500Y14711000D01*
G75*
G02*
X209313500Y14861000I0J150000D01*
G01*
X209313500Y15161000D01*
G75*
G02*
X209463500Y15311000I150000J0D01*
G01*
X210913500Y15311000D01*
G75*
G02*
X211063500Y15161000I0J-150000D01*
G01*
G37*
G36*
G01*
X216213500Y15161000D02*
X216213500Y14861000D01*
G75*
G02*
X216063500Y14711000I-150000J0D01*
G01*
X214613500Y14711000D01*
G75*
G02*
X214463500Y14861000I0J150000D01*
G01*
X214463500Y15161000D01*
G75*
G02*
X214613500Y15311000I150000J0D01*
G01*
X216063500Y15311000D01*
G75*
G02*
X216213500Y15161000I0J-150000D01*
G01*
G37*
G36*
G01*
X216213500Y13891000D02*
X216213500Y13591000D01*
G75*
G02*
X216063500Y13441000I-150000J0D01*
G01*
X214613500Y13441000D01*
G75*
G02*
X214463500Y13591000I0J150000D01*
G01*
X214463500Y13891000D01*
G75*
G02*
X214613500Y14041000I150000J0D01*
G01*
X216063500Y14041000D01*
G75*
G02*
X216213500Y13891000I0J-150000D01*
G01*
G37*
G36*
G01*
X216213500Y12621000D02*
X216213500Y12321000D01*
G75*
G02*
X216063500Y12171000I-150000J0D01*
G01*
X214613500Y12171000D01*
G75*
G02*
X214463500Y12321000I0J150000D01*
G01*
X214463500Y12621000D01*
G75*
G02*
X214613500Y12771000I150000J0D01*
G01*
X216063500Y12771000D01*
G75*
G02*
X216213500Y12621000I0J-150000D01*
G01*
G37*
G36*
G01*
X216213500Y11351000D02*
X216213500Y11051000D01*
G75*
G02*
X216063500Y10901000I-150000J0D01*
G01*
X214613500Y10901000D01*
G75*
G02*
X214463500Y11051000I0J150000D01*
G01*
X214463500Y11351000D01*
G75*
G02*
X214613500Y11501000I150000J0D01*
G01*
X216063500Y11501000D01*
G75*
G02*
X216213500Y11351000I0J-150000D01*
G01*
G37*
G36*
G01*
X216213500Y10081000D02*
X216213500Y9781000D01*
G75*
G02*
X216063500Y9631000I-150000J0D01*
G01*
X214613500Y9631000D01*
G75*
G02*
X214463500Y9781000I0J150000D01*
G01*
X214463500Y10081000D01*
G75*
G02*
X214613500Y10231000I150000J0D01*
G01*
X216063500Y10231000D01*
G75*
G02*
X216213500Y10081000I0J-150000D01*
G01*
G37*
G36*
G01*
X216213500Y8811000D02*
X216213500Y8511000D01*
G75*
G02*
X216063500Y8361000I-150000J0D01*
G01*
X214613500Y8361000D01*
G75*
G02*
X214463500Y8511000I0J150000D01*
G01*
X214463500Y8811000D01*
G75*
G02*
X214613500Y8961000I150000J0D01*
G01*
X216063500Y8961000D01*
G75*
G02*
X216213500Y8811000I0J-150000D01*
G01*
G37*
G36*
G01*
X216213500Y7541000D02*
X216213500Y7241000D01*
G75*
G02*
X216063500Y7091000I-150000J0D01*
G01*
X214613500Y7091000D01*
G75*
G02*
X214463500Y7241000I0J150000D01*
G01*
X214463500Y7541000D01*
G75*
G02*
X214613500Y7691000I150000J0D01*
G01*
X216063500Y7691000D01*
G75*
G02*
X216213500Y7541000I0J-150000D01*
G01*
G37*
G36*
G01*
X216213500Y6271000D02*
X216213500Y5971000D01*
G75*
G02*
X216063500Y5821000I-150000J0D01*
G01*
X214613500Y5821000D01*
G75*
G02*
X214463500Y5971000I0J150000D01*
G01*
X214463500Y6271000D01*
G75*
G02*
X214613500Y6421000I150000J0D01*
G01*
X216063500Y6421000D01*
G75*
G02*
X216213500Y6271000I0J-150000D01*
G01*
G37*
G36*
G01*
X211063500Y18272500D02*
X211063500Y17972500D01*
G75*
G02*
X210913500Y17822500I-150000J0D01*
G01*
X209463500Y17822500D01*
G75*
G02*
X209313500Y17972500I0J150000D01*
G01*
X209313500Y18272500D01*
G75*
G02*
X209463500Y18422500I150000J0D01*
G01*
X210913500Y18422500D01*
G75*
G02*
X211063500Y18272500I0J-150000D01*
G01*
G37*
G36*
G01*
X211063500Y19542500D02*
X211063500Y19242500D01*
G75*
G02*
X210913500Y19092500I-150000J0D01*
G01*
X209463500Y19092500D01*
G75*
G02*
X209313500Y19242500I0J150000D01*
G01*
X209313500Y19542500D01*
G75*
G02*
X209463500Y19692500I150000J0D01*
G01*
X210913500Y19692500D01*
G75*
G02*
X211063500Y19542500I0J-150000D01*
G01*
G37*
G36*
G01*
X211063500Y20812500D02*
X211063500Y20512500D01*
G75*
G02*
X210913500Y20362500I-150000J0D01*
G01*
X209463500Y20362500D01*
G75*
G02*
X209313500Y20512500I0J150000D01*
G01*
X209313500Y20812500D01*
G75*
G02*
X209463500Y20962500I150000J0D01*
G01*
X210913500Y20962500D01*
G75*
G02*
X211063500Y20812500I0J-150000D01*
G01*
G37*
G36*
G01*
X211063500Y22082500D02*
X211063500Y21782500D01*
G75*
G02*
X210913500Y21632500I-150000J0D01*
G01*
X209463500Y21632500D01*
G75*
G02*
X209313500Y21782500I0J150000D01*
G01*
X209313500Y22082500D01*
G75*
G02*
X209463500Y22232500I150000J0D01*
G01*
X210913500Y22232500D01*
G75*
G02*
X211063500Y22082500I0J-150000D01*
G01*
G37*
G36*
G01*
X211063500Y23352500D02*
X211063500Y23052500D01*
G75*
G02*
X210913500Y22902500I-150000J0D01*
G01*
X209463500Y22902500D01*
G75*
G02*
X209313500Y23052500I0J150000D01*
G01*
X209313500Y23352500D01*
G75*
G02*
X209463500Y23502500I150000J0D01*
G01*
X210913500Y23502500D01*
G75*
G02*
X211063500Y23352500I0J-150000D01*
G01*
G37*
G36*
G01*
X211063500Y24622500D02*
X211063500Y24322500D01*
G75*
G02*
X210913500Y24172500I-150000J0D01*
G01*
X209463500Y24172500D01*
G75*
G02*
X209313500Y24322500I0J150000D01*
G01*
X209313500Y24622500D01*
G75*
G02*
X209463500Y24772500I150000J0D01*
G01*
X210913500Y24772500D01*
G75*
G02*
X211063500Y24622500I0J-150000D01*
G01*
G37*
G36*
G01*
X211063500Y25892500D02*
X211063500Y25592500D01*
G75*
G02*
X210913500Y25442500I-150000J0D01*
G01*
X209463500Y25442500D01*
G75*
G02*
X209313500Y25592500I0J150000D01*
G01*
X209313500Y25892500D01*
G75*
G02*
X209463500Y26042500I150000J0D01*
G01*
X210913500Y26042500D01*
G75*
G02*
X211063500Y25892500I0J-150000D01*
G01*
G37*
G36*
G01*
X211063500Y27162500D02*
X211063500Y26862500D01*
G75*
G02*
X210913500Y26712500I-150000J0D01*
G01*
X209463500Y26712500D01*
G75*
G02*
X209313500Y26862500I0J150000D01*
G01*
X209313500Y27162500D01*
G75*
G02*
X209463500Y27312500I150000J0D01*
G01*
X210913500Y27312500D01*
G75*
G02*
X211063500Y27162500I0J-150000D01*
G01*
G37*
G36*
G01*
X216213500Y27162500D02*
X216213500Y26862500D01*
G75*
G02*
X216063500Y26712500I-150000J0D01*
G01*
X214613500Y26712500D01*
G75*
G02*
X214463500Y26862500I0J150000D01*
G01*
X214463500Y27162500D01*
G75*
G02*
X214613500Y27312500I150000J0D01*
G01*
X216063500Y27312500D01*
G75*
G02*
X216213500Y27162500I0J-150000D01*
G01*
G37*
G36*
G01*
X216213500Y25892500D02*
X216213500Y25592500D01*
G75*
G02*
X216063500Y25442500I-150000J0D01*
G01*
X214613500Y25442500D01*
G75*
G02*
X214463500Y25592500I0J150000D01*
G01*
X214463500Y25892500D01*
G75*
G02*
X214613500Y26042500I150000J0D01*
G01*
X216063500Y26042500D01*
G75*
G02*
X216213500Y25892500I0J-150000D01*
G01*
G37*
G36*
G01*
X216213500Y24622500D02*
X216213500Y24322500D01*
G75*
G02*
X216063500Y24172500I-150000J0D01*
G01*
X214613500Y24172500D01*
G75*
G02*
X214463500Y24322500I0J150000D01*
G01*
X214463500Y24622500D01*
G75*
G02*
X214613500Y24772500I150000J0D01*
G01*
X216063500Y24772500D01*
G75*
G02*
X216213500Y24622500I0J-150000D01*
G01*
G37*
G36*
G01*
X216213500Y23352500D02*
X216213500Y23052500D01*
G75*
G02*
X216063500Y22902500I-150000J0D01*
G01*
X214613500Y22902500D01*
G75*
G02*
X214463500Y23052500I0J150000D01*
G01*
X214463500Y23352500D01*
G75*
G02*
X214613500Y23502500I150000J0D01*
G01*
X216063500Y23502500D01*
G75*
G02*
X216213500Y23352500I0J-150000D01*
G01*
G37*
G36*
G01*
X216213500Y22082500D02*
X216213500Y21782500D01*
G75*
G02*
X216063500Y21632500I-150000J0D01*
G01*
X214613500Y21632500D01*
G75*
G02*
X214463500Y21782500I0J150000D01*
G01*
X214463500Y22082500D01*
G75*
G02*
X214613500Y22232500I150000J0D01*
G01*
X216063500Y22232500D01*
G75*
G02*
X216213500Y22082500I0J-150000D01*
G01*
G37*
G36*
G01*
X216213500Y20812500D02*
X216213500Y20512500D01*
G75*
G02*
X216063500Y20362500I-150000J0D01*
G01*
X214613500Y20362500D01*
G75*
G02*
X214463500Y20512500I0J150000D01*
G01*
X214463500Y20812500D01*
G75*
G02*
X214613500Y20962500I150000J0D01*
G01*
X216063500Y20962500D01*
G75*
G02*
X216213500Y20812500I0J-150000D01*
G01*
G37*
G36*
G01*
X216213500Y19542500D02*
X216213500Y19242500D01*
G75*
G02*
X216063500Y19092500I-150000J0D01*
G01*
X214613500Y19092500D01*
G75*
G02*
X214463500Y19242500I0J150000D01*
G01*
X214463500Y19542500D01*
G75*
G02*
X214613500Y19692500I150000J0D01*
G01*
X216063500Y19692500D01*
G75*
G02*
X216213500Y19542500I0J-150000D01*
G01*
G37*
G36*
G01*
X216213500Y18272500D02*
X216213500Y17972500D01*
G75*
G02*
X216063500Y17822500I-150000J0D01*
G01*
X214613500Y17822500D01*
G75*
G02*
X214463500Y17972500I0J150000D01*
G01*
X214463500Y18272500D01*
G75*
G02*
X214613500Y18422500I150000J0D01*
G01*
X216063500Y18422500D01*
G75*
G02*
X216213500Y18272500I0J-150000D01*
G01*
G37*
G36*
G01*
X207335500Y16720000D02*
X208285500Y16720000D01*
G75*
G02*
X208535500Y16470000I0J-250000D01*
G01*
X208535500Y15970000D01*
G75*
G02*
X208285500Y15720000I-250000J0D01*
G01*
X207335500Y15720000D01*
G75*
G02*
X207085500Y15970000I0J250000D01*
G01*
X207085500Y16470000D01*
G75*
G02*
X207335500Y16720000I250000J0D01*
G01*
G37*
G36*
G01*
X207335500Y18620000D02*
X208285500Y18620000D01*
G75*
G02*
X208535500Y18370000I0J-250000D01*
G01*
X208535500Y17870000D01*
G75*
G02*
X208285500Y17620000I-250000J0D01*
G01*
X207335500Y17620000D01*
G75*
G02*
X207085500Y17870000I0J250000D01*
G01*
X207085500Y18370000D01*
G75*
G02*
X207335500Y18620000I250000J0D01*
G01*
G37*
D19*
X142151500Y13042500D03*
G36*
G01*
X146088500Y35331000D02*
X146088500Y36093000D01*
G75*
G02*
X146469500Y36474000I381000J0D01*
G01*
X147231500Y36474000D01*
G75*
G02*
X147612500Y36093000I0J-381000D01*
G01*
X147612500Y35331000D01*
G75*
G02*
X147231500Y34950000I-381000J0D01*
G01*
X146469500Y34950000D01*
G75*
G02*
X146088500Y35331000I0J381000D01*
G01*
G37*
D20*
X149390500Y35712000D03*
X151930500Y35712000D03*
X157010500Y35712000D03*
X159550500Y35712000D03*
X162090500Y35712000D03*
X164630500Y35712000D03*
D19*
X135801500Y13042500D03*
X138976500Y13042500D03*
D21*
X169710500Y35307500D03*
D18*
X169710500Y37807500D03*
G36*
G01*
X182822000Y4221500D02*
X181872000Y4221500D01*
G75*
G02*
X181622000Y4471500I0J250000D01*
G01*
X181622000Y4971500D01*
G75*
G02*
X181872000Y5221500I250000J0D01*
G01*
X182822000Y5221500D01*
G75*
G02*
X183072000Y4971500I0J-250000D01*
G01*
X183072000Y4471500D01*
G75*
G02*
X182822000Y4221500I-250000J0D01*
G01*
G37*
G36*
G01*
X182822000Y2321500D02*
X181872000Y2321500D01*
G75*
G02*
X181622000Y2571500I0J250000D01*
G01*
X181622000Y3071500D01*
G75*
G02*
X181872000Y3321500I250000J0D01*
G01*
X182822000Y3321500D01*
G75*
G02*
X183072000Y3071500I0J-250000D01*
G01*
X183072000Y2571500D01*
G75*
G02*
X182822000Y2321500I-250000J0D01*
G01*
G37*
G36*
G01*
X152979500Y21736500D02*
X153929500Y21736500D01*
G75*
G02*
X154179500Y21486500I0J-250000D01*
G01*
X154179500Y20986500D01*
G75*
G02*
X153929500Y20736500I-250000J0D01*
G01*
X152979500Y20736500D01*
G75*
G02*
X152729500Y20986500I0J250000D01*
G01*
X152729500Y21486500D01*
G75*
G02*
X152979500Y21736500I250000J0D01*
G01*
G37*
G36*
G01*
X152979500Y23636500D02*
X153929500Y23636500D01*
G75*
G02*
X154179500Y23386500I0J-250000D01*
G01*
X154179500Y22886500D01*
G75*
G02*
X153929500Y22636500I-250000J0D01*
G01*
X152979500Y22636500D01*
G75*
G02*
X152729500Y22886500I0J250000D01*
G01*
X152729500Y23386500D01*
G75*
G02*
X152979500Y23636500I250000J0D01*
G01*
G37*
G36*
G01*
X145472500Y17608998D02*
X145472500Y18509002D01*
G75*
G02*
X145722498Y18759000I249998J0D01*
G01*
X146247502Y18759000D01*
G75*
G02*
X146497500Y18509002I0J-249998D01*
G01*
X146497500Y17608998D01*
G75*
G02*
X146247502Y17359000I-249998J0D01*
G01*
X145722498Y17359000D01*
G75*
G02*
X145472500Y17608998I0J249998D01*
G01*
G37*
G36*
G01*
X143647500Y17608998D02*
X143647500Y18509002D01*
G75*
G02*
X143897498Y18759000I249998J0D01*
G01*
X144422502Y18759000D01*
G75*
G02*
X144672500Y18509002I0J-249998D01*
G01*
X144672500Y17608998D01*
G75*
G02*
X144422502Y17359000I-249998J0D01*
G01*
X143897498Y17359000D01*
G75*
G02*
X143647500Y17608998I0J249998D01*
G01*
G37*
G36*
G01*
X147001500Y20431500D02*
X147001500Y20131500D01*
G75*
G02*
X146851500Y19981500I-150000J0D01*
G01*
X145201500Y19981500D01*
G75*
G02*
X145051500Y20131500I0J150000D01*
G01*
X145051500Y20431500D01*
G75*
G02*
X145201500Y20581500I150000J0D01*
G01*
X146851500Y20581500D01*
G75*
G02*
X147001500Y20431500I0J-150000D01*
G01*
G37*
G36*
G01*
X147001500Y21701500D02*
X147001500Y21401500D01*
G75*
G02*
X146851500Y21251500I-150000J0D01*
G01*
X145201500Y21251500D01*
G75*
G02*
X145051500Y21401500I0J150000D01*
G01*
X145051500Y21701500D01*
G75*
G02*
X145201500Y21851500I150000J0D01*
G01*
X146851500Y21851500D01*
G75*
G02*
X147001500Y21701500I0J-150000D01*
G01*
G37*
G36*
G01*
X147001500Y22971500D02*
X147001500Y22671500D01*
G75*
G02*
X146851500Y22521500I-150000J0D01*
G01*
X145201500Y22521500D01*
G75*
G02*
X145051500Y22671500I0J150000D01*
G01*
X145051500Y22971500D01*
G75*
G02*
X145201500Y23121500I150000J0D01*
G01*
X146851500Y23121500D01*
G75*
G02*
X147001500Y22971500I0J-150000D01*
G01*
G37*
G36*
G01*
X147001500Y24241500D02*
X147001500Y23941500D01*
G75*
G02*
X146851500Y23791500I-150000J0D01*
G01*
X145201500Y23791500D01*
G75*
G02*
X145051500Y23941500I0J150000D01*
G01*
X145051500Y24241500D01*
G75*
G02*
X145201500Y24391500I150000J0D01*
G01*
X146851500Y24391500D01*
G75*
G02*
X147001500Y24241500I0J-150000D01*
G01*
G37*
G36*
G01*
X151951500Y24241500D02*
X151951500Y23941500D01*
G75*
G02*
X151801500Y23791500I-150000J0D01*
G01*
X150151500Y23791500D01*
G75*
G02*
X150001500Y23941500I0J150000D01*
G01*
X150001500Y24241500D01*
G75*
G02*
X150151500Y24391500I150000J0D01*
G01*
X151801500Y24391500D01*
G75*
G02*
X151951500Y24241500I0J-150000D01*
G01*
G37*
G36*
G01*
X151951500Y22971500D02*
X151951500Y22671500D01*
G75*
G02*
X151801500Y22521500I-150000J0D01*
G01*
X150151500Y22521500D01*
G75*
G02*
X150001500Y22671500I0J150000D01*
G01*
X150001500Y22971500D01*
G75*
G02*
X150151500Y23121500I150000J0D01*
G01*
X151801500Y23121500D01*
G75*
G02*
X151951500Y22971500I0J-150000D01*
G01*
G37*
G36*
G01*
X151951500Y21701500D02*
X151951500Y21401500D01*
G75*
G02*
X151801500Y21251500I-150000J0D01*
G01*
X150151500Y21251500D01*
G75*
G02*
X150001500Y21401500I0J150000D01*
G01*
X150001500Y21701500D01*
G75*
G02*
X150151500Y21851500I150000J0D01*
G01*
X151801500Y21851500D01*
G75*
G02*
X151951500Y21701500I0J-150000D01*
G01*
G37*
G36*
G01*
X151951500Y20431500D02*
X151951500Y20131500D01*
G75*
G02*
X151801500Y19981500I-150000J0D01*
G01*
X150151500Y19981500D01*
G75*
G02*
X150001500Y20131500I0J150000D01*
G01*
X150001500Y20431500D01*
G75*
G02*
X150151500Y20581500I150000J0D01*
G01*
X151801500Y20581500D01*
G75*
G02*
X151951500Y20431500I0J-150000D01*
G01*
G37*
G36*
G01*
X230562500Y-425002D02*
X230562500Y475002D01*
G75*
G02*
X230812498Y725000I249998J0D01*
G01*
X231337502Y725000D01*
G75*
G02*
X231587500Y475002I0J-249998D01*
G01*
X231587500Y-425002D01*
G75*
G02*
X231337502Y-675000I-249998J0D01*
G01*
X230812498Y-675000D01*
G75*
G02*
X230562500Y-425002I0J249998D01*
G01*
G37*
G36*
G01*
X228737500Y-425002D02*
X228737500Y475002D01*
G75*
G02*
X228987498Y725000I249998J0D01*
G01*
X229512502Y725000D01*
G75*
G02*
X229762500Y475002I0J-249998D01*
G01*
X229762500Y-425002D01*
G75*
G02*
X229512502Y-675000I-249998J0D01*
G01*
X228987498Y-675000D01*
G75*
G02*
X228737500Y-425002I0J249998D01*
G01*
G37*
G36*
G01*
X230562500Y2876998D02*
X230562500Y3777002D01*
G75*
G02*
X230812498Y4027000I249998J0D01*
G01*
X231337502Y4027000D01*
G75*
G02*
X231587500Y3777002I0J-249998D01*
G01*
X231587500Y2876998D01*
G75*
G02*
X231337502Y2627000I-249998J0D01*
G01*
X230812498Y2627000D01*
G75*
G02*
X230562500Y2876998I0J249998D01*
G01*
G37*
G36*
G01*
X228737500Y2876998D02*
X228737500Y3777002D01*
G75*
G02*
X228987498Y4027000I249998J0D01*
G01*
X229512502Y4027000D01*
G75*
G02*
X229762500Y3777002I0J-249998D01*
G01*
X229762500Y2876998D01*
G75*
G02*
X229512502Y2627000I-249998J0D01*
G01*
X228987498Y2627000D01*
G75*
G02*
X228737500Y2876998I0J249998D01*
G01*
G37*
G36*
G01*
X230562500Y6242498D02*
X230562500Y7142502D01*
G75*
G02*
X230812498Y7392500I249998J0D01*
G01*
X231337502Y7392500D01*
G75*
G02*
X231587500Y7142502I0J-249998D01*
G01*
X231587500Y6242498D01*
G75*
G02*
X231337502Y5992500I-249998J0D01*
G01*
X230812498Y5992500D01*
G75*
G02*
X230562500Y6242498I0J249998D01*
G01*
G37*
G36*
G01*
X228737500Y6242498D02*
X228737500Y7142502D01*
G75*
G02*
X228987498Y7392500I249998J0D01*
G01*
X229512502Y7392500D01*
G75*
G02*
X229762500Y7142502I0J-249998D01*
G01*
X229762500Y6242498D01*
G75*
G02*
X229512502Y5992500I-249998J0D01*
G01*
X228987498Y5992500D01*
G75*
G02*
X228737500Y6242498I0J249998D01*
G01*
G37*
G36*
G01*
X230562500Y9480998D02*
X230562500Y10381002D01*
G75*
G02*
X230812498Y10631000I249998J0D01*
G01*
X231337502Y10631000D01*
G75*
G02*
X231587500Y10381002I0J-249998D01*
G01*
X231587500Y9480998D01*
G75*
G02*
X231337502Y9231000I-249998J0D01*
G01*
X230812498Y9231000D01*
G75*
G02*
X230562500Y9480998I0J249998D01*
G01*
G37*
G36*
G01*
X228737500Y9480998D02*
X228737500Y10381002D01*
G75*
G02*
X228987498Y10631000I249998J0D01*
G01*
X229512502Y10631000D01*
G75*
G02*
X229762500Y10381002I0J-249998D01*
G01*
X229762500Y9480998D01*
G75*
G02*
X229512502Y9231000I-249998J0D01*
G01*
X228987498Y9231000D01*
G75*
G02*
X228737500Y9480998I0J249998D01*
G01*
G37*
G36*
G01*
X230562500Y12782998D02*
X230562500Y13683002D01*
G75*
G02*
X230812498Y13933000I249998J0D01*
G01*
X231337502Y13933000D01*
G75*
G02*
X231587500Y13683002I0J-249998D01*
G01*
X231587500Y12782998D01*
G75*
G02*
X231337502Y12533000I-249998J0D01*
G01*
X230812498Y12533000D01*
G75*
G02*
X230562500Y12782998I0J249998D01*
G01*
G37*
G36*
G01*
X228737500Y12782998D02*
X228737500Y13683002D01*
G75*
G02*
X228987498Y13933000I249998J0D01*
G01*
X229512502Y13933000D01*
G75*
G02*
X229762500Y13683002I0J-249998D01*
G01*
X229762500Y12782998D01*
G75*
G02*
X229512502Y12533000I-249998J0D01*
G01*
X228987498Y12533000D01*
G75*
G02*
X228737500Y12782998I0J249998D01*
G01*
G37*
G36*
G01*
X230562500Y16084998D02*
X230562500Y16985002D01*
G75*
G02*
X230812498Y17235000I249998J0D01*
G01*
X231337502Y17235000D01*
G75*
G02*
X231587500Y16985002I0J-249998D01*
G01*
X231587500Y16084998D01*
G75*
G02*
X231337502Y15835000I-249998J0D01*
G01*
X230812498Y15835000D01*
G75*
G02*
X230562500Y16084998I0J249998D01*
G01*
G37*
G36*
G01*
X228737500Y16084998D02*
X228737500Y16985002D01*
G75*
G02*
X228987498Y17235000I249998J0D01*
G01*
X229512502Y17235000D01*
G75*
G02*
X229762500Y16985002I0J-249998D01*
G01*
X229762500Y16084998D01*
G75*
G02*
X229512502Y15835000I-249998J0D01*
G01*
X228987498Y15835000D01*
G75*
G02*
X228737500Y16084998I0J249998D01*
G01*
G37*
G36*
G01*
X230562500Y19386998D02*
X230562500Y20287002D01*
G75*
G02*
X230812498Y20537000I249998J0D01*
G01*
X231337502Y20537000D01*
G75*
G02*
X231587500Y20287002I0J-249998D01*
G01*
X231587500Y19386998D01*
G75*
G02*
X231337502Y19137000I-249998J0D01*
G01*
X230812498Y19137000D01*
G75*
G02*
X230562500Y19386998I0J249998D01*
G01*
G37*
G36*
G01*
X228737500Y19386998D02*
X228737500Y20287002D01*
G75*
G02*
X228987498Y20537000I249998J0D01*
G01*
X229512502Y20537000D01*
G75*
G02*
X229762500Y20287002I0J-249998D01*
G01*
X229762500Y19386998D01*
G75*
G02*
X229512502Y19137000I-249998J0D01*
G01*
X228987498Y19137000D01*
G75*
G02*
X228737500Y19386998I0J249998D01*
G01*
G37*
G36*
G01*
X230562500Y22688998D02*
X230562500Y23589002D01*
G75*
G02*
X230812498Y23839000I249998J0D01*
G01*
X231337502Y23839000D01*
G75*
G02*
X231587500Y23589002I0J-249998D01*
G01*
X231587500Y22688998D01*
G75*
G02*
X231337502Y22439000I-249998J0D01*
G01*
X230812498Y22439000D01*
G75*
G02*
X230562500Y22688998I0J249998D01*
G01*
G37*
G36*
G01*
X228737500Y22688998D02*
X228737500Y23589002D01*
G75*
G02*
X228987498Y23839000I249998J0D01*
G01*
X229512502Y23839000D01*
G75*
G02*
X229762500Y23589002I0J-249998D01*
G01*
X229762500Y22688998D01*
G75*
G02*
X229512502Y22439000I-249998J0D01*
G01*
X228987498Y22439000D01*
G75*
G02*
X228737500Y22688998I0J249998D01*
G01*
G37*
G36*
G01*
X230562500Y25990998D02*
X230562500Y26891002D01*
G75*
G02*
X230812498Y27141000I249998J0D01*
G01*
X231337502Y27141000D01*
G75*
G02*
X231587500Y26891002I0J-249998D01*
G01*
X231587500Y25990998D01*
G75*
G02*
X231337502Y25741000I-249998J0D01*
G01*
X230812498Y25741000D01*
G75*
G02*
X230562500Y25990998I0J249998D01*
G01*
G37*
G36*
G01*
X228737500Y25990998D02*
X228737500Y26891002D01*
G75*
G02*
X228987498Y27141000I249998J0D01*
G01*
X229512502Y27141000D01*
G75*
G02*
X229762500Y26891002I0J-249998D01*
G01*
X229762500Y25990998D01*
G75*
G02*
X229512502Y25741000I-249998J0D01*
G01*
X228987498Y25741000D01*
G75*
G02*
X228737500Y25990998I0J249998D01*
G01*
G37*
D22*
X173838000Y35712000D03*
X180338000Y35712000D03*
X173838000Y31212000D03*
X180338000Y31212000D03*
D23*
X224701500Y26441000D03*
D24*
X227241500Y26441000D03*
D17*
X153454500Y27203000D03*
D21*
X145834500Y27203000D03*
D25*
X136690500Y17043000D03*
X136690500Y19583000D03*
X136690500Y22123000D03*
X136690500Y24663000D03*
D26*
X136690500Y27203000D03*
D27*
X185077500Y2717000D03*
X200317500Y35737000D03*
X185077500Y5257000D03*
X200317500Y33197000D03*
X185077500Y7797000D03*
X200317500Y30657000D03*
X185077500Y10337000D03*
X200317500Y28117000D03*
X185077500Y12877000D03*
X200317500Y25577000D03*
X185077500Y15417000D03*
X200317500Y23037000D03*
X185077500Y17957000D03*
X200317500Y20497000D03*
X185077500Y20497000D03*
X200317500Y17957000D03*
X185077500Y23037000D03*
X200317500Y15417000D03*
X185077500Y25577000D03*
X200317500Y12877000D03*
X185077500Y28117000D03*
X200317500Y10337000D03*
X185077500Y30657000D03*
X200317500Y7797000D03*
X185077500Y33197000D03*
X200317500Y5257000D03*
X185077500Y35737000D03*
D28*
X200317500Y2717000D03*
D23*
X224701500Y25000D03*
D24*
X227241500Y25000D03*
D23*
X224701500Y3327000D03*
D24*
X227241500Y3327000D03*
D23*
X224701500Y6629000D03*
D24*
X227241500Y6629000D03*
D23*
X224701500Y9931000D03*
D24*
X227241500Y9931000D03*
D27*
X165138500Y27584000D03*
X157518500Y25044000D03*
X165138500Y25044000D03*
D28*
X157518500Y27584000D03*
D23*
X224701500Y13233000D03*
D24*
X227241500Y13233000D03*
D23*
X224701500Y16535000D03*
D24*
X227241500Y16535000D03*
D23*
X224701500Y19837000D03*
D24*
X227241500Y19837000D03*
D23*
X224701500Y23139000D03*
D24*
X227241500Y23139000D03*
D29*
X142225000Y36982000D03*
X142215000Y31902000D03*
D14*
X228626500Y-37923000D03*
D15*
X228626500Y-37923000D03*
X136626500Y-37923000D03*
D14*
X136626500Y-37923000D03*
M02*
