M48
; DRILL file {KiCad (5.1.9-0-10_14)} date Saturday, February 04, 2023 at 12:07:51 PM
; FORMAT={-:-/ absolute / metric / decimal}
; #@! TF.CreationDate,2023-02-04T12:07:51+01:00
; #@! TF.GenerationSoftware,Kicad,Pcbnew,(5.1.9-0-10_14)
FMAT,2
METRIC
T1C0.400
T2C0.700
T3C0.762
T4C0.800
T5C0.900
T6C1.000
T7C1.200
T8C3.200
%
G90
G05
T1
X138.088Y20.853
X141.72Y18.161
X149.391Y33.236
X150.635Y27.228
X151.867Y33.236
X153.48Y18.161
X156.82Y19.265
X160.007Y-15.697
X161.483Y-4.217
X161.483Y-5.537
X161.483Y-6.877
X162.344Y19.265
X163.868Y-4.928
X164.376Y16.68
X165.291Y-6.167
X165.291Y-7.447
X165.291Y-8.717
X166.408Y-15.697
X166.497Y11.099
X168.389Y-3.637
X169.609Y-15.697
X171.691Y-11.278
X174.079Y-15.697
X174.993Y-6.147
X174.993Y-7.447
X174.993Y-8.717
X176.568Y-4.877
X178.851Y-4.216
X178.851Y-5.537
X178.851Y-6.858
X180.378Y-15.697
X181.61Y9.779
X181.801Y-11.278
X181.966Y30.124
X186.627Y-11.278
X186.652Y29.387
X186.652Y26.847
X186.652Y21.767
X186.665Y34.505
X186.665Y31.965
X186.665Y19.202
X186.665Y14.185
X186.665Y11.646
X186.728Y1.041
X187.554Y0.025
X188.049Y-15.697
X188.633Y0.025
X189.627Y-4.216
X189.627Y-5.537
X189.627Y-6.851
X189.649Y0.025
X190.665Y0.025
X191.681Y0.025
X191.808Y-4.877
X192.697Y0.025
X193.434Y-6.167
X193.434Y-7.447
X193.434Y-8.717
X193.713Y0.025
X194.348Y-15.697
X194.73Y0.025
X195.745Y0.025
X196.761Y0.025
X196.817Y-2.357
X197.079Y23.012
X197.599Y-15.697
X197.778Y0.025
X198.666Y1.041
X198.73Y19.265
X198.743Y34.467
X198.743Y31.927
X198.743Y26.847
X198.768Y29.387
X199.631Y-11.257
X202.07Y-15.697
X203.137Y-6.147
X203.137Y-7.447
X203.137Y-8.717
X203.638Y36.747
X203.645Y39.039
X204.61Y-4.877
X204.635Y12.471
X204.635Y5.264
X204.762Y32.346
X204.762Y29.362
X204.762Y28.282
X204.762Y27.203
X204.762Y25.996
X205.397Y7.772
X206.159Y24.473
X206.286Y10.312
X206.997Y-4.216
X206.997Y-5.537
X206.997Y-6.858
X207.175Y15.011
X207.429Y37.084
X208.42Y-15.697
X208.509Y9.677
X208.7Y23.203
X210.224Y16.535
X211.684Y21.932
X212.065Y28.282
X212.446Y18.122
X212.827Y28.981
X212.954Y19.392
X213.779Y20.662
X216.827Y20.662
X217.716Y6.121
X218.605Y7.391
X218.859Y21.932
X219.494Y8.661
X220.383Y13.741
X220.536Y21.717
X221.272Y12.407
X221.399Y23.203
X222.161Y11.201
X223.05Y9.931
X223.368Y24.473
X228.689Y38.252
T2
X135.802Y13.042
X138.976Y13.042
X142.151Y13.042
T3
X146.85Y35.712
X149.391Y35.712
X151.93Y35.712
X157.01Y35.712
X159.55Y35.712
X162.09Y35.712
X164.63Y35.712
T4
X145.834Y27.203
X153.454Y27.203
X157.518Y27.584
X157.518Y25.044
X165.138Y27.584
X165.138Y25.044
X169.71Y37.807
X169.71Y35.307
X185.077Y35.737
X185.077Y33.197
X185.077Y30.657
X185.077Y28.117
X185.077Y25.577
X185.077Y23.037
X185.077Y20.497
X185.077Y17.957
X185.077Y15.417
X185.077Y12.877
X185.077Y10.337
X185.077Y7.797
X185.077Y5.257
X185.077Y2.717
X200.317Y35.737
X200.317Y33.197
X200.317Y30.657
X200.317Y28.117
X200.317Y25.577
X200.317Y23.037
X200.317Y20.497
X200.317Y17.957
X200.317Y15.417
X200.317Y12.877
X200.317Y10.337
X200.317Y7.797
X200.317Y5.257
X200.317Y2.717
X206.159Y38.252
X206.159Y30.632
X208.7Y38.252
X208.7Y30.632
X211.239Y38.252
X211.239Y30.632
X213.779Y38.252
X213.779Y30.632
X216.319Y38.252
X216.319Y30.632
X218.859Y38.252
X218.859Y30.632
X221.399Y38.252
X221.399Y30.632
X223.939Y38.252
X223.939Y30.632
T5
X224.701Y26.441
X224.701Y23.139
X224.701Y19.837
X224.701Y16.535
X224.701Y13.233
X224.701Y9.931
X224.701Y6.629
X224.701Y3.327
X224.701Y0.025
X227.242Y26.441
X227.242Y23.139
X227.242Y19.837
X227.242Y16.535
X227.242Y13.233
X227.242Y9.931
X227.242Y6.629
X227.242Y3.327
X227.242Y0.025
T6
X142.215Y31.902
X142.225Y36.982
X173.838Y35.712
X173.838Y31.212
X180.338Y35.712
X180.338Y31.212
T7
X136.69Y27.203
X136.69Y24.663
X136.69Y22.123
X136.69Y19.583
X136.69Y17.043
X154.491Y-40.589
X157.991Y-40.589
X161.491Y-40.589
X164.991Y-40.589
X168.491Y-40.589
X171.991Y-40.589
X175.491Y-40.589
X178.991Y-40.589
X182.491Y-40.589
X185.987Y-40.589
X189.487Y-40.589
X192.987Y-40.589
X196.487Y-40.589
X199.987Y-40.589
X203.487Y-40.589
X206.987Y-40.589
X210.487Y-40.589
X213.987Y-40.589
T8
X136.626Y-37.923
X136.631Y33.097
X228.626Y-37.923
X228.631Y33.097
T0
M30
