G04 #@! TF.GenerationSoftware,KiCad,Pcbnew,(5.1.9-0-10_14)*
G04 #@! TF.CreationDate,2023-02-04T12:07:43+01:00*
G04 #@! TF.ProjectId,PDJRSIM,53494d31-3038-42e6-9b69-6361645f7063,221101*
G04 #@! TF.SameCoordinates,Original*
G04 #@! TF.FileFunction,Soldermask,Bot*
G04 #@! TF.FilePolarity,Negative*
%FSLAX46Y46*%
G04 Gerber Fmt 4.6, Leading zero omitted, Abs format (unit mm)*
G04 Created by KiCad (PCBNEW (5.1.9-0-10_14)) date 2023-02-04 12:07:43*
%MOMM*%
%LPD*%
G01*
G04 APERTURE LIST*
%ADD10O,1.500000X3.000000*%
%ADD11C,3.600000*%
%ADD12C,5.600000*%
%ADD13O,1.600000X1.600000*%
%ADD14R,1.600000X1.600000*%
%ADD15R,1.500000X1.500000*%
%ADD16C,1.524000*%
%ADD17C,1.600000*%
%ADD18C,1.700000*%
%ADD19C,1.800000*%
%ADD20R,1.800000X1.800000*%
%ADD21O,2.000000X2.000000*%
%ADD22R,2.000000X2.000000*%
%ADD23O,2.400000X1.600000*%
%ADD24R,2.400000X1.600000*%
%ADD25C,2.000000*%
G04 APERTURE END LIST*
D10*
X213987100Y-40589200D03*
X210487100Y-40589200D03*
X206987100Y-40589200D03*
X203487100Y-40589200D03*
X199987100Y-40589200D03*
X196487100Y-40589200D03*
X192987100Y-40589200D03*
X189487100Y-40589200D03*
X185987100Y-40589200D03*
X182491100Y-40589200D03*
X178991100Y-40589200D03*
X175491100Y-40589200D03*
X171991100Y-40589200D03*
X168491100Y-40589200D03*
X164991100Y-40589200D03*
X161491100Y-40589200D03*
X157991100Y-40589200D03*
X154491100Y-40589200D03*
D11*
X136631500Y33097000D03*
D12*
X136631500Y33097000D03*
X228631500Y33097000D03*
D11*
X228631500Y33097000D03*
D13*
X206159500Y38252000D03*
X223939500Y30632000D03*
X208699500Y38252000D03*
X221399500Y30632000D03*
X211239500Y38252000D03*
X218859500Y30632000D03*
X213779500Y38252000D03*
X216319500Y30632000D03*
X216319500Y38252000D03*
X213779500Y30632000D03*
X218859500Y38252000D03*
X211239500Y30632000D03*
X221399500Y38252000D03*
X208699500Y30632000D03*
X223939500Y38252000D03*
D14*
X206159500Y30632000D03*
G36*
G01*
X206609502Y34842000D02*
X205709498Y34842000D01*
G75*
G02*
X205459500Y35091998I0J249998D01*
G01*
X205459500Y35617002D01*
G75*
G02*
X205709498Y35867000I249998J0D01*
G01*
X206609502Y35867000D01*
G75*
G02*
X206859500Y35617002I0J-249998D01*
G01*
X206859500Y35091998D01*
G75*
G02*
X206609502Y34842000I-249998J0D01*
G01*
G37*
G36*
G01*
X206609502Y33017000D02*
X205709498Y33017000D01*
G75*
G02*
X205459500Y33266998I0J249998D01*
G01*
X205459500Y33792002D01*
G75*
G02*
X205709498Y34042000I249998J0D01*
G01*
X206609502Y34042000D01*
G75*
G02*
X206859500Y33792002I0J-249998D01*
G01*
X206859500Y33266998D01*
G75*
G02*
X206609502Y33017000I-249998J0D01*
G01*
G37*
G36*
G01*
X209149502Y34842000D02*
X208249498Y34842000D01*
G75*
G02*
X207999500Y35091998I0J249998D01*
G01*
X207999500Y35617002D01*
G75*
G02*
X208249498Y35867000I249998J0D01*
G01*
X209149502Y35867000D01*
G75*
G02*
X209399500Y35617002I0J-249998D01*
G01*
X209399500Y35091998D01*
G75*
G02*
X209149502Y34842000I-249998J0D01*
G01*
G37*
G36*
G01*
X209149502Y33017000D02*
X208249498Y33017000D01*
G75*
G02*
X207999500Y33266998I0J249998D01*
G01*
X207999500Y33792002D01*
G75*
G02*
X208249498Y34042000I249998J0D01*
G01*
X209149502Y34042000D01*
G75*
G02*
X209399500Y33792002I0J-249998D01*
G01*
X209399500Y33266998D01*
G75*
G02*
X209149502Y33017000I-249998J0D01*
G01*
G37*
G36*
G01*
X211689502Y34842000D02*
X210789498Y34842000D01*
G75*
G02*
X210539500Y35091998I0J249998D01*
G01*
X210539500Y35617002D01*
G75*
G02*
X210789498Y35867000I249998J0D01*
G01*
X211689502Y35867000D01*
G75*
G02*
X211939500Y35617002I0J-249998D01*
G01*
X211939500Y35091998D01*
G75*
G02*
X211689502Y34842000I-249998J0D01*
G01*
G37*
G36*
G01*
X211689502Y33017000D02*
X210789498Y33017000D01*
G75*
G02*
X210539500Y33266998I0J249998D01*
G01*
X210539500Y33792002D01*
G75*
G02*
X210789498Y34042000I249998J0D01*
G01*
X211689502Y34042000D01*
G75*
G02*
X211939500Y33792002I0J-249998D01*
G01*
X211939500Y33266998D01*
G75*
G02*
X211689502Y33017000I-249998J0D01*
G01*
G37*
G36*
G01*
X214229502Y34842000D02*
X213329498Y34842000D01*
G75*
G02*
X213079500Y35091998I0J249998D01*
G01*
X213079500Y35617002D01*
G75*
G02*
X213329498Y35867000I249998J0D01*
G01*
X214229502Y35867000D01*
G75*
G02*
X214479500Y35617002I0J-249998D01*
G01*
X214479500Y35091998D01*
G75*
G02*
X214229502Y34842000I-249998J0D01*
G01*
G37*
G36*
G01*
X214229502Y33017000D02*
X213329498Y33017000D01*
G75*
G02*
X213079500Y33266998I0J249998D01*
G01*
X213079500Y33792002D01*
G75*
G02*
X213329498Y34042000I249998J0D01*
G01*
X214229502Y34042000D01*
G75*
G02*
X214479500Y33792002I0J-249998D01*
G01*
X214479500Y33266998D01*
G75*
G02*
X214229502Y33017000I-249998J0D01*
G01*
G37*
G36*
G01*
X216769502Y34842000D02*
X215869498Y34842000D01*
G75*
G02*
X215619500Y35091998I0J249998D01*
G01*
X215619500Y35617002D01*
G75*
G02*
X215869498Y35867000I249998J0D01*
G01*
X216769502Y35867000D01*
G75*
G02*
X217019500Y35617002I0J-249998D01*
G01*
X217019500Y35091998D01*
G75*
G02*
X216769502Y34842000I-249998J0D01*
G01*
G37*
G36*
G01*
X216769502Y33017000D02*
X215869498Y33017000D01*
G75*
G02*
X215619500Y33266998I0J249998D01*
G01*
X215619500Y33792002D01*
G75*
G02*
X215869498Y34042000I249998J0D01*
G01*
X216769502Y34042000D01*
G75*
G02*
X217019500Y33792002I0J-249998D01*
G01*
X217019500Y33266998D01*
G75*
G02*
X216769502Y33017000I-249998J0D01*
G01*
G37*
G36*
G01*
X219309502Y34842000D02*
X218409498Y34842000D01*
G75*
G02*
X218159500Y35091998I0J249998D01*
G01*
X218159500Y35617002D01*
G75*
G02*
X218409498Y35867000I249998J0D01*
G01*
X219309502Y35867000D01*
G75*
G02*
X219559500Y35617002I0J-249998D01*
G01*
X219559500Y35091998D01*
G75*
G02*
X219309502Y34842000I-249998J0D01*
G01*
G37*
G36*
G01*
X219309502Y33017000D02*
X218409498Y33017000D01*
G75*
G02*
X218159500Y33266998I0J249998D01*
G01*
X218159500Y33792002D01*
G75*
G02*
X218409498Y34042000I249998J0D01*
G01*
X219309502Y34042000D01*
G75*
G02*
X219559500Y33792002I0J-249998D01*
G01*
X219559500Y33266998D01*
G75*
G02*
X219309502Y33017000I-249998J0D01*
G01*
G37*
G36*
G01*
X221849502Y34842000D02*
X220949498Y34842000D01*
G75*
G02*
X220699500Y35091998I0J249998D01*
G01*
X220699500Y35617002D01*
G75*
G02*
X220949498Y35867000I249998J0D01*
G01*
X221849502Y35867000D01*
G75*
G02*
X222099500Y35617002I0J-249998D01*
G01*
X222099500Y35091998D01*
G75*
G02*
X221849502Y34842000I-249998J0D01*
G01*
G37*
G36*
G01*
X221849502Y33017000D02*
X220949498Y33017000D01*
G75*
G02*
X220699500Y33266998I0J249998D01*
G01*
X220699500Y33792002D01*
G75*
G02*
X220949498Y34042000I249998J0D01*
G01*
X221849502Y34042000D01*
G75*
G02*
X222099500Y33792002I0J-249998D01*
G01*
X222099500Y33266998D01*
G75*
G02*
X221849502Y33017000I-249998J0D01*
G01*
G37*
G36*
G01*
X224389502Y34842000D02*
X223489498Y34842000D01*
G75*
G02*
X223239500Y35091998I0J249998D01*
G01*
X223239500Y35617002D01*
G75*
G02*
X223489498Y35867000I249998J0D01*
G01*
X224389502Y35867000D01*
G75*
G02*
X224639500Y35617002I0J-249998D01*
G01*
X224639500Y35091998D01*
G75*
G02*
X224389502Y34842000I-249998J0D01*
G01*
G37*
G36*
G01*
X224389502Y33017000D02*
X223489498Y33017000D01*
G75*
G02*
X223239500Y33266998I0J249998D01*
G01*
X223239500Y33792002D01*
G75*
G02*
X223489498Y34042000I249998J0D01*
G01*
X224389502Y34042000D01*
G75*
G02*
X224639500Y33792002I0J-249998D01*
G01*
X224639500Y33266998D01*
G75*
G02*
X224389502Y33017000I-249998J0D01*
G01*
G37*
D15*
X142151500Y13042500D03*
G36*
G01*
X146088500Y35331000D02*
X146088500Y36093000D01*
G75*
G02*
X146469500Y36474000I381000J0D01*
G01*
X147231500Y36474000D01*
G75*
G02*
X147612500Y36093000I0J-381000D01*
G01*
X147612500Y35331000D01*
G75*
G02*
X147231500Y34950000I-381000J0D01*
G01*
X146469500Y34950000D01*
G75*
G02*
X146088500Y35331000I0J381000D01*
G01*
G37*
D16*
X149390500Y35712000D03*
X151930500Y35712000D03*
X157010500Y35712000D03*
X159550500Y35712000D03*
X162090500Y35712000D03*
X164630500Y35712000D03*
D15*
X135801500Y13042500D03*
X138976500Y13042500D03*
D17*
X169710500Y35307500D03*
D14*
X169710500Y37807500D03*
D18*
X173838000Y35712000D03*
X180338000Y35712000D03*
X173838000Y31212000D03*
X180338000Y31212000D03*
D19*
X224701500Y26441000D03*
D20*
X227241500Y26441000D03*
D13*
X153454500Y27203000D03*
D17*
X145834500Y27203000D03*
D21*
X136690500Y17043000D03*
X136690500Y19583000D03*
X136690500Y22123000D03*
X136690500Y24663000D03*
D22*
X136690500Y27203000D03*
D23*
X185077500Y2717000D03*
X200317500Y35737000D03*
X185077500Y5257000D03*
X200317500Y33197000D03*
X185077500Y7797000D03*
X200317500Y30657000D03*
X185077500Y10337000D03*
X200317500Y28117000D03*
X185077500Y12877000D03*
X200317500Y25577000D03*
X185077500Y15417000D03*
X200317500Y23037000D03*
X185077500Y17957000D03*
X200317500Y20497000D03*
X185077500Y20497000D03*
X200317500Y17957000D03*
X185077500Y23037000D03*
X200317500Y15417000D03*
X185077500Y25577000D03*
X200317500Y12877000D03*
X185077500Y28117000D03*
X200317500Y10337000D03*
X185077500Y30657000D03*
X200317500Y7797000D03*
X185077500Y33197000D03*
X200317500Y5257000D03*
X185077500Y35737000D03*
D24*
X200317500Y2717000D03*
D19*
X224701500Y25000D03*
D20*
X227241500Y25000D03*
D19*
X224701500Y3327000D03*
D20*
X227241500Y3327000D03*
D19*
X224701500Y6629000D03*
D20*
X227241500Y6629000D03*
D19*
X224701500Y9931000D03*
D20*
X227241500Y9931000D03*
D23*
X165138500Y27584000D03*
X157518500Y25044000D03*
X165138500Y25044000D03*
D24*
X157518500Y27584000D03*
D19*
X224701500Y13233000D03*
D20*
X227241500Y13233000D03*
D19*
X224701500Y16535000D03*
D20*
X227241500Y16535000D03*
D19*
X224701500Y19837000D03*
D20*
X227241500Y19837000D03*
D19*
X224701500Y23139000D03*
D20*
X227241500Y23139000D03*
D25*
X142225000Y36982000D03*
X142215000Y31902000D03*
D11*
X228626500Y-37923000D03*
D12*
X228626500Y-37923000D03*
X136626500Y-37923000D03*
D11*
X136626500Y-37923000D03*
M02*
